<?xml version="1.0" encoding="UTF-8"?>
<svg width="378px" height="261px" viewBox="0 0 378 261" version="1.1" xmlns="http://www.w3.org/2000/svg" xmlns:xlink="http://www.w3.org/1999/xlink">
    <!-- Generator: Sketch 43.2 (39069) - http://www.bohemiancoding.com/sketch -->
    <title>authentication with beta</title>
    <desc>Created with Sketch.</desc>
    <defs>
        <linearGradient x1="0.0425262609%" y1="49.9960599%" x2="99.9912109%" y2="49.9960599%" id="linearGradient-1">
            <stop stop-color="#808080" stop-opacity="0.25" offset="0%"></stop>
            <stop stop-color="#808080" stop-opacity="0.12" offset="54%"></stop>
            <stop stop-color="#808080" stop-opacity="0.1" offset="100%"></stop>
        </linearGradient>
    </defs>
    <g id="Sign-In" stroke="none" stroke-width="1" fill="none" fill-rule="evenodd">
        <g id="Desktop-Copy-3" transform="translate(-65.000000, -317.000000)">
            <g id="Course-Form" transform="translate(-93.000000, 83.000000)">
                <g id="Illustration-side" transform="translate(0.000000, 172.000000)">
                    <g id="authentication-with-beta" transform="translate(158.000000, 62.000000)">
                        <g id="undraw_authentication_fsn5" fill-rule="nonzero">
                            <path d="M213.273414,35.7632763 C189.104669,35.7956091 165.841241,28.9442953 143.589829,21.3331613 C121.338417,13.7220274 99.2583691,5.19910934 75.5390494,1.58753898 C60.2844487,-0.733953868 42.9379179,-0.520557589 31.0135925,7.90859542 C19.5354593,16.017654 16.2116506,29.4389866 14.6079453,41.8386037 C13.401933,51.1666077 12.8458093,60.9569703 17.3626972,69.4895882 C20.4989759,75.4129516 25.8662156,80.2951998 29.6491496,85.9405013 C42.8538527,105.579426 34.9129245,130.666421 22.0800483,150.761238 C16.0629199,160.189473 9.01437614,169.226482 4.46515547,179.194675 C-0.0840652007,189.162868 -1.949666,200.466404 2.69008642,210.305266 C7.28780625,220.056829 17.6730918,227.134472 28.8181975,231.968222 C51.4511361,241.80385 77.8023432,243.911947 103.445463,244.723499 C160.208873,246.524434 217.082214,242.851432 273.803592,239.178429 C294.794026,237.820453 315.878225,236.452777 336.4354,232.517879 C347.848867,230.335417 359.601829,227.095673 367.694721,219.995397 C377.966842,210.981021 380.068472,196.263144 372.593136,185.683862 C360.057721,167.939638 327.003931,164.593196 318.015421,145.393998 C313.058807,134.824416 317.3332,122.70286 323.62839,112.514805 C337.130554,90.6546191 360.371349,71.0738939 360.762576,46.6238536 C361.030938,29.8334464 348.944948,13.4536654 330.893563,6.15615931 C311.972426,-1.4873074 286.17411,0.478524989 272.917674,14.7243432 C259.286178,29.4001873 234.613042,35.7406434 213.273414,35.7632763 Z" id="Shape" fill="#6C63FF" opacity="0.1"></path>
                            <path d="M320.912437,208.986089 C320.912437,208.986089 316.93874,206.363901 313.000608,208.229502 C313.000608,208.229502 314.213087,210.563928 319.1988,210.344065 L320.912437,208.986089 Z" id="Shape" fill="#6C63FF"></path>
                            <path d="M321.416828,209.12512 C321.416828,209.12512 322.626074,213.729306 319.59326,216.862352 C319.59326,216.862352 317.769692,214.964418 319.59326,210.314966 L321.416828,209.12512 Z" id="Shape" fill="#6C63FF"></path>
                            <path d="M326.357276,204.70523 C326.357276,204.70523 326.063047,200.789732 317.220035,202.089509 C317.220035,202.089509 317.178002,204.614699 320.281948,205.811011 C323.385894,207.007323 324.808536,205.998541 326.357276,204.70523 Z" id="Shape" fill="#6C63FF"></path>
                            <path d="M326.913399,204.679364 C326.913399,204.679364 330.651067,205.87891 327.317559,214.172265 C327.317559,214.172265 324.850568,213.622608 324.40761,210.321432 C323.964651,207.020257 325.277361,205.882143 326.913399,204.679364 Z" id="Shape" fill="#6C63FF"></path>
                            <path d="M331.905579,199.124594 C331.905579,199.124594 332.413203,192.680673 323.376194,193.340262 C323.376194,193.340262 322.729539,199.16016 330.311573,200.673334 L331.905579,199.124594 Z" id="Shape" fill="#6C63FF"></path>
                            <path d="M337.877441,191.849721 C337.877441,191.849721 336.639096,184.545748 327.60532,186.721744 C327.60532,186.721744 327.572988,193.036334 336.403067,193.589224 L337.877441,191.849721 Z" id="Shape" fill="#6C63FF"></path>
                            <path d="M342.242365,184.329119 C342.242365,184.329119 340.166601,177.21591 331.216891,179.343406 C331.216891,179.343406 333.34762,185.742061 341.647442,185.641829 L342.242365,184.329119 Z" id="Shape" fill="#6C63FF"></path>
                            <path d="M346.387426,176.983114 C346.387426,176.983114 344.360162,169.601542 335.717612,171.809871 C335.717612,171.809871 338.601695,178.822848 345.815136,178.231159 L346.387426,176.983114 Z" id="Shape" fill="#6C63FF"></path>
                            <path d="M349.058113,170.005702 C349.058113,170.005702 347.499673,160.978393 339.442347,162.976558 C339.442347,162.976558 341.78324,171.189081 348.466423,171.321646 L349.058113,170.005702 Z" id="Shape" fill="#6C63FF"></path>
                            <path d="M351.563903,161.576549 C351.563903,161.576549 349.691835,152.478108 341.540744,155.109995 C341.540744,155.109995 344.735222,163.710512 350.985146,162.821361 L351.563903,161.576549 Z" id="Shape" fill="#6C63FF"></path>
                            <path d="M353.102942,153.732619 C353.102942,153.732619 350.131561,144.630945 343.829904,144.876674 C343.829904,144.876674 346.865951,154.489206 352.575918,155.546488 L353.102942,153.732619 Z" id="Shape" fill="#6C63FF"></path>
                            <path d="M354.098792,146.076219 C354.098792,146.076219 350.865515,135.121877 345.737538,135.965762 C345.737538,135.965762 347.974965,144.33995 353.917728,147.78339 L354.098792,146.076219 Z" id="Shape" fill="#6C63FF"></path>
                            <path d="M354.661382,136.942212 C354.661382,136.942212 351.628568,127.814671 346.57819,127.449311 C346.57819,127.449311 348.64102,136.431354 354.56115,139.315437 L354.661382,136.942212 Z" id="Shape" fill="#6C63FF"></path>
                            <path d="M355.272471,128.419294 C355.272471,128.419294 351.492771,119.282053 348.159262,119.075124 C348.159262,119.075124 349.801767,128.073333 354.949144,129.919534 L355.272471,128.419294 Z" id="Shape" fill="#6C63FF"></path>
                            <path d="M355.689564,120.491299 C355.689564,120.491299 353.364838,110.568372 350.024863,109.743886 C350.024863,109.743886 350.480755,117.862645 355.353303,121.234953 L355.689564,120.491299 Z" id="Shape" fill="#6C63FF"></path>
                            <path d="M356.950542,110.106013 C356.950542,110.106013 354.506185,102.194185 351.799932,100.988172 C351.799932,100.988172 352.333423,110.316176 356.32652,112.039513 L356.950542,110.106013 Z" id="Shape" fill="#6C63FF"></path>
                            <path d="M357.99489,103.316132 L358.486349,89.3677749 C358.486349,89.3677749 353.42627,99.8823915 357.62953,105.763722 L357.99489,103.316132 Z" id="Shape" fill="#6C63FF"></path>
                            <path d="M361.900689,89.4421403 C361.900689,89.4421403 365.544592,79.2573179 366.427277,78.6882611 C366.427277,78.6882611 359.281735,85.2970792 359.980123,93.7973643 L361.900689,89.4421403 Z" id="Shape" fill="#6C63FF"></path>
                            <path d="M332.151308,199.076095 C332.151308,199.076095 338.559663,198.238676 338.368899,207.295085 C338.368899,207.295085 332.5781,208.239202 330.686633,200.747699 L332.151308,199.076095 Z" id="Shape" fill="#6C63FF"></path>
                            <path d="M338.181369,191.603992 C338.181369,191.603992 345.585574,191.581359 344.971251,200.851164 C344.971251,200.851164 338.753659,201.963411 336.703762,193.356428 L338.181369,191.603992 Z" id="Shape" fill="#6C63FF"></path>
                            <path d="M342.313497,184.927275 C342.313497,184.927275 349.03548,181.77483 353.335738,189.912988 C353.335738,189.912988 347.127847,192.538409 341.718574,186.243219 L342.313497,184.927275 Z" id="Shape" fill="#6C63FF"></path>
                            <path d="M346.536157,177.051013 C346.536157,177.051013 353.419804,173.698104 357.4614,181.645499 C357.4614,181.645499 350.289991,184.115723 345.9671,178.308757 L346.536157,177.051013 Z" id="Shape" fill="#6C63FF"></path>
                            <path d="M348.970814,170.202932 C348.970814,170.202932 355.595799,163.875409 360.882207,170.274064 C360.882207,170.274064 354.114958,175.482873 348.666886,171.612641 L348.970814,170.202932 Z" id="Shape" fill="#6C63FF"></path>
                            <path d="M351.188842,161.359919 C351.188842,161.359919 357.852626,154.893366 363.097001,161.657381 C363.097001,161.657381 355.618432,166.969655 350.94958,162.717896 L351.188842,161.359919 Z" id="Shape" fill="#6C63FF"></path>
                            <path d="M352.433654,153.473957 C352.433654,153.473957 357.568098,145.390765 363.614326,147.194933 C363.614326,147.194933 358.285885,155.753417 352.491853,155.371891 L352.433654,153.473957 Z" id="Shape" fill="#6C63FF"></path>
                            <path d="M353.946828,146.024487 C353.946828,146.024487 359.120071,135.846131 364.015252,137.617967 C364.015252,137.617967 360.284051,145.442497 353.814263,147.741357 L353.946828,146.024487 Z" id="Shape" fill="#6C63FF"></path>
                            <path d="M354.305721,136.411955 C354.305721,136.411955 359.624462,128.399894 364.606942,129.379577 C364.606942,129.379577 360.258184,137.504802 353.788397,138.730214 L354.305721,136.411955 Z" id="Shape" fill="#6C63FF"></path>
                            <path d="M354.719581,128.241464 C354.719581,128.241464 358.842009,119.24972 362.191684,119.188288 C362.191684,119.188288 360.212918,128.115366 354.997643,129.76757 L354.719581,128.241464 Z" id="Shape" fill="#6C63FF"></path>
                            <path d="M355.5279,120.297302 C355.5279,120.297302 360.109454,111.192394 363.552894,111.172995 C363.552894,111.172995 361.208768,118.958726 355.679864,121.095922 L355.5279,120.297302 Z" id="Shape" fill="#6C63FF"></path>
                            <path d="M356.216588,110.67507 C356.216588,110.67507 359.643862,103.141535 362.482679,102.28795 C362.482679,102.28795 360.769042,111.470456 356.594882,112.673235 L356.216588,110.67507 Z" id="Shape" fill="#6C63FF"></path>
                            <path d="M358.402283,103.041303 L366.061916,91.3724066 C366.061916,91.3724066 364.099317,102.882873 357.28357,105.275497 L358.402283,103.041303 Z" id="Shape" fill="#6C63FF"></path>
                            <path d="M363.659592,90.3830239 C363.659592,90.3830239 372.560803,84.2397977 372.884131,83.2471816 C372.884131,83.2471816 368.357543,91.8509316 359.951023,93.3705718 L363.659592,90.3830239 Z" id="Shape" fill="#6C63FF"></path>
                            <path d="M364.193082,87.6185721 C364.193082,87.6185721 374.413471,77.7926434 377.022725,77.8023432 C377.022725,77.8023432 368.593572,78.1871032 363.947353,87.0947812 L364.193082,87.6185721 Z" id="Shape" fill="#6C63FF"></path>
                            <path d="M356.31682,112.133278 L356.688647,112.181777 C358.609213,97.1502725 361.409231,88.2555276 364.571376,87.1659133 L364.448511,86.8102528 C361.095603,87.9742325 358.276186,96.7331798 356.31682,112.133278 Z" id="Shape" fill="#444053"></path>
                            <path d="M353.490936,148.080851 L354.053526,148.126117 C354.173157,146.722875 354.263689,145.2873 354.325121,143.854958 C354.861845,131.413308 355.692797,119.986908 356.785645,111.421957 L356.462317,111.017797 C355.366236,119.602148 354.299255,131.371276 353.762531,143.832325 C353.701099,145.254967 353.610567,146.684075 353.490936,148.080851 Z" id="Shape" fill="#444053"></path>
                            <path d="M310.423687,216.157497 C310.520685,216.115465 320.424212,211.692342 330.7028,201.145392 C336.724841,194.968178 341.728578,187.874549 345.527375,180.129092 C350.280292,170.451894 353.177308,158.559902 354.147291,147.007403 L353.562068,147.282232 C351.379606,173.213113 339.574912,190.93147 330.188709,200.582802 C320.010353,211.035987 310.216757,215.413844 310.119759,215.455876 L310.423687,216.157497 Z" id="Shape" fill="#444053"></path>
                            <path d="M336.066806,27.8805471 L25.3876906,27.8805471 C23.8591404,27.8805471 22.6200055,29.119682 22.6200055,30.6482322 L22.6200055,38.7120249 L338.834491,38.7120249 L338.834491,30.6482322 C338.834491,29.9141965 338.542897,29.210225 338.023855,28.6911833 C337.504813,28.1721417 336.800842,27.8805471 336.066806,27.8805471 Z" id="Shape" fill="#3F3D56"></path>
                            <path d="M22.6200055,38.7120249 L22.6200055,220.17646 C22.6200055,223.258561 25.1185414,225.757096 28.2006416,225.757096 L333.253855,225.757096 C336.335955,225.757096 338.834491,223.258561 338.834491,220.17646 L338.834491,38.7120249 L22.6200055,38.7120249 Z" id="Shape" fill="#FFFFFF"></path>
                            <circle id="Oval" fill="#FA5959" opacity="0.8" cx="27.6283515" cy="33.2154541" r="1.29331078"></circle>
                            <circle id="Oval" fill="#FED253" opacity="0.8" cx="31.1849562" cy="33.2154541" r="1.29331078"></circle>
                            <circle id="Oval" fill="#8CCF4D" opacity="0.8" cx="34.7415608" cy="33.2154541" r="1.29331078"></circle>
                            <rect id="Rectangle-path" fill="#000000" opacity="0.05" x="52.0137263" y="68.9690306" width="254.135568" height="111.748518"></rect>
                            <rect id="Rectangle-path" fill="#3F3D56" x="53.9536925" y="69.8161492" width="250.255636" height="109.284761"></rect>
                            <path d="M122.175836,97.9424254 C108.426027,97.9424254 97.2796036,109.088848 97.2796036,122.838658 C97.2796036,136.588467 108.426027,147.73489 122.175836,147.73489 C135.925646,147.73489 147.072069,136.588467 147.072069,122.838658 C147.072069,116.235766 144.44908,109.903312 139.780131,105.234363 C135.111182,100.565414 128.778728,97.9424254 122.175836,97.9424254 L122.175836,97.9424254 Z M126.640992,123.436814 L126.640992,135.225342 L117.840012,135.225342 L117.840012,123.436814 C115.342524,121.546306 114.331626,118.271864 115.328752,115.302486 C116.325878,112.333108 119.108176,110.332433 122.240502,110.332433 C125.372828,110.332433 128.155125,112.333108 129.152251,115.302486 C130.149377,118.271864 129.138479,121.546306 126.640992,123.436814 L126.640992,123.436814 Z" id="Shape" fill="#6C63FF"></path>
                            <path d="M122.175836,97.9424254 C108.426027,97.9424254 97.2796036,109.088848 97.2796036,122.838658 C97.2796036,136.588467 108.426027,147.73489 122.175836,147.73489 C135.925646,147.73489 147.072069,136.588467 147.072069,122.838658 C147.072069,116.235766 144.44908,109.903312 139.780131,105.234363 C135.111182,100.565414 128.778728,97.9424254 122.175836,97.9424254 L122.175836,97.9424254 Z M126.640992,123.436814 L126.640992,135.225342 L117.840012,135.225342 L117.840012,123.436814 C115.342524,121.546306 114.331626,118.271864 115.328752,115.302486 C116.325878,112.333108 119.108176,110.332433 122.240502,110.332433 C125.372828,110.332433 128.155125,112.333108 129.152251,115.302486 C130.149377,118.271864 129.138479,121.546306 126.640992,123.436814 L126.640992,123.436814 Z" id="Shape" fill="#000000" opacity="0.05"></path>
                            <path d="M122.175836,90.8292161 C104.49751,90.8292161 90.1663943,105.160331 90.1663943,122.838658 C90.1663943,140.516984 104.49751,154.8481 122.175836,154.8481 C139.854163,154.8481 154.185278,140.516984 154.185278,122.838658 C154.185278,114.349226 150.812864,106.207499 144.809929,100.204565 C138.806995,94.2016297 130.665268,90.8292161 122.175836,90.8292161 L122.175836,90.8292161 Z M127.914903,123.608178 L127.914903,138.762547 L116.598433,138.762547 L116.598433,123.608178 C113.386112,121.177196 112.085592,116.966024 113.367758,113.147028 C114.649923,109.328032 118.228185,106.754831 122.256668,106.754831 C126.285151,106.754831 129.863413,109.328032 131.145579,113.147028 C132.427744,116.966024 131.127224,121.177196 127.914903,123.608178 Z" id="Shape" fill="#6C63FF"></path>
                            <rect id="Rectangle-path" fill="#FFFFFF" x="167.441713" y="118.638631" width="103.464862" height="10.9931416"></rect>
                            <rect id="Rectangle-path" fill="#6C63FF" x="248.596965" y="138.684948" width="22.309611" height="10.9931416"></rect>
                            <path d="M177.626536,123.970305 L175.754468,123.970305 L177.419606,122.3084 C177.481615,122.244442 177.481615,122.142796 177.419606,122.078838 C177.389251,122.048233 177.34793,122.031018 177.304825,122.031018 C177.261719,122.031018 177.220398,122.048233 177.190043,122.078838 L175.524906,123.743975 L175.524906,121.868675 C175.524906,121.77939 175.452526,121.707011 175.363242,121.707011 C175.27468,121.708731 175.203298,121.780113 175.201578,121.868675 L175.201578,123.743975 L173.539674,122.069138 C173.509319,122.038533 173.467998,122.021318 173.424892,122.021318 C173.381787,122.021318 173.340466,122.038533 173.310111,122.069138 C173.248102,122.133097 173.248102,122.234742 173.310111,122.298701 L174.975249,123.960605 L173.099948,123.960605 C173.011386,123.962325 172.940004,124.033707 172.938284,124.122269 C172.938284,124.211553 173.010664,124.283933 173.099948,124.283933 L174.975249,124.283933 L173.310111,125.94907 C173.248102,126.013029 173.248102,126.114674 173.310111,126.178633 C173.374725,126.239002 173.475059,126.239002 173.539674,126.178633 L175.201578,124.513495 L175.201578,126.385563 C175.201578,126.474847 175.273957,126.547227 175.363242,126.547227 C175.452526,126.547227 175.524906,126.474847 175.524906,126.385563 L175.524906,124.513495 L177.190043,126.178633 C177.254658,126.239002 177.354992,126.239002 177.419606,126.178633 C177.481615,126.114674 177.481615,126.013029 177.419606,125.94907 L175.754468,124.283933 L177.626536,124.283933 C177.71582,124.283933 177.7882,124.211553 177.7882,124.122269 C177.783062,124.036793 177.712165,123.970151 177.626536,123.970305 L177.626536,123.970305 Z" id="Shape" fill="#6C63FF"></path>
                            <path d="M184.416417,123.970305 L182.54435,123.970305 L184.209488,122.3084 C184.271497,122.244442 184.271497,122.142796 184.209488,122.078838 C184.179133,122.048233 184.137812,122.031018 184.094706,122.031018 C184.051601,122.031018 184.01028,122.048233 183.979925,122.078838 L182.314787,123.743975 L182.314787,121.868675 C182.314787,121.77939 182.242408,121.707011 182.153124,121.707011 C182.064561,121.708731 181.99318,121.780113 181.99146,121.868675 L181.99146,123.743975 L180.329555,122.069138 C180.2992,122.038533 180.25788,122.021318 180.214774,122.021318 C180.171668,122.021318 180.130348,122.038533 180.099993,122.069138 C180.037984,122.133097 180.037984,122.234742 180.099993,122.298701 L181.76513,123.960605 L179.88983,123.960605 C179.801267,123.962325 179.729886,124.033707 179.728166,124.122269 C179.728166,124.211553 179.800545,124.283933 179.88983,124.283933 L181.76513,124.283933 L180.099993,125.94907 C180.037984,126.013029 180.037984,126.114674 180.099993,126.178633 C180.164607,126.239002 180.264941,126.239002 180.329555,126.178633 L181.99146,124.513495 L181.99146,126.385563 C181.99146,126.474847 182.063839,126.547227 182.153124,126.547227 C182.242408,126.547227 182.314787,126.474847 182.314787,126.385563 L182.314787,124.513495 L183.979925,126.178633 C184.044539,126.239002 184.144873,126.239002 184.209488,126.178633 C184.271497,126.114674 184.271497,126.013029 184.209488,125.94907 L182.54435,124.283933 L184.416417,124.283933 C184.505702,124.283933 184.578081,124.211553 184.578081,124.122269 C184.572944,124.036793 184.502047,123.970151 184.416417,123.970305 Z" id="Shape" fill="#6C63FF"></path>
                            <path d="M191.206299,123.970305 L189.334232,123.970305 L190.999369,122.3084 C191.061378,122.244442 191.061378,122.142796 190.999369,122.078838 C190.969014,122.048233 190.927694,122.031018 190.884588,122.031018 C190.841482,122.031018 190.800162,122.048233 190.769807,122.078838 L189.104669,123.743975 L189.104669,121.868675 C189.104669,121.77939 189.03229,121.707011 188.943005,121.707011 C188.854443,121.708731 188.783061,121.780113 188.781341,121.868675 L188.781341,123.743975 L187.119437,122.069138 C187.089082,122.038533 187.047761,122.021318 187.004656,122.021318 C186.96155,122.021318 186.920229,122.038533 186.889874,122.069138 C186.827865,122.133097 186.827865,122.234742 186.889874,122.298701 L188.555012,123.960605 L186.679711,123.960605 C186.591149,123.962325 186.519768,124.033707 186.518047,124.122269 C186.518047,124.211553 186.590427,124.283933 186.679711,124.283933 L188.555012,124.283933 L186.889874,125.94907 C186.827865,126.013029 186.827865,126.114674 186.889874,126.178633 C186.954489,126.239002 187.054823,126.239002 187.119437,126.178633 L188.781341,124.513495 L188.781341,126.385563 C188.781341,126.474847 188.853721,126.547227 188.943005,126.547227 C189.03229,126.547227 189.104669,126.474847 189.104669,126.385563 L189.104669,124.513495 L190.769807,126.178633 C190.834421,126.239002 190.934755,126.239002 190.999369,126.178633 C191.061378,126.114674 191.061378,126.013029 190.999369,125.94907 L189.334232,124.283933 L191.206299,124.283933 C191.295583,124.283933 191.367963,124.211553 191.367963,124.122269 C191.362825,124.036793 191.291929,123.970151 191.206299,123.970305 L191.206299,123.970305 Z" id="Shape" fill="#6C63FF"></path>
                            <path d="M197.996181,123.970305 L196.124113,123.970305 L197.789251,122.3084 C197.85126,122.244442 197.85126,122.142796 197.789251,122.078838 C197.758896,122.048233 197.717575,122.031018 197.67447,122.031018 C197.631364,122.031018 197.590043,122.048233 197.559688,122.078838 L195.894551,123.743975 L195.894551,121.868675 C195.894551,121.77939 195.822171,121.707011 195.732887,121.707011 C195.644325,121.708731 195.572943,121.780113 195.571223,121.868675 L195.571223,123.743975 L193.909319,122.069138 C193.878963,122.038533 193.837643,122.021318 193.794537,122.021318 C193.751432,122.021318 193.710111,122.038533 193.679756,122.069138 C193.617747,122.133097 193.617747,122.234742 193.679756,122.298701 L195.344893,123.960605 L193.469593,123.960605 C193.381031,123.962325 193.309649,124.033707 193.307929,124.122269 C193.307929,124.211553 193.380308,124.283933 193.469593,124.283933 L195.344893,124.283933 L193.679756,125.94907 C193.617747,126.013029 193.617747,126.114674 193.679756,126.178633 C193.74437,126.239002 193.844704,126.239002 193.909319,126.178633 L195.571223,124.513495 L195.571223,126.385563 C195.571223,126.474847 195.643602,126.547227 195.732887,126.547227 C195.822171,126.547227 195.894551,126.474847 195.894551,126.385563 L195.894551,124.513495 L197.559688,126.178633 C197.624303,126.239002 197.724636,126.239002 197.789251,126.178633 C197.85126,126.114674 197.85126,126.013029 197.789251,125.94907 L196.124113,124.283933 L197.996181,124.283933 C198.085465,124.283933 198.157844,124.211553 198.157844,124.122269 C198.152707,124.036793 198.08181,123.970151 197.996181,123.970305 L197.996181,123.970305 Z" id="Shape" fill="#6C63FF"></path>
                            <path d="M204.786062,123.970305 L202.913995,123.970305 L204.579132,122.3084 C204.641141,122.244442 204.641141,122.142796 204.579132,122.078838 C204.548777,122.048233 204.507457,122.031018 204.464351,122.031018 C204.421245,122.031018 204.379925,122.048233 204.34957,122.078838 L202.684432,123.743975 L202.684432,121.868675 C202.684432,121.77939 202.612053,121.707011 202.522768,121.707011 C202.434206,121.708731 202.362825,121.780113 202.361104,121.868675 L202.361104,123.743975 L200.6992,122.069138 C200.668845,122.038533 200.627524,122.021318 200.584419,122.021318 C200.541313,122.021318 200.499993,122.038533 200.469637,122.069138 C200.407629,122.133097 200.407629,122.234742 200.469637,122.298701 L202.134775,123.960605 L200.259474,123.960605 C200.170912,123.962325 200.099531,124.033707 200.097811,124.122269 C200.097811,124.211553 200.17019,124.283933 200.259474,124.283933 L202.134775,124.283933 L200.469637,125.94907 C200.407629,126.013029 200.407629,126.114674 200.469637,126.178633 C200.534252,126.239002 200.634586,126.239002 200.6992,126.178633 L202.361104,124.513495 L202.361104,126.385563 C202.361104,126.474847 202.433484,126.547227 202.522768,126.547227 C202.612053,126.547227 202.684432,126.474847 202.684432,126.385563 L202.684432,124.513495 L204.34957,126.178633 C204.414184,126.239002 204.514518,126.239002 204.579132,126.178633 C204.641141,126.114674 204.641141,126.013029 204.579132,125.94907 L202.913995,124.283933 L204.786062,124.283933 C204.875347,124.283933 204.947726,124.211553 204.947726,124.122269 C204.942588,124.036793 204.871692,123.970151 204.786062,123.970305 L204.786062,123.970305 Z" id="Shape" fill="#6C63FF"></path>
                            <path d="M211.575944,123.970305 L209.703876,123.970305 L211.369014,122.3084 C211.431023,122.244442 211.431023,122.142796 211.369014,122.078838 C211.338659,122.048233 211.297338,122.031018 211.254233,122.031018 C211.211127,122.031018 211.169806,122.048233 211.139451,122.078838 L209.474314,123.743975 L209.474314,121.868675 C209.474314,121.77939 209.401934,121.707011 209.31265,121.707011 C209.224088,121.708731 209.152706,121.780113 209.150986,121.868675 L209.150986,123.743975 L207.489082,122.069138 C207.458727,122.038533 207.417406,122.021318 207.3743,122.021318 C207.331195,122.021318 207.289874,122.038533 207.259519,122.069138 C207.19751,122.133097 207.19751,122.234742 207.259519,122.298701 L208.924657,123.960605 L207.049356,123.960605 C206.960794,123.962325 206.889412,124.033707 206.887692,124.122269 C206.887692,124.211553 206.960072,124.283933 207.049356,124.283933 L208.924657,124.283933 L207.259519,125.94907 C207.19751,126.013029 207.19751,126.114674 207.259519,126.178633 C207.324133,126.239002 207.424467,126.239002 207.489082,126.178633 L209.150986,124.513495 L209.150986,126.385563 C209.150986,126.474847 209.223365,126.547227 209.31265,126.547227 C209.401934,126.547227 209.474314,126.474847 209.474314,126.385563 L209.474314,124.513495 L211.139451,126.178633 C211.204066,126.239002 211.3044,126.239002 211.369014,126.178633 C211.431023,126.114674 211.431023,126.013029 211.369014,125.94907 L209.703876,124.283933 L211.575944,124.283933 C211.665228,124.283933 211.737608,124.211553 211.737608,124.122269 C211.73247,124.036793 211.661573,123.970151 211.575944,123.970305 L211.575944,123.970305 Z" id="Shape" fill="#6C63FF"></path>
                            <path d="M218.365825,123.970305 L216.493758,123.970305 L218.158896,122.3084 C218.220905,122.244442 218.220905,122.142796 218.158896,122.078838 C218.128541,122.048233 218.08722,122.031018 218.044114,122.031018 C218.001009,122.031018 217.959688,122.048233 217.929333,122.078838 L216.264195,123.743975 L216.264195,121.868675 C216.264195,121.77939 216.191816,121.707011 216.102532,121.707011 C216.013969,121.708731 215.942588,121.780113 215.940868,121.868675 L215.940868,123.743975 L214.278963,122.069138 C214.248608,122.038533 214.207288,122.021318 214.164182,122.021318 C214.121076,122.021318 214.079756,122.038533 214.049401,122.069138 C213.987392,122.133097 213.987392,122.234742 214.049401,122.298701 L215.714538,123.960605 L213.839238,123.960605 C213.750675,123.962325 213.679294,124.033707 213.677574,124.122269 C213.677574,124.211553 213.749953,124.283933 213.839238,124.283933 L215.714538,124.283933 L214.049401,125.94907 C213.987392,126.013029 213.987392,126.114674 214.049401,126.178633 C214.114015,126.239002 214.214349,126.239002 214.278963,126.178633 L215.940868,124.513495 L215.940868,126.385563 C215.940868,126.474847 216.013247,126.547227 216.102532,126.547227 C216.191816,126.547227 216.264195,126.474847 216.264195,126.385563 L216.264195,124.513495 L217.929333,126.178633 C217.993947,126.239002 218.094281,126.239002 218.158896,126.178633 C218.220905,126.114674 218.220905,126.013029 218.158896,125.94907 L216.493758,124.283933 L218.365825,124.283933 C218.45511,124.283933 218.527489,124.211553 218.527489,124.122269 C218.522352,124.036793 218.451455,123.970151 218.365825,123.970305 L218.365825,123.970305 Z" id="Shape" fill="#6C63FF"></path>
                            <path d="M225.155707,123.970305 L223.28364,123.970305 L224.948777,122.3084 C225.010786,122.244442 225.010786,122.142796 224.948777,122.078838 C224.918422,122.048233 224.877102,122.031018 224.833996,122.031018 C224.79089,122.031018 224.74957,122.048233 224.719215,122.078838 L223.054077,123.743975 L223.054077,121.868675 C223.054077,121.77939 222.981698,121.707011 222.892413,121.707011 C222.803851,121.708731 222.732469,121.780113 222.730749,121.868675 L222.730749,123.743975 L221.068845,122.069138 C221.03849,122.038533 220.997169,122.021318 220.954064,122.021318 C220.910958,122.021318 220.869637,122.038533 220.839282,122.069138 C220.777273,122.133097 220.777273,122.234742 220.839282,122.298701 L222.50442,123.960605 L220.629119,123.960605 C220.540557,123.962325 220.469176,124.033707 220.467455,124.122269 C220.467455,124.211553 220.539835,124.283933 220.629119,124.283933 L222.50442,124.283933 L220.839282,125.94907 C220.777273,126.013029 220.777273,126.114674 220.839282,126.178633 C220.903897,126.239002 221.004231,126.239002 221.068845,126.178633 L222.730749,124.513495 L222.730749,126.385563 C222.730749,126.474847 222.803129,126.547227 222.892413,126.547227 C222.981698,126.547227 223.054077,126.474847 223.054077,126.385563 L223.054077,124.513495 L224.719215,126.178633 C224.783829,126.239002 224.884163,126.239002 224.948777,126.178633 C225.010786,126.114674 225.010786,126.013029 224.948777,125.94907 L223.28364,124.283933 L225.155707,124.283933 C225.244991,124.283933 225.317371,124.211553 225.317371,124.122269 C225.312233,124.036793 225.241337,123.970151 225.155707,123.970305 L225.155707,123.970305 Z" id="Shape" fill="#6C63FF"></path>
                            <path d="M231.945589,123.970305 L230.073521,123.970305 L231.738659,122.3084 C231.800668,122.244442 231.800668,122.142796 231.738659,122.078838 C231.708304,122.048233 231.666983,122.031018 231.623878,122.031018 C231.580772,122.031018 231.539451,122.048233 231.509096,122.078838 L229.843959,123.743975 L229.843959,121.868675 C229.843959,121.77939 229.771579,121.707011 229.682295,121.707011 C229.593733,121.708731 229.522351,121.780113 229.520631,121.868675 L229.520631,123.743975 L227.858727,122.069138 C227.828371,122.038533 227.787051,122.021318 227.743945,122.021318 C227.70084,122.021318 227.659519,122.038533 227.629164,122.069138 C227.567155,122.133097 227.567155,122.234742 227.629164,122.298701 L229.294301,123.960605 L227.419001,123.960605 C227.330439,123.962325 227.259057,124.033707 227.257337,124.122269 C227.257337,124.211553 227.329716,124.283933 227.419001,124.283933 L229.294301,124.283933 L227.629164,125.94907 C227.567155,126.013029 227.567155,126.114674 227.629164,126.178633 C227.693778,126.239002 227.794112,126.239002 227.858727,126.178633 L229.520631,124.513495 L229.520631,126.385563 C229.520631,126.474847 229.59301,126.547227 229.682295,126.547227 C229.771579,126.547227 229.843959,126.474847 229.843959,126.385563 L229.843959,124.513495 L231.509096,126.178633 C231.573711,126.239002 231.674044,126.239002 231.738659,126.178633 C231.800668,126.114674 231.800668,126.013029 231.738659,125.94907 L230.073521,124.283933 L231.945589,124.283933 C232.034873,124.283933 232.107252,124.211553 232.107252,124.122269 C232.102115,124.036793 232.031218,123.970151 231.945589,123.970305 L231.945589,123.970305 Z" id="Shape" fill="#6C63FF"></path>
                            <path d="M238.73547,123.970305 L236.863403,123.970305 L238.52854,122.3084 C238.590549,122.244442 238.590549,122.142796 238.52854,122.078838 C238.498185,122.048233 238.456865,122.031018 238.413759,122.031018 C238.370653,122.031018 238.329333,122.048233 238.298978,122.078838 L236.63384,123.743975 L236.63384,121.868675 C236.63384,121.77939 236.561461,121.707011 236.472176,121.707011 C236.383614,121.708731 236.312233,121.780113 236.310512,121.868675 L236.310512,123.743975 L234.648608,122.069138 C234.618253,122.038533 234.576932,122.021318 234.533827,122.021318 C234.490721,122.021318 234.449401,122.038533 234.419045,122.069138 C234.357037,122.133097 234.357037,122.234742 234.419045,122.298701 L236.084183,123.960605 L234.208882,123.960605 C234.12032,123.962325 234.048939,124.033707 234.047219,124.122269 C234.047219,124.211553 234.119598,124.283933 234.208882,124.283933 L236.084183,124.283933 L234.419045,125.94907 C234.357037,126.013029 234.357037,126.114674 234.419045,126.178633 C234.48366,126.239002 234.583994,126.239002 234.648608,126.178633 L236.310512,124.513495 L236.310512,126.385563 C236.310512,126.474847 236.382892,126.547227 236.472176,126.547227 C236.561461,126.547227 236.63384,126.474847 236.63384,126.385563 L236.63384,124.513495 L238.298978,126.178633 C238.363592,126.239002 238.463926,126.239002 238.52854,126.178633 C238.590549,126.114674 238.590549,126.013029 238.52854,125.94907 L236.863403,124.283933 L238.73547,124.283933 C238.824755,124.283933 238.897134,124.211553 238.897134,124.122269 C238.891996,124.036793 238.8211,123.970151 238.73547,123.970305 L238.73547,123.970305 Z" id="Shape" fill="#6C63FF"></path>
                            <path d="M245.525352,123.970305 L243.653284,123.970305 L245.318422,122.3084 C245.380431,122.244442 245.380431,122.142796 245.318422,122.078838 C245.288067,122.048233 245.246746,122.031018 245.203641,122.031018 C245.160535,122.031018 245.119214,122.048233 245.088859,122.078838 L243.423722,123.743975 L243.423722,121.868675 C243.423722,121.77939 243.351342,121.707011 243.262058,121.707011 C243.173496,121.708731 243.102114,121.780113 243.100394,121.868675 L243.100394,123.743975 L241.43849,122.069138 C241.408135,122.038533 241.366814,122.021318 241.323708,122.021318 C241.280603,122.021318 241.239282,122.038533 241.208927,122.069138 C241.146918,122.133097 241.146918,122.234742 241.208927,122.298701 L242.874065,123.960605 L240.998764,123.960605 C240.910202,123.962325 240.83882,124.033707 240.8371,124.122269 C240.8371,124.211553 240.90948,124.283933 240.998764,124.283933 L242.874065,124.283933 L241.208927,125.94907 C241.146918,126.013029 241.146918,126.114674 241.208927,126.178633 C241.273541,126.239002 241.373875,126.239002 241.43849,126.178633 L243.100394,124.513495 L243.100394,126.385563 C243.100394,126.474847 243.172773,126.547227 243.262058,126.547227 C243.351342,126.547227 243.423722,126.474847 243.423722,126.385563 L243.423722,124.513495 L245.088859,126.178633 C245.153474,126.239002 245.253808,126.239002 245.318422,126.178633 C245.380431,126.114674 245.380431,126.013029 245.318422,125.94907 L243.653284,124.283933 L245.525352,124.283933 C245.614636,124.283933 245.687016,124.211553 245.687016,124.122269 C245.681878,124.036793 245.610981,123.970151 245.525352,123.970305 L245.525352,123.970305 Z" id="Shape" fill="#6C63FF"></path>
                            <path d="M297.577877,163.303119 C297.568706,162.912282 297.519958,162.523381 297.43238,162.142372 C297.141385,161.049525 296.48503,159.727115 295.405115,159.39732 C294.290133,159.055951 293.213183,158.600902 292.191238,158.039344 C291.997241,154.573271 292.792627,151.026366 291.926109,147.666992 C291.602782,146.438346 291.069291,145.261434 290.927027,144.003689 C290.749196,142.438783 291.175989,140.770412 290.551967,139.32837 C290.060508,138.190257 288.980594,137.388404 287.819848,136.968078 C286.659101,136.547752 285.407823,136.434587 284.175944,136.321423 C282.623971,136.195325 277.599459,135.600402 275.847023,136.987478 L275.847023,136.987478 C275.726153,137.081312 275.61753,137.189936 275.523695,137.310806 L275.523695,137.310806 C275.484974,137.364131 275.450385,137.420338 275.42023,137.478936 L275.404064,137.504802 C275.368936,137.572197 275.339726,137.642516 275.316766,137.714965 L275.316766,137.714965 C275.292319,137.794286 275.273944,137.875352 275.2618,137.957461 L275.2618,138.03506 L275.2618,138.206423 L275.2618,138.293722 L275.2618,138.471552 L275.2618,138.539451 C275.284433,138.830446 275.326465,139.121441 275.326465,139.409202 C275.329912,139.552483 275.316894,139.695685 275.287666,139.835995 C275.179999,140.217326 274.99755,140.573431 274.750942,140.883577 L274.750942,140.883577 L274.692743,140.967642 C274.657177,141.019374 274.621611,141.067873 274.589278,141.119606 C274.556945,141.171338 274.531079,141.210138 274.505213,141.255403 C274.479347,141.300669 274.453481,141.329769 274.430848,141.371801 C274.39963,141.425078 274.37156,141.480138 274.346782,141.536698 C274.346782,141.569031 274.311216,141.598131 274.298283,141.630464 C274.257827,141.717885 274.225362,141.808787 274.201285,141.902059 C274.125564,142.182985 274.118909,142.478056 274.181885,142.76211 C274.269063,143.124822 274.418972,143.469504 274.624844,143.780593 C274.705676,143.913157 274.792975,144.042488 274.883506,144.171819 L275.109836,144.478981 C275.067574,144.778959 275.044893,145.081372 275.041937,145.384298 C275.042255,147.435676 275.983756,149.3735 277.596226,150.641606 C277.724322,152.007048 277.710236,153.382104 277.554193,154.744635 C277.525094,155.029163 277.489528,155.316925 277.450728,155.601453 C277.411929,155.885982 277.38283,156.073512 277.34403,156.309541 C276.870899,156.377289 276.38868,156.340875 275.931088,156.202843 C275.720004,156.108686 275.50416,156.025586 275.284433,155.95388 C274.343549,155.717851 273.383266,156.655502 272.452082,156.370973 C272.452082,156.416239 272.426216,156.458272 272.41005,156.500304 C272.215674,156.379501 271.992215,156.313581 271.763394,156.309541 C271.210504,156.283675 270.761078,155.882748 270.360152,155.504455 L269.128273,154.343708 C269.047965,154.272639 268.976336,154.192328 268.914877,154.104446 C268.848662,153.978714 268.798685,153.84508 268.766146,153.706753 C268.559217,153.037465 268.058059,152.503974 267.573067,151.996349 C267.481156,151.880584 267.359261,151.792238 267.22064,151.740921 C267.167054,151.732857 267.112563,151.732857 267.058976,151.740921 C267.02599,151.695745 266.990361,151.65256 266.952278,151.611589 C266.868598,151.515529 266.778968,151.424818 266.683916,151.339994 C266.09546,150.796804 266.037261,150.331212 265.526403,149.723356 C265.080836,149.143636 264.67675,148.533185 264.317157,147.896554 C264.275125,147.55706 264.216926,147.207866 264.145794,146.855439 C263.982786,146.04859 263.745754,145.258484 263.437706,144.495147 L262.791051,143.062805 L262.716685,143.137171 C262.24786,142.438783 261.746702,142.057256 261.297277,142.147788 C260.543923,142.302985 260.172096,143.764426 260.291728,145.675293 L260.55039,147.615259 C260.55039,147.663758 260.573023,147.712257 260.585956,147.760757 C260.539418,147.990659 260.515593,148.22458 260.514824,148.459144 C260.514824,148.73074 260.767019,148.931203 260.899584,149.173699 C261.111771,149.502188 261.224087,149.885187 261.222911,150.276246 C261.206745,150.415277 261.164712,150.547841 261.158246,150.683639 C261.17585,150.987409 261.281451,151.279495 261.462174,151.524291 L263.078812,154.240244 L263.40214,154.8093 L263.42154,154.835167 C263.523578,155.03373 263.672246,155.204587 263.854799,155.333091 C263.918148,156.013156 264.098638,156.677141 264.388289,157.29569 C264.443255,157.418555 264.504687,157.534953 264.569353,157.651351 C265.004052,158.365832 265.515815,159.030473 266.09546,159.63335 L266.86498,160.496635 C267.6248,161.343753 268.38462,162.194105 269.209105,162.976558 C269.504233,163.290505 269.860827,163.540341 270.256687,163.710512 C270.651368,163.868303 271.100303,163.802937 271.4336,163.539148 L271.4336,164.741927 C271.678044,164.756972 271.895215,164.903098 272.001237,165.123865 C272.10726,165.344633 272.085536,165.605486 271.944458,165.805675 C271.26547,167.548412 270.580015,169.307314 269.551833,170.868987 C270.277584,171.29857 270.950398,171.811863 271.556464,172.398327 C271.949759,172.834177 272.299537,173.307405 272.600813,173.811269 C272.629912,174.050531 272.652545,174.286561 272.665478,174.52259 C272.904741,178.376656 271.4142,182.201623 270.078857,185.874625 C269.694097,186.91574 269.273771,188.005355 269.306104,189.088503 C269.052706,189.244716 268.810683,189.41867 268.58185,189.60906 C268.846978,190.300981 268.743514,190.918537 268.714414,191.658958 C268.704784,192.102843 268.613826,192.541198 268.446052,192.952269 C268.30548,193.237197 268.15007,193.514562 267.98046,193.783221 C267.143041,195.260828 266.958745,197.016498 266.790614,198.704268 C266.690383,199.72275 267.084842,200.967562 266.622484,201.879346 C265.823864,203.444252 265.115777,205.112623 265.005845,206.852126 C265.002006,207.243539 264.952085,207.633137 264.857115,208.012873 C264.756883,208.3362 264.579053,208.611029 264.488521,208.92789 C264.395334,209.352417 264.37348,209.789496 264.423856,210.221201 C264.485384,211.77103 264.255056,213.318615 263.744867,214.783355 C263.340708,215.937634 262.894516,217.172746 263.211377,218.359359 C262.43133,219.178749 261.949603,220.236726 261.843701,221.363073 C261.835357,221.651233 261.800725,221.938029 261.740236,222.219892 C261.641428,222.508075 261.511319,222.784555 261.352242,223.044377 C260.701358,224.229744 260.396627,225.574145 260.472791,226.924309 C259.502808,228.240253 259.017816,229.863358 258.730055,231.476763 C258.442293,233.090169 258.316195,234.732673 257.947602,236.326679 C257.456144,238.434775 256.566993,240.565505 256.392396,242.725334 C255.344814,243.394622 254.892155,244.691166 254.691692,245.916578 C254.491229,247.14199 254.458896,248.428834 253.944805,249.560481 C253.679676,250.148938 253.29815,250.675962 253.045954,251.277351 C252.869088,251.756164 252.739147,252.251023 252.657961,252.754959 C252.502763,253.543879 252.366966,254.42333 252.557729,255.179917 C252.283451,255.470392 251.963428,255.713959 251.610379,255.900937 C251.662111,255.700474 251.704144,255.500011 251.73971,255.296315 C250.905525,256.052902 249.392351,255.787773 248.726296,256.696324 C248.310596,257.305215 248.453772,258.134206 249.049624,258.568391 C249.258027,258.695406 249.483357,258.792288 249.718912,258.856153 C251.33555,259.373477 252.997455,259.894035 254.659359,259.619206 C254.855845,259.598016 255.046066,259.537542 255.218716,259.441376 C255.434888,259.282215 255.612744,259.076741 255.739274,258.839986 C255.988236,258.445526 256.237198,258.051067 256.482927,257.656607 C257.078426,257.834354 257.684162,257.975801 258.296796,258.080166 C258.358228,258.59749 258.403494,259.114815 258.426127,259.632139 C258.749454,259.696805 259.182714,259.716204 259.334678,259.41551 C259.380769,259.301811 259.399594,259.178898 259.389643,259.056616 C259.389643,258.827053 259.421976,258.523125 259.441376,258.212731 L259.506041,258.212731 C260.492507,258.252544 261.474037,258.05402 262.367491,257.633974 C262.021531,254.769291 263.162878,251.969273 264.15226,249.259787 C265.196609,246.408036 266.092226,243.504554 266.994311,240.601071 C267.640966,238.55764 268.35552,236.578874 268.989243,234.53221 C269.786784,231.945589 270.587559,229.358967 271.391567,226.772345 C271.740761,225.634232 272.093188,224.509052 272.494115,223.377405 C273.338099,221.087496 274.339575,218.858753 275.491363,216.707154 C275.81469,216.096065 276.138018,215.491442 276.403147,214.85772 C276.726474,214.084967 276.956037,213.276647 277.214699,212.478028 C277.778355,210.83935 278.456871,209.242461 279.245197,207.699245 C279.26783,207.657212 279.283996,207.618413 279.306629,207.579613 C279.568525,208.649828 279.83042,209.736209 280.005017,210.81289 C280.241332,212.133072 280.2599,213.483039 280.059983,214.809221 C279.904786,215.711305 279.610557,216.603689 279.646123,217.518707 C279.694623,218.782918 280.370377,219.930731 280.703405,221.149677 C280.918084,222.061873 281.039417,222.993541 281.065532,223.930295 C281.156064,225.38527 281.944983,227.018074 281.38886,228.366351 C279.659057,232.63751 280.496475,237.461559 279.510326,241.946114 C279.002701,244.248207 277.447495,246.41127 277.57036,248.765095 C277.65658,250.435622 277.803156,252.101837 278.010085,253.763741 C278.059908,254.288103 278.196487,254.800546 278.414245,255.280148 C278.54325,255.532488 278.691333,255.77461 278.857204,256.004402 C278.71494,256.059368 278.595308,256.204866 278.491844,256.512027 C278.226715,257.320346 278.491844,258.322662 279.209631,258.775321 C279.502092,258.931726 279.817466,259.040853 280.144048,259.098648 C280.583658,259.223614 281.038532,259.28673 281.495558,259.286178 C281.63775,259.278511 281.77926,259.261227 281.919117,259.234446 C282.41887,259.444448 282.92936,259.627922 283.448457,259.784103 C283.448457,259.916667 283.474323,260.049232 283.49049,260.181796 C283.492263,260.321897 283.553365,260.454675 283.65862,260.547156 C283.739332,260.584818 283.828577,260.600436 283.917282,260.592422 L285.672952,260.592422 L285.672952,260.152697 C286.079246,260.195053 286.48449,260.063496 286.788432,259.79057 C286.943942,259.592644 287.054295,259.36311 287.11176,259.118048 C287.590285,257.494943 288.065577,255.87076 288.537635,254.2455 C289.103654,252.449024 289.339183,250.56479 289.23279,248.684263 C288.608767,242.725334 289.979677,236.747005 289.533484,230.771909 C289.264958,227.180567 289.449629,223.569705 290.083141,220.024496 C290.228639,219.222644 290.406469,218.407858 290.471135,217.609239 C290.613399,216.102532 290.438802,214.579658 290.5455,213.082651 C290.581066,212.55886 290.652198,212.038302 290.716864,211.517745 C291.159849,208.286826 291.392058,205.030499 291.412018,201.769415 C291.402116,200.68888 291.335202,199.60962 291.211555,198.536138 C291.548643,198.450294 291.854622,198.270966 292.09424,198.018814 C292.382001,197.643753 292.307636,197.116729 292.304403,196.638204 C292.304403,195.493624 292.786161,194.41371 293.174154,193.333795 C293.672097,191.844273 294.080224,190.326216 294.396333,188.787808 C294.730391,187.548073 294.912788,186.272383 294.939523,184.988707 C294.939523,184.859376 294.933057,184.730045 294.920124,184.600714 C295.041969,184.516263 295.143563,184.405835 295.217585,184.277386 C295.301983,184.087935 295.354425,183.885816 295.372782,183.67923 C295.48918,182.854745 295.608812,182.027026 295.72521,181.199307 C295.81143,180.606539 295.896573,180.01485 295.980639,179.424238 L297.008821,172.249596 C297.096119,171.625574 297.186651,171.004785 297.273949,170.383995 L297.542311,168.528094 C297.571411,168.308232 297.603744,168.088369 297.626377,167.881439 C298.415296,166.562262 297.661943,164.803359 297.577877,163.303119 Z M288.999994,190.165184 C288.618467,189.259866 288.262806,188.331916 288.353338,187.355466 L288.317772,187.355466 C288.402855,187.055004 288.388105,186.735042 288.27574,186.443682 C288.175508,186.207653 288.000911,186.00719 287.894213,185.77116 C287.779564,185.483063 287.720328,185.175914 287.719616,184.865843 C287.639318,182.899346 287.79454,180.930304 288.181975,179.000679 C288.224007,178.774349 288.269273,178.544786 288.311306,178.318457 C288.446927,178.240104 288.570982,178.143254 288.679899,178.030695 C288.849973,177.836827 288.990517,177.61893 289.096992,177.38404 C289.462352,176.650086 289.79538,175.903199 290.102541,175.143379 C290.202773,174.89765 290.34827,174.613122 290.597232,174.551689 C290.5455,176.443156 290.739497,178.373423 289.969977,180.080593 C289.823792,180.355885 289.715053,180.649478 289.646649,180.953578 C289.575517,181.435336 289.77598,181.923561 289.704848,182.402086 C289.669282,182.651048 289.562584,182.880611 289.520551,183.12634 C289.45558,183.371922 289.527141,183.63349 289.708081,183.811795 C289.750914,183.841818 289.797703,183.865756 289.847112,183.882927 C289.827713,184.012258 289.811546,184.144822 289.798613,184.27092 C289.772747,184.536049 289.759814,184.785011 289.743647,184.940208 C289.669247,185.731129 289.6401,186.525654 289.656349,187.3199 C289.656349,188.176718 289.688682,189.033537 289.675749,189.906522 C289.687709,190.157142 289.645814,190.407414 289.552884,190.640476 C289.488791,190.760698 289.405827,190.869861 289.307155,190.963803 C289.21339,190.672808 289.109925,190.417379 288.999994,190.165184 Z" id="Shape" fill="url(#linearGradient-1)"></path>
                            <ellipse id="Oval" fill="#FBBEBE" transform="translate(262.440735, 147.590887) rotate(-11.580000) translate(-262.440735, -147.590887) " cx="262.440735" cy="147.590887" rx="1.8235682" ry="5.16354329"></ellipse>
                            <path d="M278.543576,256.573459 C278.278447,257.375312 278.543576,258.377628 279.261363,258.81412 C279.552153,258.969111 279.865173,259.078177 280.189314,259.137448 C280.627967,259.261353 281.081776,259.323385 281.53759,259.321745 C282.096947,259.295878 282.633671,259.076015 283.193028,258.998417 C283.257576,258.982174 283.3259,258.991438 283.383792,259.024283 C283.440521,259.08508 283.466674,259.168293 283.454924,259.250612 C283.460929,259.56855 283.484677,259.885905 283.526056,260.201196 C283.527004,260.341482 283.588253,260.474581 283.694186,260.566556 C283.774898,260.604218 283.864143,260.619836 283.952848,260.611822 L285.705284,260.611822 C285.74498,259.072252 285.576401,257.534379 285.204126,256.039968 C285.179836,255.925586 285.13609,255.816222 285.074795,255.716641 C284.926104,255.553814 284.730747,255.440891 284.515438,255.393313 C284.08697,255.215072 283.624197,255.134446 283.160695,255.157284 C282.594872,255.231649 282.122814,255.597009 281.641055,255.900937 C281.159297,256.204866 280.502942,256.473228 279.917719,256.31803 C279.332496,256.162833 278.844271,255.674608 278.543576,256.573459 Z" id="Shape" fill="#3F3D56"></path>
                            <path d="M252.813158,255.154051 C252.320476,255.681595 251.716251,256.092512 251.044556,256.35683 L250.747094,256.499094 C250.705937,256.514692 250.670826,256.543008 250.646862,256.579926 C250.635358,256.63082 250.647218,256.684192 250.679195,256.725423 C251.187766,257.512074 252.157286,257.864747 253.05242,257.588708 C253.244937,257.540513 253.423316,257.447446 253.572978,257.317113 C253.819445,257.024768 253.960629,256.658143 253.973904,256.275998 C254.07178,255.88181 254.054953,255.467861 253.925405,255.082918 C253.47598,254.070903 253.311083,254.530028 252.813158,255.154051 Z" id="Shape" fill="#FBBEBE"></path>
                            <path d="M259.531908,259.137448 C259.541858,259.25973 259.523033,259.382643 259.476942,259.496341 C259.324978,259.793803 258.901419,259.777637 258.571624,259.712971 C258.521652,258.615959 258.388708,257.524303 258.173931,256.447361 C257.546675,256.418262 257.094017,257.013185 256.757756,257.546675 L255.891238,258.920818 C255.765911,259.157426 255.589135,259.362928 255.373913,259.522208 C255.200659,259.616968 255.010724,259.677352 254.814556,259.700038 C253.159119,259.974866 251.487514,259.454309 249.890276,258.936985 C249.654991,258.87385 249.429707,258.778077 249.220987,258.652456 C248.628643,258.217538 248.485863,257.392268 248.89766,256.783622 C249.566948,255.878305 251.070422,256.136967 251.904607,255.386846 C251.81755,255.914642 251.674477,256.431655 251.477815,256.92912 C252.593295,256.760989 253.343415,255.739274 254.242266,255.057052 C254.4681,254.865477 254.740043,254.736192 255.031186,254.681992 C255.24909,254.663702 255.468488,254.686739 255.677841,254.749891 C256.714313,255.010886 257.683926,255.48798 258.523125,256.1499 C258.862619,256.418262 259.392877,256.796555 259.541607,257.210415 C259.700038,257.705106 259.531908,258.610424 259.531908,259.137448 Z" id="Shape" fill="#3F3D56"></path>
                            <circle id="Oval" fill="#FBBEBE" cx="281.77362" cy="145.778758" r="6.67995018"></circle>
                            <path d="M294.933057,185.21827 C294.906098,186.495331 294.724796,187.764444 294.3931,188.997971 C294.076842,190.529976 293.668712,192.041568 293.170921,193.524559 C292.786161,194.60124 292.304403,195.681154 292.307636,196.822501 C292.307636,197.297793 292.385235,197.824817 292.09424,198.199877 C291.8351,198.463159 291.508448,198.649977 291.150123,198.739834 C290.78752,198.836029 290.492252,199.09889 290.354737,199.447922 C290.051173,198.994361 289.823989,198.494119 289.682215,197.967081 C289.102381,196.190934 288.563501,194.405088 288.065577,192.609541 C287.973089,192.399716 287.990024,192.157779 288.110842,191.962886 C288.192897,191.891551 288.288601,191.837648 288.392138,191.804455 C288.723527,191.669321 289.027147,191.474215 289.287755,191.228932 C289.410065,191.120378 289.510958,190.989874 289.585217,190.844172 C289.679182,190.612465 289.722188,190.36325 289.711315,190.113451 C289.711315,189.256633 289.711315,188.403048 289.688682,187.546229 C289.675127,186.755167 289.70535,185.963961 289.779213,185.176237 C289.779213,185.02104 289.808313,184.772078 289.834179,184.506949 C289.882678,183.999325 289.979677,183.410868 290.254505,183.213638 C290.665131,182.93881 291.893776,183.307403 292.359368,183.372069 C293.161221,183.482 293.976007,183.611331 294.75846,183.763295 C294.87213,184.24001 294.930712,184.728196 294.933057,185.21827 L294.933057,185.21827 Z" id="Shape" fill="#3F3D56"></path>
                            <path d="M267.961061,153.257327 C267.702398,153.774652 267.081609,154.023614 266.603084,154.350175 L264.963813,155.475355 C264.742502,155.674782 264.44937,155.775218 264.15226,155.753417 C263.882764,155.653898 263.664786,155.449908 263.547637,155.187594 C263.548626,155.179 263.548626,155.170321 263.547637,155.161728 L263.208143,154.592671 L261.591505,151.883185 C261.411775,151.640553 261.307222,151.350501 261.29081,151.048999 C261.29081,150.909968 261.339309,150.780637 261.352242,150.641606 C261.356616,150.251109 261.244008,149.868241 261.028915,149.542292 C260.899584,149.299796 260.640921,149.099333 260.647388,148.827738 C260.635007,148.470856 260.696655,148.115275 260.828452,147.78339 C260.998076,147.476369 261.241412,147.216366 261.536539,147.026803 C261.688503,146.916871 261.843701,146.813406 262.005364,146.703475 C262.091195,146.644863 262.186293,146.60114 262.286659,146.574144 C262.555021,146.519178 262.82015,146.742274 263.091745,146.751974 C264.258958,147.534427 264.708384,149.015268 265.626635,150.082249 C266.143959,150.690106 266.195691,151.155697 266.780914,151.698888 C266.874679,151.782953 266.965211,151.873485 267.05251,151.96725 C267.168209,152.093444 267.266113,152.234862 267.343505,152.387576 C267.450203,152.665638 268.093625,152.992199 267.961061,153.257327 Z" id="Shape" fill="#3F3D56"></path>
                            <path d="M279.426261,152.461941 C279.908019,153.480424 280.283079,154.599137 280.144048,155.717851 C280.115585,156.020909 280.019457,156.313713 279.862753,156.57467 C279.397161,157.289224 278.420711,157.418555 277.57036,157.460587 C277.20845,157.430181 276.849533,157.546712 276.57451,157.783915 C276.340856,158.12351 276.366109,158.578073 276.635943,158.889696 C276.90921,159.181348 277.248516,159.403117 277.625325,159.536351 C278.970369,160.128041 280.42211,160.616266 281.883551,160.480468 C282.562539,160.415803 283.222128,160.218573 283.897883,160.118341 C284.634562,160.038558 285.374926,159.997547 286.115911,159.995477 C286.995362,159.963144 287.87158,159.875845 288.747798,159.788547 L291.069291,159.558984 C291.196174,159.560805 291.3193,159.515927 291.415252,159.432886 C291.586615,159.232423 291.366752,158.938195 291.153356,158.786231 C289.921478,157.874447 288.353338,157.247191 287.651717,155.876282 C287.328389,155.229626 287.228158,154.460106 286.988895,153.761719 C286.749633,153.063331 286.368106,152.432842 286.219375,151.721521 C286.140072,151.097512 286.104419,150.468728 286.112677,149.839754 C286.120806,149.20552 285.889955,148.591455 285.466022,148.11965 C285.003663,147.689625 284.334375,147.579693 283.707119,147.553827 C282.161613,147.485928 280.515875,147.854522 279.419794,148.944136 C279.125566,149.238364 278.87337,149.590791 278.569442,149.85592 C278.265514,150.121049 277.851655,150.198647 278.052118,150.547841 C278.252581,150.897035 278.647041,151.113665 278.860437,151.420826 C279.076437,151.752262 279.265646,152.100405 279.426261,152.461941 L279.426261,152.461941 Z" id="Shape" fill="#FBBEBE"></path>
                            <path d="M292.595398,161.867544 C292.187691,164.357239 291.524603,166.798313 290.616632,169.152117 C290.160188,170.215028 289.771418,171.305742 289.452652,172.417727 C289.20369,173.420042 289.252189,174.49349 289.022627,175.49904 C288.738098,176.750318 288.45357,178.004829 288.224007,179.265807 C287.838869,181.191364 287.684739,183.155979 287.764882,185.118038 C287.765613,185.427059 287.824855,185.733146 287.939479,186.020123 C288.046177,186.252919 288.217541,186.453382 288.317772,186.692644 C288.46935,187.117499 288.43653,187.586362 288.22724,187.985955 C288.061329,188.356073 287.836379,188.696773 287.561185,188.994738 C284.547771,189.893589 281.324194,189.59936 278.184682,189.790124 C275.290899,189.964721 272.364784,190.559644 269.513033,190.064952 C269.189706,188.771641 269.729663,187.416898 270.192022,186.15592 C271.533832,182.492618 273.017906,178.677351 272.778643,174.839451 C272.753564,174.391797 272.702826,173.94595 272.626679,173.504108 C272.157854,170.784922 272.668712,167.968738 273.486731,165.333617 C273.994355,163.691112 273.971722,161.941909 273.855324,160.231506 C273.797712,159.676108 273.790137,159.116656 273.832691,158.559902 C273.879465,157.991385 274.09067,157.448767 274.440548,156.998229 C274.440548,156.975596 274.469647,156.952963 274.485813,156.93033 C274.50198,156.907697 274.628078,156.91093 274.728309,156.93033 L274.728309,156.93033 C274.779968,156.952251 274.838314,156.952251 274.889973,156.93033 L274.925539,156.907697 C274.953601,156.887717 274.991242,156.887717 275.019304,156.907697 C275.093669,156.952963 275.135702,157.10816 275.297366,157.13726 C275.536242,157.173398 275.776963,157.196067 276.018387,157.205159 C276.308766,157.213786 276.597258,157.254999 276.878438,157.328023 L276.917238,157.328023 C277.33771,157.398948 277.769295,157.362241 278.171749,157.221325 C278.439583,157.154418 278.698069,157.054499 278.941269,156.923863 C279.012401,156.846265 279.458593,156.775133 279.549125,156.720167 C279.843353,156.542337 279.778688,155.708151 279.84012,155.365424 C279.874087,155.021691 279.955701,154.684354 280.082616,154.363108 C280.381663,153.881678 280.900137,153.580042 281.466458,153.558022 C282.023193,153.544762 282.579636,153.594657 283.125129,153.706753 C284.331142,153.878117 285.566254,153.849017 286.749633,154.127079 C287.344556,154.26611 287.994444,154.476273 288.540868,154.204678 C288.689599,154.240244 288.712232,154.369575 288.712232,154.528005 C288.698298,154.678518 288.66794,154.827054 288.6217,154.970964 C288.414771,155.863349 289.116392,156.684601 289.763047,157.331256 C290.036259,157.636086 290.358672,157.892923 290.716864,158.091076 C291.040191,158.239807 291.363519,158.301239 291.686847,158.462903 C291.948712,158.602636 292.171119,158.806138 292.333502,159.054593 C292.519888,159.339471 292.645378,159.659801 292.702096,159.995477 C292.771505,160.621074 292.735438,161.253884 292.595398,161.867544 L292.595398,161.867544 Z" id="Shape" fill="#3F3D56"></path>
                            <path d="M292.595398,161.867544 C292.187691,164.357239 291.524603,166.798313 290.616632,169.152117 C290.160188,170.215028 289.771418,171.305742 289.452652,172.417727 C289.20369,173.420042 289.252189,174.49349 289.022627,175.49904 C288.738098,176.750318 288.45357,178.004829 288.224007,179.265807 C288.156108,179.304607 288.084976,179.340173 288.013844,179.372505 C287.611576,179.564608 287.18526,179.701638 286.7464,179.779898 C285.958156,179.875268 285.159944,179.849097 284.379641,179.7023 L279.765755,179.084744 C277.922787,178.835781 275.960188,178.535087 274.592512,177.287042 C273.832691,176.601587 273.334767,175.696269 272.788343,174.823285 C272.763264,174.375631 272.712526,173.929784 272.636379,173.487941 C272.167554,170.768755 272.678412,167.952571 273.496431,165.31745 C274.004055,163.674946 273.981422,161.925743 273.865024,160.215339 C273.807412,159.659942 273.799837,159.100489 273.842391,158.543735 C273.889165,157.975219 274.10037,157.432601 274.450247,156.982062 C274.544685,156.95437 274.640803,156.93277 274.738009,156.917397 L274.738009,156.917397 C274.803075,156.904225 274.868977,156.895582 274.935239,156.891531 L275.029004,156.891531 C275.137917,156.89193 275.246416,156.90495 275.352332,156.93033 C275.572614,157.000465 275.788545,157.083599 275.998987,157.179292 L276.037786,157.179292 C276.314992,157.270602 276.606154,157.312197 276.897838,157.302157 C277.324631,157.302157 277.764356,157.234258 278.191149,157.205159 C278.718366,157.12283 279.257964,157.219593 279.723722,157.479987 C280.024314,157.721565 280.309406,157.981819 280.577307,158.259207 C280.900829,158.5133 281.264806,158.711137 281.653988,158.84443 C284.437168,159.906778 287.524932,159.841821 290.260972,158.663366 C290.52379,158.513939 290.821979,158.437996 291.124257,158.443504 C291.347537,158.487212 291.559078,158.577557 291.745046,158.708632 C291.939042,158.821797 292.129806,158.931728 292.327036,159.03196 C292.513421,159.316838 292.638911,159.637168 292.695629,159.972844 C292.769726,160.60553 292.735834,161.246206 292.595398,161.867544 L292.595398,161.867544 Z" id="Shape" fill="#000000" opacity="0.1"></path>
                            <path d="M295.411582,159.727115 C294.124082,159.333858 292.887024,158.791289 291.725646,158.110476 C291.539168,157.980319 291.327828,157.890059 291.104857,157.845347 C290.801778,157.841745 290.503036,157.917545 290.238339,158.06521 C287.503385,159.243472 284.416691,159.308431 281.634589,158.246274 C281.245966,158.111709 280.882193,157.913982 280.557908,157.661051 C280.289174,157.38452 280.004136,157.124315 279.704322,156.881831 C278.640574,156.193143 277.169433,157.001462 275.979587,156.558503 C275.768544,156.464248 275.552695,156.381146 275.332932,156.309541 C274.392048,156.073512 273.434998,157.011162 272.510281,156.726634 C272.166234,157.661759 271.911817,158.62746 271.750461,159.610717 C271.618959,160.739885 271.548802,161.875356 271.540298,163.012124 C271.540298,163.694345 271.507965,164.376567 271.540298,165.058788 C271.770692,165.096486 271.974745,165.229003 272.102888,165.424149 C272.188815,165.652184 272.169889,165.906498 272.051156,166.119303 C271.375401,167.855573 270.689946,169.611242 269.664997,171.166448 C270.387354,171.596868 271.057814,172.108935 271.663163,172.692555 C272.79481,173.888868 273.350933,175.566938 274.573112,176.672719 C275.950488,177.917531 277.913087,178.221459 279.746355,178.467188 L284.360241,179.084744 C285.141648,179.230992 285.940678,179.258244 286.730233,179.165576 C287.168066,179.085702 287.593243,178.947602 287.994444,178.754949 C288.256533,178.645362 288.495649,178.487414 288.699299,178.289358 C288.869794,178.095807 289.01038,177.877844 289.116392,177.642702 C289.481752,176.911982 289.814779,176.165095 290.121941,175.408508 C290.228639,175.140146 290.390303,174.826518 290.681298,174.803885 C292.394934,173.258379 294.011573,171.674073 295.72521,170.128567 C296.413863,169.557847 297.031525,168.906534 297.564944,168.1886 C298.415296,166.930856 297.642543,165.14932 297.564944,163.62968 C297.555559,163.240993 297.506811,162.854258 297.419447,162.4754 C297.141385,161.372853 296.488263,160.053676 295.411582,159.727115 Z" id="Shape" fill="#6C63FF"></path>
                            <path d="M267.961061,153.257327 C267.702398,153.774652 267.081609,154.023614 266.603084,154.350175 L264.963813,155.475355 C264.742502,155.674782 264.44937,155.775218 264.15226,155.753417 C263.882764,155.653898 263.664786,155.449908 263.547637,155.187594 L263.547637,154.954798 C263.53518,154.693079 263.570234,154.431268 263.651102,154.182045 C263.811608,153.816418 264.060489,153.496428 264.375356,153.250861 C264.984064,152.674447 265.708073,152.23365 266.499619,151.95755 C266.62301,151.909552 266.75716,151.896137 266.887613,151.918751 C266.937882,151.931875 266.985855,151.952591 267.029877,151.980183 C267.145576,152.106377 267.24348,152.247795 267.320872,152.400509 C267.450203,152.665638 268.093625,152.992199 267.961061,153.257327 Z" id="Shape" fill="#000000" opacity="0.1"></path>
                            <path d="M271.821593,156.665201 C271.271936,156.639335 270.822511,156.241642 270.421584,155.863349 L269.196172,154.725235 C269.114167,154.655887 269.042331,154.575343 268.982776,154.485973 C268.91656,154.36024 268.866583,154.226607 268.834045,154.08828 C268.574239,153.435161 268.167032,152.850907 267.644199,152.381109 C267.553058,152.265281 267.430814,152.177804 267.291772,152.128914 C267.160315,152.104659 267.024678,152.118111 266.900546,152.167713 C266.108788,152.443366 265.38469,152.884217 264.776283,153.461024 C264.461608,153.706783 264.212768,154.02672 264.052029,154.392208 C263.970738,154.641335 263.935673,154.903224 263.948564,155.164961 C263.956156,156.019259 264.148056,156.861853 264.511154,157.635184 C264.56612,157.754816 264.627552,157.874447 264.692218,157.990845 C265.123666,158.703857 265.633369,159.366472 266.211858,159.966377 L266.981378,160.826429 C267.737964,161.673547 268.494551,162.520666 269.315804,163.299886 C269.610191,163.613881 269.967034,163.86279 270.363385,164.030606 C270.769021,164.196145 271.233144,164.121287 271.566164,163.83661 C271.721052,163.657313 271.837679,163.448265 271.908892,163.222287 C272.406816,161.928976 272.878875,160.583933 272.907974,159.190391 C272.914939,158.632306 272.891193,158.074262 272.836842,157.518786 C272.788343,156.93033 272.37125,156.700767 271.821593,156.665201 Z" id="Shape" fill="#6C63FF"></path>
                            <path d="M291.415252,201.931079 C291.396486,205.183506 291.165354,208.431237 290.72333,211.653542 C290.658665,212.1741 290.587533,212.694658 290.551967,213.215215 C290.445268,214.725156 290.619865,216.241562 290.477601,217.741803 C290.403236,218.553355 290.235105,219.358441 290.092841,220.150594 C289.460954,223.686188 289.276286,227.287222 289.543184,230.868907 C289.989376,236.827837 288.6217,242.789999 289.242489,248.732762 C289.31773,249.888368 289.253682,251.048829 289.051726,252.189136 C288.936019,252.896695 288.768516,253.594804 288.550568,254.277832 C288.07851,255.896626 287.604296,257.513265 287.127926,259.127748 C287.071886,259.373311 286.961389,259.603144 286.804599,259.800269 C286.470927,260.088826 286.029096,260.219608 285.59212,260.159163 C283.726519,260.100964 281.97085,259.295878 280.276612,258.510192 C280.081785,258.433345 279.901398,258.32402 279.743122,258.186864 C279.390695,257.821504 279.419794,257.245981 279.264597,256.764222 C279.109399,256.282464 278.689073,255.829805 278.449811,255.335114 C278.253088,254.867171 278.134048,254.37026 278.097384,253.863973 C277.881832,252.208535 277.735257,250.546631 277.657658,248.87826 C277.534794,246.530901 279.086767,244.371072 279.597624,242.088378 C280.567607,237.60059 279.746355,232.789474 281.469692,228.531248 C282.012882,227.186205 281.223963,225.556633 281.146364,224.108125 C281.118433,223.173649 280.99712,222.244307 280.784237,221.333974 C280.460909,220.118261 279.778688,218.973681 279.730189,217.712703 C279.694623,216.800919 279.988851,215.911768 280.140815,215.012917 C280.342425,213.690099 280.323852,212.343043 280.085849,211.026287 C279.914485,209.939906 279.65259,208.853525 279.390695,207.79301 L279.332496,207.912641 C278.544713,209.452349 277.867255,211.046051 277.305231,212.681724 C277.046569,213.473877 276.820239,214.282197 276.496912,215.051717 C276.231783,215.698372 275.905222,216.290062 275.585128,216.897918 C274.437028,219.041516 273.437742,221.26155 272.594346,223.542302 C272.19342,224.661016 271.840993,225.805596 271.491799,226.927543 L269.095941,234.687407 C268.449285,236.727605 267.741198,238.699904 267.107475,240.736869 C266.211858,243.646818 265.31624,246.530901 264.275125,249.376185 C263.305142,252.075971 262.150862,254.872755 262.496822,257.724506 C261.605327,258.143532 260.626138,258.342031 259.641839,258.303262 C257.975416,258.155856 256.340562,257.759132 254.791923,257.126349 C254.174368,256.896787 253.534179,256.638125 253.117086,256.1305 C252.399299,255.254282 252.577129,253.970671 252.793758,252.855191 C252.875366,252.352397 253.005299,251.858651 253.181752,251.380816 C253.427481,250.785893 253.828407,250.258869 254.080603,249.670413 C254.588227,248.541999 254.62056,247.264855 254.821023,246.039443 C255.021486,244.814031 255.467678,243.52072 256.51526,242.854665 C256.69309,240.701303 257.579008,238.57704 258.067233,236.472176 C258.435827,234.878171 258.558691,233.238899 258.849686,231.622261 C259.140681,230.005622 259.609506,228.388984 260.585956,227.079507 C260.508915,225.729269 260.8137,224.384629 261.465407,223.199574 C261.622848,222.939334 261.751843,222.662916 261.850167,222.375089 C261.910462,222.094286 261.945093,221.80858 261.953632,221.521504 C262.060541,220.397968 262.54094,219.342684 263.318075,218.524256 C262.994747,217.34411 263.444173,216.112231 263.848332,214.967651 C264.357365,213.507099 264.587683,211.963967 264.52732,210.418431 C264.477187,209.98686 264.497938,209.549996 264.588753,209.12512 C264.679284,208.801792 264.857115,208.526964 264.96058,208.216569 C265.05281,207.836399 265.101621,207.446995 265.106077,207.055823 C265.232175,205.30662 265.940262,203.657649 266.722715,202.095976 C267.188307,201.184192 266.793848,199.945847 266.890846,198.930598 C267.058976,197.242827 267.243273,195.496858 268.080692,194.025716 C268.235889,193.747655 268.404019,193.482526 268.54305,193.194764 C268.711533,192.783911 268.802519,192.345422 268.811412,191.901454 C268.840512,191.161033 268.943977,190.54671 268.678848,189.858023 C270.408651,188.419214 272.768943,188.015055 275.019304,187.918056 C277.269665,187.821058 279.545892,188.024754 281.747753,187.546229 C282.394409,187.400732 283.041064,187.200269 283.723286,187.103271 C285.272025,186.876941 286.843398,187.229368 288.372738,187.578562 C288.26604,188.548545 288.6217,189.479729 289.019393,190.381813 C290.572072,194.035825 291.38633,197.960969 291.415252,201.931079 L291.415252,201.931079 Z" id="Shape" fill="#33313F"></path>
                            <path d="M283.800884,202.671499 L280.085849,211.026287 C279.914485,209.939906 279.65259,208.853525 279.390695,207.79301 L279.332496,207.912641 L279.332496,207.738044 L281.356527,203.285822 L283.800884,202.671499 Z" id="Shape" fill="#000000" opacity="0.1"></path>
                            <path d="M294.933057,185.21827 C294.718737,185.378622 294.462856,185.474016 294.19587,185.493099 C293.786326,185.507638 293.377322,185.451864 292.986624,185.328202 L290.076675,184.600714 C289.985431,184.578252 289.896625,184.546845 289.811546,184.506949 C289.860045,183.999325 289.957044,183.410868 290.231872,183.213638 C290.642498,182.93881 291.871144,183.307403 292.336735,183.372069 C293.138588,183.482 293.953374,183.611331 294.735827,183.763295 C294.857125,184.239123 294.923303,184.727322 294.933057,185.21827 Z" id="Shape" fill="#000000" opacity="0.1"></path>
                            <path d="M297.393581,165.980272 C297.455013,166.248634 297.542311,166.513763 297.594044,166.785358 C297.68103,167.451714 297.658092,168.127828 297.526145,168.786757 L297.261016,170.636191 L296.995888,172.495325 L295.970939,179.650567 L295.718743,181.422403 L295.363083,183.89586 C295.346284,184.101674 295.293767,184.30299 295.207885,184.490783 C294.992717,184.847785 294.61238,185.072585 294.19587,185.088939 C293.786406,185.101915 293.377663,185.046177 292.986624,184.924042 L290.076675,184.193321 C289.949132,184.170639 289.827886,184.121038 289.721014,184.047824 C289.540026,183.870889 289.468365,183.610188 289.533484,183.365602 C289.575517,183.119873 289.682215,182.890311 289.717781,182.644582 C289.788913,182.166057 289.58845,181.674599 289.659582,181.199307 C289.729337,180.896641 289.838018,180.60429 289.98291,180.329555 C290.952893,178.185893 290.390303,175.683336 290.720097,173.355377 C291.016907,171.523206 291.790804,169.801453 292.963991,168.363197 C293.687994,167.455371 294.519656,166.638909 295.440681,165.931773 C295.802808,165.650478 296.378332,165.071721 296.834224,164.96179 C297.419447,164.838925 297.296582,165.572879 297.393581,165.980272 Z" id="Shape" fill="#6C63FF"></path>
                            <path d="M275.371731,138.128825 C275.158335,138.807813 275.491363,139.5547 275.339399,140.246621 C275.174501,141.009674 274.456714,141.539932 274.253017,142.306218 C273.92969,143.473431 274.919073,144.537179 275.643327,145.507163 C278.326946,149.109033 277.974519,154.094746 277.056269,158.48877 C276.317433,162.014091 275.295642,165.474124 274.000822,168.835256 C273.596662,169.879604 273.15047,170.940119 272.355084,171.722572 C273.842391,171.29578 275.423464,170.865754 276.914004,171.279613 C278.802238,171.803404 280.43181,173.636672 282.34591,173.219579 C283.496956,172.96415 284.305275,171.942435 285.339924,171.376611 C287.27989,170.332263 289.61755,170.988618 291.780612,171.324879 C292.246713,171.434844 292.734459,171.410176 293.187087,171.253747 C293.533115,171.067737 293.826683,170.79752 294.040672,170.468061 C295.006005,169.229564 295.584145,167.733598 295.702577,166.167802 C295.806075,164.590611 295.228014,163.044797 294.115038,161.92251 C293.655912,161.489251 293.106255,161.140057 292.753828,160.629199 C292.41107,160.032569 292.227367,159.357875 292.220337,158.669833 C291.964909,155.113228 292.831427,151.482258 291.939042,148.042052 C291.615715,146.81664 291.088691,145.64296 290.946426,144.388449 C290.768596,142.826776 291.192155,141.155172 290.571366,139.726063 C290.083141,138.591183 289.00646,137.786097 287.845714,137.372238 C286.684967,136.958378 285.443389,136.84198 284.21151,136.725582 C282.439675,136.576852 276.112152,135.817032 275.371731,138.128825 Z" id="Shape" fill="#33313F"></path>
                            <g id="Group" opacity="0.1" transform="translate(272.241919, 137.090943)" fill="#000000">
                                <path d="M4.81434938,21.3978269 C4.07914963,24.9085711 3.06277951,28.3544983 1.77506905,31.7022805 C1.99816516,31.2593216 2.18569522,30.7937297 2.36352545,30.3313711 C3.65981574,26.9707383 4.6816421,23.5105855 5.41897217,19.9848848 C6.3404561,15.5876282 6.69288329,10.6083817 4.00926342,7.00327787 C3.36260803,6.14322621 2.53165585,5.21204244 2.56075534,4.20326004 C2.32175861,4.50836575 2.13593332,4.851596 2.01109826,5.218509 C1.68777057,6.38572198 2.67715331,7.44947009 3.40140735,8.41945318 C6.08502722,12.0180904 5.73260003,17.0038035 4.81434938,21.3978269 Z" id="Shape"></path>
                                <path d="M3.13627864,2.82911733 C3.39576859,2.50686565 3.58914506,2.13659365 3.70533538,1.739503 C3.75532336,1.25918651 3.74227965,0.774395055 3.66653606,0.297461479 C3.41746764,0.48490152 3.23047366,0.7428631 3.12981209,1.0378819 C2.93904875,1.61017192 3.15891158,2.2309611 3.13627864,2.82911733 Z" id="Shape"></path>
                                <path d="M22.4066093,31.9544761 C22.192524,32.2830237 21.8989129,32.5521672 21.5530241,32.7369291 C21.101032,32.8966069 20.6123446,32.9213221 20.1465487,32.8080612 C17.9834864,32.4847335 15.6199609,31.8186785 13.705861,32.8630269 C12.6679791,33.4256171 11.8628931,34.4473326 10.7086133,34.7059948 C8.79774658,35.1327873 7.168175,33.2995193 5.27994126,32.7660286 C3.9413646,32.3942018 2.53165585,32.7013631 1.18337936,33.0893563 C0.915473563,33.660688 0.553726644,34.1830899 0.113164693,34.6348627 C1.60047209,34.2080701 3.18154452,33.7780443 4.67208519,34.1919037 C6.56031893,34.7156946 8.18989051,36.5489626 10.1039905,36.1318699 C11.2550371,35.876441 12.0633563,34.8547255 13.0980049,34.2889021 C15.0379711,33.2445536 17.3756303,33.9009088 19.5386926,34.2371696 C20.0047936,34.3471345 20.4925399,34.3224668 20.9451681,34.1660375 C21.2911955,33.9800272 21.5847641,33.7098106 21.7987532,33.3803512 C22.3847091,32.6074383 22.837153,31.7418934 23.1373299,30.8195959 C22.9212593,31.2149067 22.6770567,31.5941772 22.4066093,31.9544761 L22.4066093,31.9544761 Z" id="Shape"></path>
                            </g>
                        </g>
                        <g id="Beta-tag" transform="translate(305.000000, 45.000000)">
                            <g>
                                <g id="My-book-Copy-3">
                                    <g id="Book">
                                        <rect id="Cover" stroke="#232A48" fill="#FFFFFF" x="1.0125" y="0" width="61.9875" height="24" rx="4"></rect>
                                        <g id="My-bindings" transform="translate(0.000000, 2.333333)" fill="#232A48">
                                            <rect id="Rectangle-4-Copy" x="0" y="17" width="2.3625" height="1"></rect>
                                            <rect id="Rectangle-4-Copy-2" x="0" y="11.3333333" width="2.3625" height="1"></rect>
                                            <rect id="Rectangle-4-Copy-3" x="0" y="5.66666667" width="2.3625" height="1"></rect>
                                            <rect id="Rectangle-4-Copy-4" x="0" y="0" width="2.3625" height="1"></rect>
                                        </g>
                                    </g>
                                </g>
                                <text id="BETA-Copy" font-family="AvenirNext-Heavy, Avenir Next" font-size="16" font-weight="600" fill="#FF5768">
                                    <tspan x="12" y="18">BETA</tspan>
                                </text>
                            </g>
                        </g>
                    </g>
                </g>
            </g>
        </g>
    </g>
</svg>