<?xml version="1.0" encoding="UTF-8"?>
<svg width="300px" height="207px" viewBox="0 0 300 207" version="1.1" xmlns="http://www.w3.org/2000/svg" xmlns:xlink="http://www.w3.org/1999/xlink">
    <!-- Generator: Sketch 43.2 (39069) - http://www.bohemiancoding.com/sketch -->
    <title>email blast</title>
    <desc>Created with Sketch.</desc>
    <defs>
        <linearGradient x1="50.0053057%" y1="99.9526347%" x2="50.0053057%" y2="-0.0118413262%" id="linearGradient-1">
            <stop stop-color="#808080" stop-opacity="0.25" offset="0%"></stop>
            <stop stop-color="#808080" stop-opacity="0.12" offset="54%"></stop>
            <stop stop-color="#808080" stop-opacity="0.1" offset="100%"></stop>
        </linearGradient>
        <linearGradient x1="37041%" y1="52973%" x2="37041%" y2="51461%" id="linearGradient-2">
            <stop stop-color="#808080" stop-opacity="0.25" offset="0%"></stop>
            <stop stop-color="#808080" stop-opacity="0.12" offset="54%"></stop>
            <stop stop-color="#808080" stop-opacity="0.1" offset="100%"></stop>
        </linearGradient>
        <linearGradient x1="47213%" y1="50775%" x2="47213%" y2="49263%" id="linearGradient-3">
            <stop stop-color="#808080" stop-opacity="0.25" offset="0%"></stop>
            <stop stop-color="#808080" stop-opacity="0.12" offset="54%"></stop>
            <stop stop-color="#808080" stop-opacity="0.1" offset="100%"></stop>
        </linearGradient>
        <linearGradient x1="64614%" y1="51773%" x2="64614%" y2="49463%" id="linearGradient-4">
            <stop stop-color="#808080" stop-opacity="0.25" offset="0%"></stop>
            <stop stop-color="#808080" stop-opacity="0.12" offset="54%"></stop>
            <stop stop-color="#808080" stop-opacity="0.1" offset="100%"></stop>
        </linearGradient>
        <linearGradient x1="55724%" y1="56318%" x2="55724%" y2="54806%" id="linearGradient-5">
            <stop stop-color="#808080" stop-opacity="0.25" offset="0%"></stop>
            <stop stop-color="#808080" stop-opacity="0.12" offset="54%"></stop>
            <stop stop-color="#808080" stop-opacity="0.1" offset="100%"></stop>
        </linearGradient>
        <linearGradient x1="44124%" y1="62584%" x2="44124%" y2="61073%" id="linearGradient-6">
            <stop stop-color="#808080" stop-opacity="0.25" offset="0%"></stop>
            <stop stop-color="#808080" stop-opacity="0.12" offset="54%"></stop>
            <stop stop-color="#808080" stop-opacity="0.1" offset="100%"></stop>
        </linearGradient>
        <linearGradient x1="66202%" y1="55999%" x2="66202%" y2="53688%" id="linearGradient-7">
            <stop stop-color="#808080" stop-opacity="0.25" offset="0%"></stop>
            <stop stop-color="#808080" stop-opacity="0.12" offset="54%"></stop>
            <stop stop-color="#808080" stop-opacity="0.1" offset="100%"></stop>
        </linearGradient>
        <linearGradient x1="71848%" y1="68772%" x2="71848%" y2="66462%" id="linearGradient-8">
            <stop stop-color="#808080" stop-opacity="0.25" offset="0%"></stop>
            <stop stop-color="#808080" stop-opacity="0.12" offset="54%"></stop>
            <stop stop-color="#808080" stop-opacity="0.1" offset="100%"></stop>
        </linearGradient>
        <linearGradient x1="96018%" y1="80218%" x2="96018%" y2="77908%" id="linearGradient-9">
            <stop stop-color="#808080" stop-opacity="0.25" offset="0%"></stop>
            <stop stop-color="#808080" stop-opacity="0.12" offset="54%"></stop>
            <stop stop-color="#808080" stop-opacity="0.1" offset="100%"></stop>
        </linearGradient>
        <linearGradient x1="57626%" y1="65026%" x2="57626%" y2="63514%" id="linearGradient-10">
            <stop stop-color="#808080" stop-opacity="0.25" offset="0%"></stop>
            <stop stop-color="#808080" stop-opacity="0.12" offset="54%"></stop>
            <stop stop-color="#808080" stop-opacity="0.1" offset="100%"></stop>
        </linearGradient>
        <linearGradient x1="95334%" y1="71538%" x2="95334%" y2="70026%" id="linearGradient-11">
            <stop stop-color="#808080" stop-opacity="0.25" offset="0%"></stop>
            <stop stop-color="#808080" stop-opacity="0.12" offset="54%"></stop>
            <stop stop-color="#808080" stop-opacity="0.1" offset="100%"></stop>
        </linearGradient>
        <linearGradient x1="90715%" y1="58290%" x2="90715%" y2="56779%" id="linearGradient-12">
            <stop stop-color="#808080" stop-opacity="0.25" offset="0%"></stop>
            <stop stop-color="#808080" stop-opacity="0.12" offset="54%"></stop>
            <stop stop-color="#808080" stop-opacity="0.1" offset="100%"></stop>
        </linearGradient>
        <linearGradient x1="106636%" y1="43694%" x2="106636%" y2="42182%" id="linearGradient-13">
            <stop stop-color="#808080" stop-opacity="0.25" offset="0%"></stop>
            <stop stop-color="#808080" stop-opacity="0.12" offset="54%"></stop>
            <stop stop-color="#808080" stop-opacity="0.1" offset="100%"></stop>
        </linearGradient>
        <linearGradient x1="40847%" y1="59330%" x2="40847%" y2="57818%" id="linearGradient-14">
            <stop stop-color="#808080" stop-opacity="0.25" offset="0%"></stop>
            <stop stop-color="#808080" stop-opacity="0.12" offset="54%"></stop>
            <stop stop-color="#808080" stop-opacity="0.1" offset="100%"></stop>
        </linearGradient>
        <linearGradient x1="79518%" y1="56241%" x2="79518%" y2="53931%" id="linearGradient-15">
            <stop stop-color="#808080" stop-opacity="0.25" offset="0%"></stop>
            <stop stop-color="#808080" stop-opacity="0.12" offset="54%"></stop>
            <stop stop-color="#808080" stop-opacity="0.1" offset="100%"></stop>
        </linearGradient>
        <linearGradient x1="81898%" y1="74495%" x2="81898%" y2="69209%" id="linearGradient-16">
            <stop stop-color="#808080" stop-opacity="0.25" offset="0%"></stop>
            <stop stop-color="#808080" stop-opacity="0.12" offset="54%"></stop>
            <stop stop-color="#808080" stop-opacity="0.1" offset="100%"></stop>
        </linearGradient>
        <linearGradient x1="100963%" y1="94157%" x2="100963%" y2="83119%" id="linearGradient-17">
            <stop stop-color="#808080" stop-opacity="0.25" offset="0%"></stop>
            <stop stop-color="#808080" stop-opacity="0.12" offset="54%"></stop>
            <stop stop-color="#808080" stop-opacity="0.1" offset="100%"></stop>
        </linearGradient>
        <linearGradient x1="98397%" y1="57848%" x2="98397%" y2="52562%" id="linearGradient-18">
            <stop stop-color="#808080" stop-opacity="0.25" offset="0%"></stop>
            <stop stop-color="#808080" stop-opacity="0.12" offset="54%"></stop>
            <stop stop-color="#808080" stop-opacity="0.1" offset="100%"></stop>
        </linearGradient>
        <linearGradient x1="105869%" y1="65983%" x2="105869%" y2="60697%" id="linearGradient-19">
            <stop stop-color="#808080" stop-opacity="0.25" offset="0%"></stop>
            <stop stop-color="#808080" stop-opacity="0.12" offset="54%"></stop>
            <stop stop-color="#808080" stop-opacity="0.1" offset="100%"></stop>
        </linearGradient>
        <linearGradient x1="69197%" y1="61933%" x2="69197%" y2="59623%" id="linearGradient-20">
            <stop stop-color="#808080" stop-opacity="0.25" offset="0%"></stop>
            <stop stop-color="#808080" stop-opacity="0.12" offset="54%"></stop>
            <stop stop-color="#808080" stop-opacity="0.1" offset="100%"></stop>
        </linearGradient>
        <linearGradient x1="88274%" y1="61751%" x2="88274%" y2="59441%" id="linearGradient-21">
            <stop stop-color="#808080" stop-opacity="0.25" offset="0%"></stop>
            <stop stop-color="#808080" stop-opacity="0.12" offset="54%"></stop>
            <stop stop-color="#808080" stop-opacity="0.1" offset="100%"></stop>
        </linearGradient>
    </defs>
    <g id="Landing-Page" stroke="none" stroke-width="1" fill="none" fill-rule="evenodd">
        <g id="Oblong---light-Bg-Copy-10" transform="translate(-659.000000, -1062.000000)" fill-rule="nonzero">
            <g id="Features" transform="translate(0.000000, 803.000000)">
                <g id="Feature-2" transform="translate(0.000000, 226.000000)">
                    <g id="email-blast" transform="translate(659.000000, 33.000000)">
                        <rect id="Rectangle-path" fill="#4D8AF0" x="5.84700665" y="74.7239468" width="25.0676275" height="3.80820399"></rect>
                        <polygon id="Shape" fill="#EEEEEE" points="5.84700665 78.4423503 3.00997783 206.873614 4.7827051 206.873614 8.71064302 78.5321508"></polygon>
                        <polygon id="Shape" fill="#EEEEEE" points="30.9113082 78.4423503 33.7450111 206.873614 31.9756098 206.873614 28.0476718 78.5321508"></polygon>
                        <polygon id="Shape" fill="#E0E0E0" points="11.1884701 78.5321508 8.14855876 206.873614 10.2738359 206.873614 13.0809313 78.4423503"></polygon>
                        <polygon id="Shape" fill="#E0E0E0" points="26.0986696 78.5321508 29.1419069 206.873614 27.0133038 206.873614 24.2095344 78.4423503"></polygon>
                        <rect id="Rectangle-path" fill="#E0E0E0" x="10.6297118" y="191.284922" width="16.1208426" height="1.94900222"></rect>
                        <rect id="Rectangle-path" fill="#E0E0E0" x="10.097561" y="180.478936" width="17.3614191" height="1.94900222"></rect>
                        <rect id="Rectangle-path" fill="#E0E0E0" x="10.6297118" y="169.849224" width="16.8292683" height="1.94900222"></rect>
                        <rect id="Rectangle-path" fill="#E0E0E0" x="10.6297118" y="159.043237" width="16.1208426" height="1.94900222"></rect>
                        <rect id="Rectangle-path" fill="#E0E0E0" x="10.6297118" y="147.884701" width="16.1208426" height="1.77272727"></rect>
                        <rect id="Rectangle-path" fill="#E0E0E0" x="11.1618625" y="137.254989" width="15.5886918" height="2.12527716"></rect>
                        <rect id="Rectangle-path" fill="#E0E0E0" x="11.1618625" y="126.625277" width="15.056541" height="1.41685144"></rect>
                        <rect id="Rectangle-path" fill="#E0E0E0" x="11.6906874" y="115.290466" width="13.2871397" height="2.30155211"></rect>
                        <rect id="Rectangle-path" fill="#E0E0E0" x="11.6906874" y="104.660754" width="13.8159645" height="1.94900222"></rect>
                        <rect id="Rectangle-path" fill="#E0E0E0" x="11.6906874" y="93.6784922" width="13.8159645" height="2.12527716"></rect>
                        <rect id="Rectangle-path" fill="#E0E0E0" x="12.3991131" y="82.8725055" width="12.578714" height="2.12527716"></rect>
                        <rect id="Rectangle-path" fill="#4D8AF0" x="0" y="67.4600887" width="36.8447894" height="7.79600887"></rect>
                        <g id="Group" opacity="0.5" transform="translate(6.319290, 12.638581)" fill="url(#linearGradient-1)">
                            <path d="M28.5798226,0 L15.7649667,8.3481153 C15.6395551,7.83171215 15.3472907,7.37110354 14.9334812,7.03769401 C15.0836332,6.63538745 15.1079908,6.19695086 15.0033259,5.7804878 C14.9840942,5.66060015 14.9374263,5.54677601 14.8669623,5.44789357 C14.7325732,5.32182567 14.5449277,5.26963288 14.364745,5.30820399 L12.3292683,5.44124169 C12.092263,5.4298378 11.8582122,5.49771253 11.6640798,5.63414634 C11.3780488,5.87361419 11.2915743,6.37583149 10.9988914,6.5886918 C10.8026608,6.72838137 10.5532151,6.71507761 10.3337029,6.8248337 C9.86474501,7.07427938 9.7616408,7.82261641 9.72505543,8.43126386 C9.6751663,9.26274945 9.67849224,10.2405765 10.2206208,10.7594235 C10.616408,11.1286031 11.1651885,11.0920177 11.6640798,11.0654102 L12.1662971,11.0254989 C12.2932259,11.1008231 12.426829,11.1642846 12.5654102,11.2150776 L12.5654102,11.9235033 L12.4722838,11.9235033 C12.4722838,11.9235033 6.72838137,10.2605322 0.419068736,27.635255 L0.309312639,27.635255 C0.309312639,27.635255 -0.62195122,30.7949002 0.868070953,30.2394678 C2.16518847,29.7538803 2.19844789,28.1341463 2.1751663,27.7283814 L2.2616408,27.7283814 C2.2616408,27.7283814 4.86585366,20.1053215 8.95676275,19.1740576 C8.95676275,19.1740576 11.9334812,22.8924612 7.09756098,30.3292683 L10.8824834,30.3292683 C10.8705122,31.1612993 11.0384216,31.9860974 11.3747228,32.7472284 C12.4889135,34.9789357 9.14301552,56.1751663 9.14301552,56.1751663 L11.9334812,56.1751663 L13.3370288,49.1507761 L13.5133038,56.1751663 L15.5587583,56.1751663 L17.6042129,42.6685144 L17.3248337,26.3980044 L17.3248337,22.1840355 L17.6973392,22.6796009 L17.6973392,16.1707317 L23.0886918,16.1707317 L24.0199557,8.92017738 L23.9235033,8.92017738 C23.9462923,8.41375787 23.9251489,7.90631604 23.8603104,7.40354767 L30.8115299,5.94345898 C31.905765,1.29711752 28.5798226,0 28.5798226,0 Z M22.4933481,9.03325942 L20.8636364,13.2006652 C20.8636364,13.2006652 16.4002217,11.1552106 14.7272727,11.9002217 L14.6341463,11.9002217 L14.6341463,11.0155211 C15.3289367,10.6140379 15.7788845,9.89362286 15.8348115,9.09312639 L22.5365854,7.68625277 C22.4498213,8.12883326 22.4341034,8.58240854 22.4900222,9.02993348 L22.4933481,9.03325942 Z" id="Shape"></path>
                        </g>
                        <path d="M29.827051,22.7394678 C29.827051,22.7394678 30.0399113,19.6662971 29.0820399,20.3414634 C28.1241685,21.0166297 28.5365854,22.9290466 28.5365854,22.9290466 L29.827051,22.7394678 Z" id="Shape" fill="#FDA57D"></path>
                        <path d="M7.35033259,40.267184 C7.35033259,40.267184 6.46563193,43.2771619 7.88248337,42.748337 C9.29933481,42.2195122 9.12305987,40.267184 9.12305987,40.267184 L7.35033259,40.267184 Z" id="Shape" fill="#FDA57D"></path>
                        <rect id="Rectangle-path" fill="#FDA57D" x="19.0443459" y="24.1463415" width="1.94900222" height="1.77272727"></rect>
                        <rect id="Rectangle-path" fill="#4D8AF0" x="17.4478936" y="33.8913525" width="1.59312639" height="7.97228381"></rect>
                        <rect id="Rectangle-path" fill="#000000" opacity="0.1" x="17.4478936" y="33.8913525" width="1.59312639" height="7.97228381"></rect>
                        <path d="M19.8026608,25.3004435 L21.6452328,25.3004435 C22.7014315,25.3004435 23.5576497,26.1566616 23.5576497,27.2128603 L23.5576497,39.116408 L17.9035477,39.116408 L17.9035477,27.2128603 C17.9035222,26.1618354 18.7516612,25.3077549 19.8026608,25.3004435 Z" id="Shape" fill="#FFFFFF"></path>
                        <circle id="Oval" fill="#FDA57D" cx="19.8392461" cy="22.4634146" r="2.30155211"></circle>
                        <path d="M18.9545455,25.3004435 C18.9545455,25.3004435 13.4634146,23.7073171 7.44013304,40.3569845 L9.21286031,40.3569845 C9.21286031,40.3569845 11.6940133,33.0931264 15.5886918,32.2084257 C15.5886918,32.2084257 18.4223947,35.7505543 13.8159645,42.8514412 L17.537694,42.8514412 L17.537694,40.4767184 C17.5160034,36.8774994 17.9632245,33.2907861 18.868071,29.8070953 C19.2947885,28.3389373 19.324627,26.7838907 18.9545455,25.3004435 Z" id="Shape" fill="#4D8AF0"></path>
                        <path d="M21.0798226,25.3004435 L21.0798226,25.8325942 C21.0798226,25.8325942 22.3203991,31.3237251 23.3813747,34.8658537 L23.9235033,35.5875831 L23.9235033,29.3747228 L29.0620843,29.3747228 L29.9467849,22.4667406 L28.5299335,22.4667406 L26.9168514,26.537694 C26.9168514,26.537694 22.672949,24.5886918 21.0798226,25.3004435 Z" id="Shape" fill="#4D8AF0"></path>
                        <path d="M17.8902439,39.116408 C17.8902439,39.116408 16.8259424,43.0144124 17.8902439,45.1396896 C18.9545455,47.2649667 15.7649667,67.4600887 15.7649667,67.4600887 L18.4257206,67.4600887 L22.2339246,48.4157428 L22.8525499,39.1031042 L17.8902439,39.116408 Z" id="Shape" fill="#333333"></path>
                        <polygon id="Shape" fill="#333333" points="23.5609756 39.116408 23.827051 54.6152993 21.8780488 67.4600887 19.9290466 67.4600887 19.2206208 39.116408"></polygon>
                        <path d="M19.4634146,21.5853659 C19.5106202,21.508506 19.5688961,21.4390233 19.6363636,21.3791574 C19.7029402,21.3401113 19.7786941,21.3194511 19.8558758,21.3192905 C20.3381375,21.2793792 20.8935698,21.2694013 21.1862528,20.8137472 C21.401337,20.404696 21.4536203,19.9293936 21.3325942,19.4833703 C21.3168213,19.3636648 21.2723178,19.2495533 21.2028825,19.1507761 C21.0747378,19.0305305 20.8957504,18.9808118 20.7239468,19.0177384 L18.7849224,19.1441242 C18.563208,19.1356744 18.344806,19.1999103 18.1629712,19.327051 C17.8902439,19.556541 17.8104213,20.0321508 17.5243902,20.2383592 C17.3348115,20.3713969 17.0986696,20.3580931 16.8991131,20.4645233 C16.4534368,20.7006652 16.3569845,21.405765 16.3203991,21.9944568 C16.2738359,22.786031 16.2738359,23.7172949 16.7926829,24.1995565 C17.1685144,24.5521064 17.6906874,24.5321508 18.1662971,24.4922395 L19.0509978,24.4190687 C19.140267,24.4214795 19.227873,24.3946136 19.3004435,24.3425721 C19.4136467,24.1913012 19.4571805,23.9990271 19.4201774,23.8137472 C19.3968958,23.368071 19.3503326,22.8625277 19.0576497,22.5898004 C18.987828,22.5373429 18.9242233,22.4770858 18.868071,22.4101996 C18.5521064,21.9179601 19.2971175,21.804878 19.4634146,21.5853659 Z" id="Shape" fill="#333333"></path>
                        <path d="M34.2771619,13.9689579 C34.2771619,13.9689579 37.4667406,15.2095344 36.402439,19.6230599 L22.0543237,22.6330377 L22.0543237,21.924612 L34.2771619,13.9689579 Z" id="Shape" fill="#F55F44"></path>
                        <rect id="Rectangle-path" fill="#000000" opacity="0.1" x="5.93348115" y="75.1662971" width="24.9778271" height="1"></rect>
                        <rect id="Rectangle-path" fill="#000000" opacity="0.1" x="10.0077605" y="125.121951" width="1.94900222" height="1"></rect>
                        <rect id="Rectangle-path" fill="#000000" opacity="0.1" x="25.2439024" y="125.121951" width="1.94900222" height="1"></rect>
                        <rect id="Rectangle-path" fill="#EEEEEE" x="5.84700665" y="122.198448" width="24.9778271" height="3.00997783"></rect>
                        <polygon id="Shape" fill="url(#linearGradient-2)" points="50.2716186 12.7549889 50.5210643 12.6286031 50.4611973 12.6219512 50.481153 12.6086475 50.4445676 12.6186253 43.5798226 11.7305987 43.7261641 14.0022173 43.9423503 16.0177384 44.364745 15.8015521 44.7572062 16.6929047"></polygon>
                        <polygon id="Shape" fill="#6C63FF" points="43.9556541 13.95898 44.1552106 15.804878 50.2915743 12.695122 44.9634146 12.8115299"></polygon>
                        <polygon id="Shape" fill="#000000" opacity="0.2" points="43.9556541 13.95898 44.1552106 15.804878 50.2915743 12.695122 44.9634146 12.8115299"></polygon>
                        <polygon id="Shape" fill="#6C63FF" points="43.8192905 11.8802661 50.2915743 12.695122 43.9556541 13.95898"></polygon>
                        <polygon id="Shape" fill="#6C63FF" points="44.9135255 16.4168514 50.2549889 12.6751663 44.0620843 14.5177384"></polygon>
                        <polygon id="Shape" fill="url(#linearGradient-3)" points="83.5543237 3.24611973 83.8037694 3.11973392 83.7439024 3.1097561 83.7638581 3.09645233 83.7272727 3.1097561 76.8592018 2.22172949 77.0088692 4.49334812 77.2250554 6.50886918 77.6474501 6.29268293 78.0399113 7.18403548"></polygon>
                        <polygon id="Shape" fill="#6C63FF" points="77.2383592 4.45011086 77.4379157 6.29600887 83.5742794 3.18625277 78.2461197 3.30266075"></polygon>
                        <polygon id="Shape" fill="#000000" opacity="0.2" points="77.2383592 4.45011086 77.4379157 6.29600887 83.5742794 3.18625277 78.2461197 3.30266075"></polygon>
                        <polygon id="Shape" fill="#6C63FF" points="77.1019956 2.3713969 83.5742794 3.18625277 77.2383592 4.45011086"></polygon>
                        <polygon id="Shape" fill="#6C63FF" points="78.1962306 6.90798226 83.537694 3.16629712 77.3447894 5.00554324"></polygon>
                        <polygon id="Shape" fill="url(#linearGradient-4)" points="141.868071 0.279379157 142.210643 0.0232815965 142.120843 0.0266075388 142.144124 0 142.094235 0.0266075388 131.521064 0.462305987 132.332594 3.8481153 133.177384 6.8248337 133.759424 6.38913525 134.577605 7.62971175"></polygon>
                        <polygon id="Shape" fill="#6C63FF" points="132.668514 3.72172949 133.443459 6.44900222 141.884701 0.179600887 133.889135 1.73281596"></polygon>
                        <polygon id="Shape" fill="#000000" opacity="0.2" points="132.668514 3.72172949 133.443459 6.44900222 141.884701 0.179600887 133.889135 1.73281596"></polygon>
                        <polygon id="Shape" fill="#6C63FF" points="131.926829 0.625277162 141.884701 0.179600887 132.668514 3.72172949"></polygon>
                        <polygon id="Shape" fill="#6C63FF" points="134.743902 7.17738359 141.824834 0.159645233 132.971175 4.53325942"></polygon>
                        <polygon id="Shape" fill="url(#linearGradient-5)" points="113.800443 19.4268293 114.073171 19.3636364 114.01663 19.3436807 114.039911 19.3337029 114 19.3337029 107.550998 16.8192905 107.148559 19.0609756 106.872506 21.0665188 107.334812 20.9600887 107.497783 21.9179601"></polygon>
                        <polygon id="Shape" fill="#6C63FF" points="107.381375 19.0742794 107.128603 20.9101996 113.833703 19.3736142 108.635255 18.2028825"></polygon>
                        <polygon id="Shape" fill="#000000" opacity="0.2" points="107.381375 19.0742794 107.128603 20.9101996 113.833703 19.3736142 108.635255 18.2028825"></polygon>
                        <polygon id="Shape" fill="#6C63FF" points="107.750554 17.0221729 113.833703 19.3736142 107.381375 19.0742794"></polygon>
                        <polygon id="Shape" fill="#6C63FF" points="107.717295 21.6884701 113.803769 19.3436807 107.348115 19.6396896"></polygon>
                        <g id="Group" opacity="0.5" transform="translate(69.179601, 41.906874)">
                            <polygon id="Shape" fill="url(#linearGradient-6)" points="6.69512195 1.20731707 6.94124169 1.07760532 6.88470067 1.07095344 6.90133038 1.05764967 6.86474501 1.06762749 0 0.179600887 0.149667406 2.45454545 0.365853659 4.46674058 0.788248337 4.25055432 1.17738359 5.14190687"></polygon>
                            <polygon id="Shape" fill="#6C63FF" points="0.379157428 2.4113082 0.578713969 4.25388027 6.71507761 1.14412417 1.38691796 1.26053215"></polygon>
                            <polygon id="Shape" fill="#000000" opacity="0.2" points="0.379157428 2.4113082 0.578713969 4.25388027 6.71507761 1.14412417 1.38691796 1.26053215"></polygon>
                            <polygon id="Shape" fill="#6C63FF" points="0.242793792 0.329268293 6.71507761 1.14412417 0.379157428 2.4113082"></polygon>
                            <polygon id="Shape" fill="#6C63FF" points="1.33702882 4.86585366 6.67849224 1.12416851 0.485587583 2.96674058"></polygon>
                        </g>
                        <g id="Group" opacity="0.2" transform="translate(139.689579, 12.305987)">
                            <polygon id="Shape" fill="url(#linearGradient-7)" points="10.5898004 0.409090909 10.9323725 0.149667406 10.8425721 0.152993348 10.8691796 0.129711752 10.8159645 0.15631929 0.246119734 0.588691796 1.05764967 3.97450111 1.89911308 6.95454545 2.48115299 6.51884701 3.30266075 7.7594235"></polygon>
                            <polygon id="Shape" fill="#6C63FF" points="1.3902439 3.85144124 2.16518847 6.57538803 10.6064302 0.309312639 2.61086475 1.86252772"></polygon>
                            <polygon id="Shape" fill="#000000" points="1.3902439 3.85144124 2.16518847 6.57538803 10.6064302 0.309312639 2.61086475 1.86252772"></polygon>
                            <polygon id="Shape" fill="#6C63FF" points="0.648558758 0.754988914 10.6064302 0.309312639 1.3902439 3.85144124"></polygon>
                            <polygon id="Shape" fill="#6C63FF" points="3.46563193 7.30709534 10.5465632 0.289356984 1.69290466 4.66297118"></polygon>
                        </g>
                        <g id="Group" opacity="0.3" transform="translate(167.960089, 49.223947)">
                            <polygon id="Shape" fill="url(#linearGradient-8)" points="10.4833703 0.429046563 10.8226164 0.172949002 10.732816 0.176274945 10.7594235 0.149667406 10.7062084 0.176274945 0.136363636 0.611973392 0.94789357 3.99778271 1.79268293 6.97782705 2.3713969 6.53880266 3.19290466 7.7827051"></polygon>
                            <polygon id="Shape" fill="#6C63FF" points="1.2804878 3.8713969 2.05543237 6.59866962 10.5 0.329268293 2.50110865 1.88248337"></polygon>
                            <polygon id="Shape" fill="#000000" opacity="0.2" points="1.2804878 3.8713969 2.05543237 6.59866962 10.5 0.329268293 2.50110865 1.88248337"></polygon>
                            <polygon id="Shape" fill="#6C63FF" points="0.538802661 0.774944568 10.5 0.329268293 1.2804878 3.8713969"></polygon>
                            <polygon id="Shape" fill="#6C63FF" points="3.35587583 7.327051 10.4368071 0.312638581 1.58314856 4.68292683"></polygon>
                        </g>
                        <g id="Group" opacity="0.3" transform="translate(255.099778, 67.516630)">
                            <polygon id="Shape" fill="url(#linearGradient-9)" points="10.386918 0.425720621 10.72949 0.166297118 10.6396896 0.16962306 10.6662971 0.146341463 10.613082 0.16962306 0.0432372506 0.605321508 0.854767184 3.99113082 1.6962306 6.97117517 2.27827051 6.53547672 3.09645233 7.77605322"></polygon>
                            <polygon id="Shape" fill="#6C63FF" points="1.18736142 3.86807095 1.96230599 6.59201774 10.4035477 0.322616408 2.40798226 1.87583149"></polygon>
                            <polygon id="Shape" fill="#000000" opacity="0.2" points="1.18736142 3.86807095 1.96230599 6.59201774 10.4035477 0.322616408 2.40798226 1.87583149"></polygon>
                            <polygon id="Shape" fill="#6C63FF" points="0.445676275 0.771618625 10.4035477 0.322616408 1.18736142 3.86807095"></polygon>
                            <polygon id="Shape" fill="#6C63FF" points="3.26274945 7.32372506 10.3436807 0.305986696 1.49002217 4.67627494"></polygon>
                        </g>
                        <g id="Group" opacity="0.5" transform="translate(107.760532, 46.230599)">
                            <polygon id="Shape" fill="url(#linearGradient-10)" points="7.13747228 2.82372506 7.41019956 2.75720621 7.35365854 2.73725055 7.37694013 2.72727273 7.33702882 2.73059867 0.888026608 0.21286031 0.485587583 2.45454545 0.209534368 4.46341463 0.668514412 4.35365854 0.83481153 5.31152993"></polygon>
                            <polygon id="Shape" fill="#6C63FF" points="0.718403548 2.46784922 0.465631929 4.3037694 7.17073171 2.76718404 1.97228381 1.59645233"></polygon>
                            <polygon id="Shape" fill="#000000" opacity="0.2" points="0.718403548 2.46784922 0.465631929 4.3037694 7.17073171 2.76718404 1.97228381 1.59645233"></polygon>
                            <polygon id="Shape" fill="#6C63FF" points="1.08758315 0.415742794 7.17073171 2.76718404 0.718403548 2.46784922"></polygon>
                            <polygon id="Shape" fill="#6C63FF" points="1.05432373 5.08536585 7.14079823 2.7405765 0.685144124 3.03325942"></polygon>
                        </g>
                        <g id="Group" opacity="0.5" transform="translate(227.494457, 89.800443)">
                            <polygon id="Shape" fill="url(#linearGradient-11)" points="6.99778271 2.77383592 7.27050998 2.71064302 7.2172949 2.68736142 7.23725055 2.68070953 7.19733925 2.68070953 0.751662971 0.166297118 0.345898004 2.40798226 0.0698447894 4.4135255 0.532150776 4.3037694 0.698447894 5.26496674"></polygon>
                            <polygon id="Shape" fill="#6C63FF" points="0.578713969 2.42128603 0.329268293 4.25720621 7.03436807 2.72062084 1.83259424 1.54988914"></polygon>
                            <polygon id="Shape" fill="#000000" opacity="0.2" points="0.578713969 2.42128603 0.329268293 4.25720621 7.03436807 2.72062084 1.83259424 1.54988914"></polygon>
                            <polygon id="Shape" fill="#6C63FF" points="0.94789357 0.369179601 7.03436807 2.72062084 0.578713969 2.42128603"></polygon>
                            <polygon id="Shape" fill="#6C63FF" points="0.914634146 5.03547672 7.00110865 2.69068736 0.548780488 2.98669623"></polygon>
                        </g>
                        <g id="Group" opacity="0.5" transform="translate(220.177384, 43.569845)">
                            <polygon id="Shape" fill="url(#linearGradient-12)" points="7.00110865 2.92350333 7.27383592 2.85698448 7.2172949 2.83702882 7.2405765 2.827051 7.20066519 2.83037694 0.751662971 0.312638581 0.349223947 2.55432373 0.0731707317 4.5631929 0.535476718 4.45343681 0.701773836 5.4113082"></polygon>
                            <polygon id="Shape" fill="#6C63FF" points="0.582039911 2.56762749 0.329268293 4.40354767 7.03769401 2.86696231 1.83592018 1.6962306"></polygon>
                            <polygon id="Shape" fill="#000000" opacity="0.2" points="0.582039911 2.56762749 0.329268293 4.40354767 7.03769401 2.86696231 1.83592018 1.6962306"></polygon>
                            <polygon id="Shape" fill="#6C63FF" points="0.951219512 0.518847007 7.03769401 2.86696231 0.582039911 2.56762749"></polygon>
                            <polygon id="Shape" fill="#6C63FF" points="0.917960089 5.18514412 7.00443459 2.84035477 0.548780488 3.13303769"></polygon>
                        </g>
                        <g id="Group" opacity="0.2" transform="translate(280.709534, 5.321508)">
                            <polygon id="Shape" fill="url(#linearGradient-13)" points="7.18070953 2.76718404 7.45343681 2.70399113 7.40022173 2.68403548 7.42017738 2.67405765 7.38026608 2.67738359 0.931263858 0.159645233 0.528824834 2.40133038 0.252771619 4.41019956 0.715077605 4.30044346 0.881374723 5.25831486"></polygon>
                            <polygon id="Shape" fill="#6C63FF" points="0.761640798 2.41463415 0.50886918 4.25055432 7.2172949 2.71396896 2.01552106 1.54323725"></polygon>
                            <polygon id="Shape" fill="#000000" points="0.761640798 2.41463415 0.50886918 4.25055432 7.2172949 2.71396896 2.01552106 1.54323725"></polygon>
                            <polygon id="Shape" fill="#6C63FF" points="1.1308204 0.362527716 7.2172949 2.71396896 0.761640798 2.41463415"></polygon>
                            <polygon id="Shape" fill="#6C63FF" points="1.09756098 5.03215078 7.18403548 2.68403548 0.731707317 2.98004435"></polygon>
                        </g>
                        <g id="Group" opacity="0.2" transform="translate(56.208426, 17.627494)">
                            <polygon id="Shape" fill="url(#linearGradient-14)" points="7.12084257 2.89689579 7.39356984 2.83370288 7.33702882 2.81042129 7.36031042 2.8037694 7.32039911 2.8037694 0.871396896 0.289356984 0.468957871 2.53104213 0.189578714 4.53658537 0.655210643 4.42682927 0.818181818 5.38802661"></polygon>
                            <polygon id="Shape" fill="#6C63FF" points="0.701773836 2.5443459 0.449002217 4.38026608 7.154102 2.84368071 1.9556541 1.672949"></polygon>
                            <polygon id="Shape" fill="#000000" points="0.701773836 2.5443459 0.449002217 4.38026608 7.154102 2.84368071 1.9556541 1.672949"></polygon>
                            <polygon id="Shape" fill="#6C63FF" points="1.07095344 0.492239468 7.154102 2.84368071 0.701773836 2.5443459"></polygon>
                            <polygon id="Shape" fill="#6C63FF" points="1.03769401 5.15853659 7.12416851 2.81374723 0.668514412 3.1097561"></polygon>
                        </g>
                        <polygon id="Shape" fill="url(#linearGradient-15)" points="193.509978 12.3691796 193.889135 12.172949 193.799335 12.1596452 193.829268 12.1396896 193.772727 12.1563193 183.279379 10.7993348 183.508869 14.2749446 183.838137 17.3547672 184.48337 17.018847 185.08204 18.3824834"></polygon>
                        <polygon id="Shape" fill="#6C63FF" points="183.858093 14.2084257 184.160754 17.0254989 193.539911 12.2727273 185.398004 12.4523282"></polygon>
                        <polygon id="Shape" fill="#000000" opacity="0.2" points="183.858093 14.2084257 184.160754 17.0254989 193.539911 12.2727273 185.398004 12.4523282"></polygon>
                        <polygon id="Shape" fill="#6C63FF" points="183.648559 11.0288248 193.539911 12.2727273 183.858093 14.2084257"></polygon>
                        <polygon id="Shape" fill="#6C63FF" points="185.321508 17.9634146 193.486696 12.2427938 184.021064 15.056541"></polygon>
                        <polygon id="Shape" fill="url(#linearGradient-16)" points="217.939024 66.113082 218.916851 66.172949 218.75388 66.0465632 218.837029 66.0399113 218.703991 66.0066519 199.679601 51.0432373 196.054324 58.1341463 193.090909 64.5731707 194.750554 64.672949 194.331486 68.0521064"></polygon>
                        <polygon id="Shape" fill="#6C63FF" points="196.81929 58.4135255 194.115299 64.3037694 218.115299 65.9634146 201.904656 56.77051"></polygon>
                        <polygon id="Shape" fill="#000000" opacity="0.2" points="196.81929 58.4135255 194.115299 64.3037694 218.115299 65.9634146 201.904656 56.77051"></polygon>
                        <polygon id="Shape" fill="#6C63FF" points="200.135255 51.9279379 218.115299 65.9634146 196.81929 58.4135255"></polygon>
                        <polygon id="Shape" fill="#6C63FF" points="195.289357 67.5099778 218.038803 65.8403548 196.140798 60.2727273"></polygon>
                        <polygon id="Shape" fill="url(#linearGradient-17)" points="297.911308 122.75388 299.956763 122.820399 299.610865 122.564302 299.777162 122.544346 299.501109 122.484479 258.844789 92.4545455 251.727273 107.487805 245.950111 121.110865 249.415743 121.220621 248.757206 128.2949"></polygon>
                        <polygon id="Shape" fill="#6C63FF" points="253.343681 108.023282 248.068736 120.488914 298.27051 122.43459 263.850333 104.268293"></polygon>
                        <polygon id="Shape" fill="#000000" opacity="0.2" points="253.343681 108.023282 248.068736 120.488914 298.27051 122.43459 263.850333 104.268293"></polygon>
                        <polygon id="Shape" fill="#6C63FF" points="259.85255 94.2738359 298.27051 122.43459 253.343681 108.023282"></polygon>
                        <polygon id="Shape" fill="#6C63FF" points="250.726164 127.104213 298.100887 122.178492 252.046563 111.947894"></polygon>
                        <polygon id="Shape" fill="url(#linearGradient-18)" points="263.105322 8.38802661 263.996674 7.98226164 263.793792 7.94567627 263.863636 7.90243902 263.730599 7.93569845 239.916851 3.60532151 240.029933 11.5709534 240.419069 18.6452328 241.932373 17.9600887 243.143016 21.1430155"></polygon>
                        <polygon id="Shape" fill="#6C63FF" points="240.838137 11.4578714 241.200665 17.9301552 263.191796 8.17184035 244.563193 7.62638581"></polygon>
                        <polygon id="Shape" fill="#000000" opacity="0.2" points="240.838137 11.4578714 241.200665 17.9301552 263.191796 8.17184035 244.563193 7.62638581"></polygon>
                        <polygon id="Shape" fill="#6C63FF" points="240.735033 4.17405765 263.191796 8.17184035 240.838137 11.4578714"></polygon>
                        <polygon id="Shape" fill="#6C63FF" points="243.738359 20.2150776 263.06541 8.09866962 241.107539 13.4201774"></polygon>
                        <polygon id="Shape" fill="url(#linearGradient-19)" points="288.339246 35.0853659 289.233925 34.6829268 289.031042 34.6463415 289.097561 34.5997783 288.967849 34.6330377 265.154102 30.3026608 265.267184 38.2682927 265.656319 45.3425721 267.169623 44.6607539 268.380266 47.8403548"></polygon>
                        <polygon id="Shape" fill="#6C63FF" points="266.075388 38.1585366 266.43459 44.6308204 288.425721 34.8725055 269.797118 34.327051"></polygon>
                        <polygon id="Shape" fill="#000000" opacity="0.2" points="266.075388 38.1585366 266.43459 44.6308204 288.425721 34.8725055 269.797118 34.327051"></polygon>
                        <polygon id="Shape" fill="#6C63FF" points="265.968958 30.8747228 288.425721 34.8725055 266.075388 38.1585366"></polygon>
                        <polygon id="Shape" fill="#6C63FF" points="268.97561 46.9124169 288.299335 34.7993348 266.344789 40.1175166"></polygon>
                        <polygon id="Shape" fill="url(#linearGradient-20)" points="160.493348 33.5022173 160.875831 33.3059867 160.786031 33.2960089 160.812639 33.2760532 160.756098 33.2926829 150.266075 31.9356984 150.495565 35.4079823 150.821508 38.4878049 151.466741 38.1552106 152.06541 39.518847"></polygon>
                        <polygon id="Shape" fill="#6C63FF" points="150.844789 35.3447894 151.14745 38.1585366 160.526608 33.4090909 152.384701 33.5886918"></polygon>
                        <polygon id="Shape" fill="#000000" opacity="0.2" points="150.844789 35.3447894 151.14745 38.1585366 160.526608 33.4090909 152.384701 33.5886918"></polygon>
                        <polygon id="Shape" fill="#6C63FF" points="150.635255 32.1651885 160.526608 33.4090909 150.844789 35.3447894"></polygon>
                        <polygon id="Shape" fill="#6C63FF" points="152.304878 39.0997783 160.470067 33.3791574 151.004435 36.1929047"></polygon>
                        <polygon id="Shape" fill="url(#linearGradient-21)" points="223.766075 28.7494457 224.145233 28.5532151 224.058758 28.5399113 224.085366 28.5199557 224.028825 28.5365854 213.538803 27.1796009 213.764967 30.6552106 214.094235 33.7350333 214.739468 33.402439 215.338137 34.7627494"></polygon>
                        <polygon id="Shape" fill="#6C63FF" points="214.117517 30.5886918 214.420177 33.405765 223.799335 28.6529933 215.657428 28.8325942"></polygon>
                        <polygon id="Shape" fill="#000000" opacity="0.2" points="214.117517 30.5886918 214.420177 33.405765 223.799335 28.6529933 215.657428 28.8325942"></polygon>
                        <polygon id="Shape" fill="#6C63FF" points="213.907982 27.4124169 223.799335 28.6529933 214.117517 30.5886918"></polygon>
                        <polygon id="Shape" fill="#6C63FF" points="215.577605 34.3436807 223.742794 28.6230599 214.277162 31.440133"></polygon>
                    </g>
                </g>
            </g>
        </g>
    </g>
</svg>