<?xml version="1.0" encoding="UTF-8"?>
<svg width="535px" height="478px" viewBox="0 0 535 478" version="1.1" xmlns="http://www.w3.org/2000/svg" xmlns:xlink="http://www.w3.org/1999/xlink">
    <!-- Generator: Sketch 43.2 (39069) - http://www.bohemiancoding.com/sketch -->
    <title>Hero Illustration</title>
    <desc>Created with Sketch.</desc>
    <defs>
        <linearGradient x1="50%" y1="0%" x2="50%" y2="98.0986926%" id="linearGradient-1">
            <stop stop-color="#494FAE" offset="0%"></stop>
            <stop stop-color="#268197" offset="100%"></stop>
        </linearGradient>
        <linearGradient x1="0.0425262609%" y1="49.9960599%" x2="99.9912109%" y2="49.9960599%" id="linearGradient-2">
            <stop stop-color="#808080" stop-opacity="0.25" offset="0%"></stop>
            <stop stop-color="#808080" stop-opacity="0.12" offset="54%"></stop>
            <stop stop-color="#808080" stop-opacity="0.1" offset="100%"></stop>
        </linearGradient>
    </defs>
    <g id="Landing-Page" stroke="none" stroke-width="1" fill="none" fill-rule="evenodd">
        <g id="Oblong---light-Bg-Copy-10" transform="translate(-446.000000, -96.000000)">
            <g id="Hero" transform="translate(44.000000, 75.000000)">
                <g id="Hero-Illustration" transform="translate(396.000000, 21.000000)">
                    <path d="M273.042064,35.91573 L273.042064,34.3692082 C273.042064,34.3692082 44.8905489,-69.8417767 11.8023734,86.6563503 C-1.83146069,151.140701 5.89992827,224.577302 83.0229943,320.523239 C157.986586,413.782654 266.74785,465.356542 272.779789,468.171601 L272.779789,469.958333 C272.779789,469.958333 385.675792,418.134184 462.798858,322.188247 C539.921924,226.24231 547.653313,152.805709 534.019479,88.3213582 C501.582991,-65.0944627 281.69123,32.0303769 273.042064,35.91573 Z" id="Combined-Shape" fill="url(#linearGradient-1)"></path>
                    <g id="undraw_teaching_f1cm" transform="translate(12.875000, 104.833333)" fill-rule="nonzero">
                        <g id="wall" transform="translate(156.000000, 0.000000)" fill="#6C63FF" opacity="0.1">
                            <rect id="Rectangle-path" x="0.107805365" y="63.9982877" width="42.3373288" height="12.7996575" rx="6.39982877"></rect>
                            <rect id="Rectangle-path" x="44.4143122" y="76.7979452" width="42.3373288" height="12.7996575" rx="6.39982877"></rect>
                            <rect id="Rectangle-path" x="88.7208191" y="89.5976027" width="42.3373288" height="12.7996575" rx="6.39982877"></rect>
                            <rect id="Rectangle-path" x="0.107805365" y="44.7988014" width="42.3373288" height="12.7996575" rx="6.39982877"></rect>
                            <rect id="Rectangle-path" x="44.4143122" y="57.5984589" width="42.3373288" height="12.7996575" rx="6.39982877"></rect>
                            <rect id="Rectangle-path" x="88.7208191" y="70.3981164" width="42.3373288" height="12.7996575" rx="6.39982877"></rect>
                            <rect id="Rectangle-path" x="137.950271" y="63.9982877" width="42.3373288" height="12.7996575" rx="6.39982877"></rect>
                            <rect id="Rectangle-path" x="182.256778" y="76.7979452" width="42.3373288" height="12.7996575" rx="6.39982877"></rect>
                            <rect id="Rectangle-path" x="226.563285" y="89.5976027" width="42.3373288" height="12.7996575" rx="6.39982877"></rect>
                            <rect id="Rectangle-path" x="137.950271" y="44.7988014" width="42.3373288" height="12.7996575" rx="6.39982877"></rect>
                            <rect id="Rectangle-path" x="182.256778" y="57.5984589" width="42.3373288" height="12.7996575" rx="6.39982877"></rect>
                            <rect id="Rectangle-path" x="226.563285" y="70.3981164" width="42.3373288" height="12.7996575" rx="6.39982877"></rect>
                            <rect id="Rectangle-path" x="0.107805365" y="19.1994863" width="42.3373288" height="12.7996575" rx="6.39982877"></rect>
                            <rect id="Rectangle-path" x="44.4143122" y="31.9991438" width="42.3373288" height="12.7996575" rx="6.39982877"></rect>
                            <rect id="Rectangle-path" x="88.7208191" y="44.7988014" width="42.3373288" height="12.7996575" rx="6.39982877"></rect>
                            <rect id="Rectangle-path" x="0.107805365" y="0" width="42.3373288" height="12.7996575" rx="6.39982877"></rect>
                            <rect id="Rectangle-path" x="44.4143122" y="12.7996575" width="42.3373288" height="12.7996575" rx="6.39982877"></rect>
                            <rect id="Rectangle-path" x="88.7208191" y="25.5993151" width="42.3373288" height="12.7996575" rx="6.39982877"></rect>
                            <rect id="Rectangle-path" x="137.950271" y="19.1994863" width="42.3373288" height="12.7996575" rx="6.39982877"></rect>
                            <rect id="Rectangle-path" x="182.256778" y="31.9991438" width="42.3373288" height="12.7996575" rx="6.39982877"></rect>
                            <rect id="Rectangle-path" x="226.563285" y="44.7988014" width="42.3373288" height="12.7996575" rx="6.39982877"></rect>
                            <rect id="Rectangle-path" x="137.950271" y="0" width="42.3373288" height="12.7996575" rx="6.39982877"></rect>
                            <rect id="Rectangle-path" x="182.256778" y="12.7996575" width="42.3373288" height="12.7996575" rx="6.39982877"></rect>
                            <rect id="Rectangle-path" x="226.563285" y="25.5993151" width="42.3373288" height="12.7996575" rx="6.39982877"></rect>
                            <rect id="Rectangle-path" x="0.107805365" y="291.930651" width="42.3373288" height="12.7996575" rx="6.39982877"></rect>
                            <rect id="Rectangle-path" x="44.4143122" y="304.730308" width="42.3373288" height="12.7996575" rx="6.39982877"></rect>
                            <rect id="Rectangle-path" x="88.7208191" y="317.529966" width="42.3373288" height="12.7996575" rx="6.39982877"></rect>
                            <rect id="Rectangle-path" x="0.107805365" y="272.731164" width="42.3373288" height="12.7996575" rx="6.39982877"></rect>
                            <rect id="Rectangle-path" x="44.4143122" y="285.530822" width="42.3373288" height="12.7996575" rx="6.39982877"></rect>
                            <rect id="Rectangle-path" x="88.7208191" y="298.330479" width="42.3373288" height="12.7996575" rx="6.39982877"></rect>
                            <rect id="Rectangle-path" x="137.950271" y="291.930651" width="42.3373288" height="12.7996575" rx="6.39982877"></rect>
                            <rect id="Rectangle-path" x="182.256778" y="304.730308" width="42.3373288" height="12.7996575" rx="6.39982877"></rect>
                            <rect id="Rectangle-path" x="226.563285" y="317.529966" width="42.3373288" height="12.7996575" rx="6.39982877"></rect>
                            <rect id="Rectangle-path" x="137.950271" y="272.731164" width="42.3373288" height="12.7996575" rx="6.39982877"></rect>
                            <rect id="Rectangle-path" x="182.256778" y="285.530822" width="42.3373288" height="12.7996575" rx="6.39982877"></rect>
                            <rect id="Rectangle-path" x="226.563285" y="298.330479" width="42.3373288" height="12.7996575" rx="6.39982877"></rect>
                            <rect id="Rectangle-path" x="0.107805365" y="247.131849" width="42.3373288" height="12.7996575" rx="6.39982877"></rect>
                            <rect id="Rectangle-path" x="44.4143122" y="259.931507" width="42.3373288" height="12.7996575" rx="6.39982877"></rect>
                            <rect id="Rectangle-path" x="88.7208191" y="272.731164" width="42.3373288" height="12.7996575" rx="6.39982877"></rect>
                            <rect id="Rectangle-path" x="0.107805365" y="227.932363" width="42.3373288" height="12.7996575" rx="6.39982877"></rect>
                            <rect id="Rectangle-path" x="44.4143122" y="240.732021" width="42.3373288" height="12.7996575" rx="6.39982877"></rect>
                            <rect id="Rectangle-path" x="88.7208191" y="253.531678" width="42.3373288" height="12.7996575" rx="6.39982877"></rect>
                            <rect id="Rectangle-path" x="137.950271" y="247.131849" width="42.3373288" height="12.7996575" rx="6.39982877"></rect>
                            <rect id="Rectangle-path" x="182.256778" y="259.931507" width="42.3373288" height="12.7996575" rx="6.39982877"></rect>
                            <rect id="Rectangle-path" x="226.563285" y="272.731164" width="42.3373288" height="12.7996575" rx="6.39982877"></rect>
                            <rect id="Rectangle-path" x="137.950271" y="227.932363" width="42.3373288" height="12.7996575" rx="6.39982877"></rect>
                            <rect id="Rectangle-path" x="182.256778" y="240.732021" width="42.3373288" height="12.7996575" rx="6.39982877"></rect>
                            <rect id="Rectangle-path" x="226.563285" y="253.531678" width="42.3373288" height="12.7996575" rx="6.39982877"></rect>
                        </g>
                        <ellipse id="floor" fill="#6C63FF" opacity="0.1" cx="257.002961" cy="355.436644" rx="257.002961" ry="17.7226027"></ellipse>
                        <g id="teacher-and-board" transform="translate(59.924988, 37.000000)">
                            <g id="board-plant">
                                <path d="M42.3393978,54.9606164 C62.6957763,63.7825342 74.3926941,82.0368151 74.3926941,82.0368151 C74.3926941,82.0368151 53.0812643,85.9751712 32.7199629,77.1581764 C12.3586615,68.3411815 0.666666667,50.0819777 0.666666667,50.0819777 C0.666666667,50.0819777 21.9780965,46.1386986 42.3393978,54.9606164 Z" id="Shape" fill="#6C63FF"></path>
                                <path d="M104.811572,21.0907534 C111.108019,10.7525685 121.830194,5.82962329 121.830194,5.82962329 C121.830194,5.82962329 122.322489,17.6151541 116.045733,27.9238014 C109.768978,38.2324486 99.0221889,43.1504709 99.0221889,43.1504709 C99.0221889,43.1504709 98.5102026,31.369863 104.811572,21.0907534 Z" id="Shape" fill="#6C63FF"></path>
                                <path d="M58.5260417,32.1526113 C63.0305365,48.2309503 75.4462043,58.8152825 75.4462043,58.8152825 C75.4462043,58.8152825 80.5611444,43.322774 76.0566495,27.239512 C71.5521547,11.15625 59.1315639,0.576840753 59.1315639,0.576840753 C59.1315639,0.576840753 54.0166239,16.0693493 58.5260417,32.1526113 Z" id="Shape" fill="#46455B"></path>
                            </g>
                            <g id="board" transform="translate(59.000000, 31.000000)">
                                <rect id="Rectangle-path" fill="#3F3D56" x="0.185716324" y="0.428938356" width="358.882705" height="179.6875" rx="7.21"></rect>
                                <path d="M0.185716324,169.285959 L359.068422,169.285959 L359.068422,176.566995 C359.068422,178.527298 357.479282,180.116438 355.518978,180.116438 L3.73515982,180.116438 C1.77485631,180.116438 0.185716324,178.527298 0.185716324,176.566995 L0.185716324,169.285959 L0.185716324,169.285959 Z" id="Shape" fill="#000000" opacity="0.1"></path>
                                <rect id="Rectangle-path" fill="#6C63FF" x="35.1386273" y="155.994007" width="26.5839041" height="13.2919521" rx="2.5"></rect>
                                <rect id="Rectangle-path" fill="#6C63FF" x="69.1069492" y="167.316781" width="18.2148973" height="1.96917808" rx="0.984589041"></rect>
                                <path d="M52.9350742,35.5689212 C65.9267266,37.9663955 79.1792951,35.5689212 92.1167951,33.9443493 L131.436358,29.0214041 C133.02647,28.8195634 135.340254,27.8694349 136.275614,29.8139983 C136.802369,30.9019692 136.447917,33.2600599 136.4873,34.510488 C136.590682,37.9565497 136.580836,41.4026113 136.4873,44.8486729 C136.310074,51.4355736 135.827626,58.0077055 135.212257,64.5650685 C134.015982,77.3991866 132.322489,90.1643836 131.475742,103.047731 C131.042523,109.605094 130.825913,116.182149 131.017908,122.739512 C131.062215,124.305009 131.126213,125.870505 131.219749,127.431079 C131.323131,129.178724 132.105879,131.773116 130.200699,132.939854 C129.112728,133.609375 126.971247,133.574914 125.725742,133.771832 C123.756564,134.081978 121.787386,134.328125 119.778824,134.529966 C106.541025,135.854238 93.1309218,135.302868 79.8438927,135.224101 L39.7218893,135.017337 L29.9350742,134.963185 C29.0489441,134.963185 25.8539526,135.494863 25.3075057,134.441353 C25.0761273,133.993365 25.6914954,131.89619 25.7998002,131.334974 C25.9507705,130.409461 26.1148687,129.485588 26.2920947,128.563356 C27.434218,122.089683 28.783105,115.655394 30.1418379,109.226027 C33.0611444,95.4417808 36.0493721,81.588613 37.2505708,67.5089897 C37.8462471,60.4445634 37.4524115,53.3161387 38.1810074,46.2664812 C38.5206906,42.9927226 38.9243721,35.6870719 43.2811787,35.3966182 C46.9733876,35.1504709 50.7739013,35.3966182 54.4759561,35.3966182 C54.8837862,35.3966182 55.2143978,35.0660065 55.2143978,34.6581764 C55.2143978,34.2503462 54.8837862,33.9197346 54.4759561,33.9197346 C50.980665,33.9197346 47.4804509,33.8261986 43.9851598,33.8951199 C41.6615297,33.9394264 40.0468037,34.4907962 38.939141,36.6273545 C36.1084475,42.1115154 36.3989013,49.427012 36.3102882,55.4133134 C36.0986016,69.7440068 33.8980451,83.7694777 31.032891,97.7851027 C29.590468,104.839683 28.0348174,111.869649 26.6022403,118.929152 C25.9277968,122.30137 25.282891,125.683433 24.6921376,129.075342 C24.4164526,130.690068 23.0232591,134.249358 24.2490725,135.731164 C25.4748858,137.212971 29.2458619,136.415454 30.9344321,136.4253 L42.6805793,136.494221 L65.1882848,136.622217 C79.730665,136.705908 94.3222745,137.114512 108.859732,136.686216 C115.801084,136.479452 123.136273,136.193921 129.895477,134.534889 C131.908961,134.042594 132.878781,133.11708 132.957549,130.970676 C133.075699,127.642765 132.534175,124.211473 132.465254,120.868793 C131.972959,92.2664812 138.69278,64.0629281 138.003567,35.4507705 C137.959261,33.5062072 138.69278,28.6029538 136.566067,27.4263699 C135.611016,26.8946918 134.370434,27.1851455 133.366153,27.3032962 C131.446204,27.5248288 129.531179,27.7955908 127.61123,28.0220462 L102.676513,31.1333476 C94.7062643,32.1179366 86.7409389,33.1812928 78.7559218,34.0871147 C70.3032249,35.0717038 61.7668379,35.6575342 53.3436787,34.0871147 C52.413242,33.9148116 52.0144834,35.3375428 52.949843,35.5098459 L52.9350742,35.5689212 Z" id="Shape" fill="#6C63FF"></path>
                                <path d="M37.2604167,52.9715325 L135.630708,48.1470462 C136.580836,48.0978168 136.585759,46.6209332 135.630708,46.6701627 L37.2604167,51.494649 C36.3152112,51.5389555 36.3102882,53.015839 37.2604167,52.9715325 Z" id="Shape" fill="#6C63FF"></path>
                                <path d="M67.5660674,40.797089 C67.007521,41.3890222 66.777668,42.2187759 66.9520268,43.0137337 C67.1263856,43.8086915 67.6824141,44.4660771 68.4374287,44.7699058 C69.7617009,45.3754281 71.3173516,44.8683647 72.631778,44.5385274 C74.6009561,44.0462329 76.5701341,43.6080908 78.5934646,43.2487158 C82.9971976,42.4690978 87.4577494,42.0541627 91.9297232,42.0081336 C93.9678225,41.9835188 95.991153,42.0770548 98.0292523,42.1656678 C99.5061358,42.2247432 101.096247,42.3428938 102.346675,41.427226 C103.774329,40.3835616 104.237086,38.3454623 102.83897,37.0753425 C100.869792,35.2784675 96.6262129,36.3221318 94.3518122,36.5092038 C86.0989084,37.1947979 77.8995478,38.4182885 69.8060074,40.171875 C68.8804937,40.3687928 69.2694064,41.7964469 70.199843,41.5946062 C75.5395976,40.442637 80.9203767,39.5171233 86.3421804,38.8180651 C89.0071347,38.4898687 91.677012,38.2125428 94.3518122,37.9860873 C95.6120862,37.8827055 96.8723602,37.7891695 98.1326341,37.7153253 C98.6249287,37.6857877 99.1467608,37.6316353 99.6489013,37.6464041 C101.209475,37.6808647 101.391624,37.4002568 100.456264,39.2857449 C99.6242865,40.9546233 99.8901256,40.7626284 98.4477026,40.708476 C97.8372574,40.708476 97.2268122,40.6395548 96.616367,40.6100171 C95.3659389,40.5575057 94.1155108,40.529609 92.8650828,40.5263271 C90.2034104,40.5263271 87.5483019,40.6543236 84.8997574,40.9103168 C82.6548944,41.1269264 80.4149543,41.432149 78.1947061,41.8259846 C76.8064355,42.0721318 75.4280108,42.3576627 74.0545091,42.6727312 C73.4489869,42.8154966 72.8385417,42.9631849 72.2330194,43.1157962 C71.9425656,43.1945634 71.6471889,43.2634846 71.3567352,43.3373288 C70.2802511,43.7114726 69.3629424,43.2191781 68.6048088,41.8604452 C69.2644834,41.1761558 68.225742,40.1275685 67.5611444,40.8167808 L67.5660674,40.797089 Z" id="Shape" fill="#6C63FF"></path>
                                <path d="M85.3969749,61.8082192 C78.2734732,61.5325342 70.5789098,63.4574058 65.887343,69.192637 C62.2148259,73.6774401 60.1225742,81.3720034 64.0117009,86.4229452 C68.1912814,91.8381849 77.3578054,90.8831336 82.8862728,88.5742723 C88.7347317,86.1127997 95.1345605,81.0372432 96.8920519,74.6866438 C99.0827626,66.7557791 91.9691067,60.7596318 84.5600742,60.6710188 C83.6099458,60.6710188 83.6099458,62.1479024 84.5600742,62.1479024 C88.7839612,62.1971318 92.9290811,64.0087757 94.8982591,67.9422089 C96.9609732,72.0873288 95.18379,76.4392123 92.4367865,79.7572774 C88.0356735,85.0395976 81.1533961,89.0222603 74.1431221,88.9090325 C69.934004,88.8450342 65.2818208,87.4026113 63.9772403,82.9621147 C62.9040382,79.3634418 63.7212471,75.4300086 65.5919663,72.2399401 C69.6386273,65.3478168 77.8747146,63.0143408 85.4265126,63.3097175 C86.376641,63.3441781 86.376641,61.8672945 85.4265126,61.8328339 L85.3969749,61.8082192 Z" id="Shape" fill="#6C63FF"></path>
                                <path d="M78.3227026,72.7470034 C77.7053839,72.5182543 77.0139087,72.6217459 76.490613,73.0212083 C75.9673172,73.4206707 75.6851799,74.0603947 75.7430793,74.7161815 C75.8907677,76.6361301 78.0076341,77.1776541 79.5977454,77.0644264 C80.9712471,76.9462757 82.5761273,76.4392123 82.0936787,74.7211045 C81.9140518,74.1057752 81.4756008,73.5990408 80.89248,73.3328339 C80.4519591,73.1580666 79.9740884,73.0987564 79.5042095,73.1605308 C79.3220605,73.1605308 77.6531821,73.770976 78.3620862,73.0374572 L77.2002711,72.8848459 C77.461437,73.1424248 77.5917823,73.504495 77.5547232,73.8694349 C77.5592512,74.1311857 77.7011281,74.3712587 77.9282389,74.5014689 C78.1553496,74.631679 78.4342094,74.6328284 78.6623858,74.5044949 C79.0069023,74.360284 79.4033538,74.423416 79.6860365,74.6675037 C79.9687193,74.9115914 80.0889608,75.2946076 79.996504,75.656464 C79.9146388,76.0085295 80.0978868,76.3684534 80.4307444,76.5093712 C80.763602,76.650289 81.1495797,76.5313512 81.345391,76.2275257 C81.8376855,75.3413955 82.4333619,73.5789812 81.6949201,72.6534675 C81.2026256,72.0282534 80.2524971,72.2153253 79.6617437,72.5796233 C79.2971302,72.8376398 78.9575927,73.1293783 78.647617,73.4509846 C78.0519406,73.9777397 77.663028,74.223887 77.8845605,73.2146832 C78.2537814,71.3784247 80.0063499,69.9163099 81.6063071,69.1827911 L80.5232591,68.3508134 C79.9554489,70.4846064 78.9401822,72.4731866 77.5448773,74.1845034 L78.8051513,74.7063356 C78.731899,73.3213954 79.5353838,72.0393645 80.8137129,71.5014983 L80.09004,71.5014983 L80.4740297,72.1316353 C80.3312643,73.0620719 81.7539954,73.4608305 81.8967608,72.5205479 C82.0838328,71.3045805 81.3158533,69.7243151 79.8931221,70.3199914 C78.1947061,71.0288955 77.3134989,72.9734589 77.3479595,74.7063356 C77.3479595,75.297089 78.1848602,75.7549229 78.6131564,75.2330908 C80.1787776,73.331056 81.3216083,71.1175559 81.9656821,68.739726 C82.03561,68.4514592 81.9286602,68.1491 81.6930321,67.9689139 C81.457404,67.7887277 81.1375858,67.7647348 80.8777112,67.9077483 C79.4029772,68.5743614 78.1566958,69.6597219 77.2938071,71.0288955 C76.6932078,72.0134846 75.9399971,73.5494435 76.5504424,74.6817209 C76.7525473,75.0476374 77.0926013,75.317527 77.4948508,75.4312665 C77.8971002,75.545006 78.3281313,75.4931474 78.6919235,75.2872432 C79.1470813,75.0173645 79.5628785,74.6860519 79.9275828,74.3026541 C80.1097317,74.1401969 80.3115725,73.859589 80.5527968,73.8103596 C80.7694064,73.6626712 80.7595605,73.7463613 80.5183362,74.0712757 C80.5151383,74.5814162 80.3665662,75.080072 80.09004,75.5087757 L81.4389269,76.0749144 C81.6872142,75.1358808 81.3600725,74.1386426 80.6037959,73.5291539 C79.8475194,72.9196652 78.8035396,72.8119067 77.9387129,73.2540668 L79.0512985,73.8940497 C79.0745859,73.2675816 78.8777659,72.6527368 78.4950057,72.15625 C78.3773288,71.9623243 78.1780368,71.8322468 77.953148,71.8025807 C77.7282593,71.7729145 77.5020533,71.8468624 77.3381136,72.0036387 C76.5898259,72.786387 76.4470605,74.1401969 77.387343,74.8638699 C78.0913242,75.4004709 78.4359304,74.8638699 79.2088328,74.7407962 C81.8327626,74.401113 80.3017266,75.5826199 79.3762129,75.6220034 C78.9623377,75.666382 78.5438612,75.6363717 78.1405537,75.5333904 C77.1132991,75.1855023 77.0493008,74.7375143 77.9485588,74.1894264 C78.829766,74.5488014 79.2088328,73.1211473 78.3423944,72.7666952 L78.3227026,72.7470034 Z" id="Shape" fill="#6C63FF"></path>
                                <path d="M77.1362728,75.4447774 C77.7417951,77.4139555 75.2409389,78.0637842 74.0545091,78.7431507 C73.2219342,79.2100627 72.4959231,79.8455319 71.9228739,80.6089469 C70.6822917,82.2729024 70.2195348,84.3897688 69.8109304,86.3835616 C69.6238584,87.3139983 71.0465896,87.7078339 71.2385845,86.7773973 C71.4638027,85.3123278 71.882634,83.883666 72.4840896,82.5288955 C73.3702197,80.7664812 74.6403396,80.1757277 76.2944492,79.2699058 C77.9485588,78.3640839 79.1448345,76.9610445 78.559004,75.0509418 C78.2833191,74.1451199 76.855665,74.5340325 77.1362728,75.4447774 L77.1362728,75.4447774 Z" id="Shape" fill="#6C63FF"></path>
                                <path d="M79.5977454,74.4552654 C78.8678445,74.5561886 78.3346564,75.1960144 78.3670091,75.932149 C78.3670091,76.5179795 78.7559218,76.8921233 79.0217608,77.3598031 C79.6527946,78.3166653 80.1342136,79.3641665 80.449415,80.4661815 C80.6857163,81.5246147 80.9170947,83.4199486 80.3657249,84.4045377 C79.3466752,86.2309503 77.5054937,85.8814212 75.9350742,85.8814212 C74.4581906,85.8814212 73.3160674,86.3737158 73.3652968,84.3159247 C73.3948345,83.1590325 74.2021975,81.9873716 74.8421804,81.0766267 L73.4932934,80.8994007 C73.7778425,82.4026108 73.9277657,83.9282028 73.9412814,85.4580479 C73.9412814,86.1423373 74.9898687,86.5214041 75.3147831,85.8272688 C76.1062298,84.1623602 76.7343827,82.4246352 77.1904252,80.6384846 L75.7381564,80.4415668 L75.9941495,84.1830051 C76.0028821,84.5108565 76.2254386,84.7942447 76.541876,84.8804428 C76.8583135,84.9666408 77.1938489,84.8352776 77.3676513,84.557149 C77.5400738,84.3668704 77.666406,84.1394724 77.7368721,83.8925514 C77.7861016,83.6611729 77.3331906,82.1005993 77.1510417,82.6568921 L78.5983876,82.8538099 L78.7017694,79.2994435 L77.2248858,79.4963613 C77.5370687,80.4986577 77.6310699,81.5561708 77.5005708,82.5978168 C77.4070348,83.4199486 78.7903824,83.6070205 78.9774543,82.7947346 L79.902968,78.0194777 L78.5540811,78.1917808 C78.8745667,78.8522747 78.96302,79.6015268 78.8051513,80.3184932 C78.6968465,81.2636986 80.17373,81.2538527 80.2820348,80.3184932 C80.4074736,79.3381909 80.2503417,78.3424535 79.8291239,77.4484161 C79.6762075,77.1965925 79.3890006,77.0588401 79.0968951,77.0972189 C78.8047896,77.1355977 78.5629137,77.3428647 78.4802369,77.6256421 L77.5498002,82.400899 L79.0020691,82.5978168 C79.1497584,81.4242558 79.0371449,80.232569 78.6722317,79.1074486 C78.5703035,78.7571073 78.2277825,78.5337277 77.8660834,78.5817082 C77.5043842,78.6296887 77.2319485,78.9346442 77.2248858,79.2994435 L77.121504,82.8538099 C77.121504,83.7153253 78.3177797,83.838399 78.5737728,83.0507277 L78.65254,82.8095034 C78.7218694,82.553697 78.6507116,82.2803011 78.465468,82.0907534 C76.9344321,80.4267979 76.6242865,83.0753425 76.0926084,83.8088613 L77.4710331,84.1830051 L77.21504,80.4415668 C77.1608876,79.6440497 75.9793807,79.3979024 75.7627711,80.244649 C75.3467018,81.9097882 74.7696408,83.5305054 74.0397403,85.0839041 L75.418165,85.4580479 C75.4022794,83.7958321 75.2375228,82.1383807 74.9258704,80.5055651 C74.7978739,79.8261986 73.9068208,79.8557363 73.5769834,80.328339 C72.5923944,81.7461473 70.8890554,84.8426798 72.2034817,86.5410959 C73.350528,88.0179795 76.9590468,87.4469178 78.4999287,87.3533818 C80.9318636,87.2155394 81.8130708,85.6746575 82.0789098,83.3805651 C82.2055525,82.2820043 82.1439535,81.169892 81.8967608,80.0920377 C81.7638413,79.5111301 80.4198773,75.8287671 80.0161958,75.9026113 C80.9515554,75.7303082 80.5527968,74.3026541 79.6223602,74.4749572 L79.5977454,74.4552654 Z" id="Shape" fill="#6C63FF"></path>
                                <path d="M76.7375143,77.7733305 L72.7056221,83.0950342 L73.980665,83.838399 L76.9344321,79.5652825 L75.5855451,78.9942209 L74.1135845,84.6113014 C74.0317193,84.9633668 74.2149673,85.3232907 74.5478248,85.4642085 C74.8806824,85.6051263 75.2666601,85.4861885 75.4624715,85.182363 C76.1322795,84.072497 76.8843136,83.0143833 77.7122574,82.0169092 L76.4815211,81.2981592 C76.1509899,82.5699512 75.5137449,83.7413325 74.6255708,84.7097603 L75.86123,85.4285103 C75.9368577,84.7482547 76.1178909,84.0839126 76.3978311,83.4593322 C76.7768978,82.6076627 75.5756992,81.8544521 75.1227882,82.7110445 C74.7062589,83.491256 74.2306262,84.2384437 73.7000571,84.9460616 L75.0489441,85.1232877 L75.3492437,83.7202483 L74.0003567,83.5430223 L74.2169663,84.7737586 C74.2892998,85.0256701 74.4889452,85.2208755 74.7424195,85.2875261 C74.9958939,85.3541767 75.2657358,85.2824222 75.4526256,85.0986729 C76.7012281,83.8065878 77.7023664,82.2965376 78.4063927,80.6434075 L77.1362728,80.6434075 C77.4701856,81.2590268 77.7044675,81.9236562 77.8304081,82.6125856 C78.0076341,83.4987158 79.184218,83.1688784 79.277754,82.4156678 C79.4892106,80.766632 79.5977256,79.1060239 79.6026684,77.4434932 L78.1257848,77.4434932 L78.1257848,80.5400257 C78.1257848,81.3424658 79.4402112,81.5787671 79.5780537,80.7369435 C79.6755539,79.9900889 79.9216151,79.270318 80.3017266,78.6200771 L79.006992,78.6200771 C79.3190248,79.1234094 79.4891278,79.7017596 79.4992865,80.2938784 C79.4992865,80.7017086 79.8298982,81.0323202 80.2377283,81.0323202 C80.6455584,81.0323202 80.9761701,80.7017086 80.9761701,80.2938784 L81.163242,79.3092894 L79.7405108,79.3092894 C79.8832763,80.1806507 80.4248002,85.0888271 78.4999287,84.5128425 C78.1750143,84.4340753 78.0814783,84.4537671 78.2193208,84.5669949 L78.6574629,83.6316353 L79.6863584,81.4507705 L78.3079338,81.0766267 C78.3965468,82.0907534 78.4900828,83.5380993 77.8796376,84.4045377 C77.387343,85.1085188 75.8710759,85.3891267 75.0981735,84.9755993 C74.5879324,84.6118432 74.1518295,84.1540187 73.8132848,83.6267123 L72.8040811,84.6113014 C73.62129,85.2069777 74.9455622,86.6690925 75.9990725,86.7527825 C76.8015126,86.8167808 77.4759561,86.1521832 78.0027112,85.6205051 C79.6355253,83.9331712 80.5055616,81.650438 80.4100314,79.3043664 C80.4100314,78.8965363 80.0794197,78.5659247 79.6715896,78.5659247 C79.2637595,78.5659247 78.9331478,78.8965363 78.9331478,79.3043664 L78.9331478,80.9880137 C78.9331478,81.3958438 79.2637595,81.7264555 79.6715896,81.7264555 C80.0794197,81.7264555 80.4100314,81.3958438 80.4100314,80.9880137 L80.4100314,76.8576627 C80.4100314,76.4498325 80.0794197,76.1192209 79.6715896,76.1192209 C79.2637595,76.1192209 78.9331478,76.4498325 78.9331478,76.8576627 C78.9304678,77.8476736 78.8448372,78.8357191 78.6771547,79.8114298 L80.1294235,80.0083476 C80.0137911,78.832107 79.9595651,77.6506375 79.9669663,76.46875 C79.962197,76.1030803 79.6905008,75.7959808 79.3281385,75.7466798 C78.9657761,75.6973788 78.62191,75.9207283 78.5196204,76.2718322 C78.2980879,77.2121147 78.0273259,78.1376284 77.7664098,79.0582192 L79.1152968,78.8809932 L79.011915,78.4871575 C78.9429937,77.546875 77.4661102,77.5419521 77.5350314,78.4871575 C77.5512414,78.8857246 77.6554756,79.2757622 77.840254,79.6292808 C78.1257848,80.2298801 79.0168379,80.0181935 79.189141,79.4520548 C79.4697489,78.5265411 79.7208191,77.6010274 79.9423516,76.6656678 L78.4900828,76.46875 C78.4826815,77.6506375 78.5369075,78.832107 78.65254,80.0083476 C78.7263841,80.7664812 79.9472745,81.0913955 80.0998858,80.2052654 C80.296523,79.0933841 80.400263,77.9670638 80.4100314,76.8379709 L78.9331478,76.8379709 L78.9331478,80.9683219 L80.4100314,80.9683219 L80.4100314,79.2846747 L78.9331478,79.2846747 C79.0199989,81.1418167 78.374823,82.9589151 77.1362728,84.3454623 C76.9444308,84.5635702 76.737131,84.7675796 76.5159817,84.9559075 C76.1664526,85.2906678 75.8464612,85.2414384 75.5658533,84.8032962 C74.8667951,84.5128425 74.1431221,83.7645548 73.5326769,83.3264127 C72.9222317,82.8882705 72.0853311,83.7547089 72.5185502,84.3356164 C73.6508276,85.8420377 75.3393978,87.520762 77.4414954,86.797089 C79.6518978,86.0143408 79.9521975,83.0211901 79.7848174,81.052012 C79.730665,80.3972603 78.7509989,79.9541952 78.4113156,80.6827911 C77.9190211,81.7215325 77.4267266,82.755351 76.9344321,83.7990154 C76.762129,84.1633134 76.4421376,84.6654538 76.491367,85.0986729 C76.6538242,86.2063356 77.9977882,86.0241866 78.824843,85.9601884 C82.0296804,85.718964 81.522617,81.1750856 81.1533961,78.890839 C81.0303225,78.1327055 79.9275828,78.2508562 79.730665,78.890839 C79.5742327,79.3405226 79.4927394,79.812851 79.4894406,80.2889555 L80.9663242,80.2889555 C80.912809,79.4424579 80.6759649,78.6177029 80.2721889,77.8717894 C80.1378666,77.6477975 79.8958473,77.5107303 79.6346675,77.5107303 C79.3734878,77.5107303 79.1314685,77.6477975 78.9971461,77.8717894 C78.5569167,78.6317584 78.2599019,79.4660695 78.1208619,80.333262 L79.5977454,80.5301798 L79.5977454,77.4336473 C79.5977454,77.0258171 79.2671338,76.6952055 78.8593037,76.6952055 C78.4514735,76.6952055 78.1208619,77.0258171 78.1208619,77.4336473 C78.1159191,79.096178 78.0074041,80.7567861 77.7959475,82.4058219 L79.2482163,82.2089041 C79.0811251,81.404078 78.7975319,80.6279282 78.4063927,79.9049658 C78.2720704,79.6809738 78.0300511,79.5439066 77.7688713,79.5439066 C77.5076915,79.5439066 77.2656722,79.6809738 77.1313499,79.9049658 C76.4893344,81.4467589 75.5661753,82.8557034 74.4089612,84.0599315 L75.6446204,84.3848459 L75.4280108,83.1541096 C75.3147831,82.4993579 74.3892694,82.4796661 74.0791239,82.9768836 C73.5845657,83.7250977 73.4223576,84.6448711 73.6311358,85.5171233 C73.7542095,86.2161815 74.6403396,86.1423373 74.9800228,85.6943493 C75.5105533,84.9884303 75.9861904,84.2428815 76.402754,83.4642551 L75.1277112,82.7159675 C74.7872876,83.4515623 74.5551428,84.2325636 74.4384989,85.0346747 C74.3498858,85.6845034 75.1227882,86.3638699 75.6741581,85.7534247 C76.7324794,84.5953875 77.4987631,83.2012238 77.9091752,81.6870719 C78.0913242,81.0175514 77.1658105,80.3824914 76.673516,80.9683219 C75.7678227,82.0536988 74.9450129,83.2056325 74.2120434,84.4143836 L75.5609304,84.9854452 L77.0624287,79.3880565 C77.1442938,79.035991 76.9610459,78.6760672 76.6281883,78.5351494 C76.2953307,78.3942315 75.909353,78.5131694 75.7135417,78.8169949 L72.7597745,83.0950342 C72.2084047,83.8876284 73.4736016,84.5719178 74.0348174,83.838399 L78.0519406,78.5216182 C78.6230023,77.7634846 77.3430365,77.0447346 76.7768978,77.7733305 L76.7375143,77.7733305 Z" id="Shape" fill="#6C63FF"></path>
                                <path d="M139.544449,95.5402397 C145.451983,91.9267979 150.148473,86.5361729 155.366795,82.0267551 C161.028182,77.1382705 166.970177,72.5845462 173.089398,68.2720462 C184.973388,59.9030394 197.453054,52.4152397 209.922874,44.9471318 C210.258736,44.7346629 210.3662,44.2944864 210.166032,43.9511514 C209.965864,43.6078163 209.529867,43.4844839 209.179509,43.672089 C196.709689,51.1401969 184.2251,58.6132277 172.34111,66.9970034 C166.733876,70.9353596 161.259561,75.1100171 156.011701,79.5406678 C150.301084,84.3651541 145.215682,90.3711473 138.781393,94.2651969 C137.969107,94.7574914 138.712471,96.0374572 139.524757,95.5402397 L139.544449,95.5402397 Z" id="Shape" fill="#6C63FF"></path>
                                <path d="M228.989441,22.0160531 C222.589612,22.6658818 215.697489,24.2953767 211.759132,29.8927654 C208.357377,34.7074058 208.431221,43.1059503 211.626213,48.0485873 C215.254424,53.6656678 222.668379,53.8675086 228.428225,52.0509418 C234.188071,50.234375 240.149757,47.0492295 240.095605,40.1669521 C240.066067,36.4747432 238.731949,32.6299229 237.259989,29.2823202 C235.989869,26.3925514 233.740083,23.8670805 230.333405,24.1870719 C229.393122,24.2756849 229.383276,25.7525685 230.333405,25.6639555 C234.896975,25.2405822 236.364013,30.6607449 237.447061,34.0821918 C238.43165,37.2771832 239.342394,41.0580051 237.79659,44.2333048 C236.250785,47.4086045 232.524115,49.0282534 229.33897,50.1900685 C225.892908,51.4404966 222.107163,52.2035531 218.50849,51.1746575 C211.380066,49.1808647 209.410888,40.1472603 211.463756,33.7375856 C213.826769,26.3531678 222.195776,24.182149 229.014055,23.4929366 C229.949415,23.3994007 229.959261,21.9225171 229.014055,22.0160531 L228.989441,22.0160531 Z" id="Shape" fill="#6C63FF"></path>
                                <path d="M238.835331,79.1222175 C232.435502,79.7720462 225.543379,81.4015411 221.605023,86.9989298 C218.203268,91.8135702 218.277112,100.212115 221.472103,105.154752 C225.100314,110.771832 232.514269,110.973673 238.274115,109.157106 C244.033961,107.340539 249.995648,104.155394 249.941495,97.2731164 C249.911958,93.5809075 248.57784,89.7360873 247.105879,86.3884846 C245.835759,83.4987158 243.585973,80.9732449 240.179295,81.2932363 C239.239013,81.3818493 239.229167,82.8587329 240.179295,82.7701199 C244.742865,82.3467466 246.209903,87.7669092 247.292951,91.1883562 C248.27754,94.3833476 249.188285,98.1641695 247.64248,101.339469 C246.096675,104.514769 242.370006,106.134418 239.18486,107.296233 C235.738799,108.546661 231.953054,109.309717 228.354381,108.280822 C221.225956,106.287029 219.256778,97.2534247 221.309646,90.84375 C223.67266,83.4593322 232.041667,81.2883134 238.859946,80.599101 C239.795305,80.5055651 239.805151,79.0286815 238.859946,79.1222175 L238.835331,79.1222175 Z" id="Shape" fill="#6C63FF"></path>
                                <path d="M219.335545,36.395976 L223.997574,41.7127568 C224.185291,41.8939174 224.454235,41.9634185 224.706219,41.8958866 C224.958204,41.8283547 225.156347,41.6336744 225.228311,41.3829195 C226.2129,38.7934503 226.025828,36.1104452 226.257206,33.3880565 C226.512331,30.5742867 227.218787,27.8199395 228.349458,25.2307363 C230.620744,19.9791017 234.471677,15.5654985 239.367009,12.6033818 C240.179295,12.1110873 239.43593,10.8311216 238.623644,11.328339 C233.796744,14.2349136 229.924486,18.4887514 227.483019,23.5667808 C226.28788,26.0378249 225.458701,28.6696402 225.021547,31.3794949 C224.529252,34.5744863 224.97724,37.922089 223.795733,40.9890839 L225.031393,40.6592466 L220.393978,35.3523116 C219.763841,34.6384846 218.7251,35.6870719 219.350314,36.395976 L219.335545,36.395976 Z" id="Shape" fill="#6C63FF"></path>
                                <path d="M141.922232,101.295163 C167.314783,100.520619 192.713898,100.356521 218.119578,100.802868 C219.069706,100.802868 219.069706,99.3259846 218.119578,99.3259846 C192.720462,98.8730736 167.321347,99.0371718 141.922232,99.8182791 C140.972103,99.8478168 140.96718,101.3247 141.922232,101.295163 Z" id="Shape" fill="#6C63FF"></path>
                                <path d="M223.426513,86.7330908 C232.106922,90.1399588 240.45672,94.3354559 248.371076,99.2669092 C249.178439,99.7592038 249.921804,98.4940068 249.114441,97.9918664 C241.09583,92.9995185 232.635466,88.7545054 223.84004,85.3103596 C222.958833,84.9608305 222.574843,86.3884846 223.451127,86.7330908 L223.426513,86.7330908 Z" id="Shape" fill="#6C63FF"></path>
                                <path d="M239.189783,80.0428082 C230.387341,90.3043713 225.288339,103.226121 224.711401,116.733519 C224.672018,117.683647 226.148901,117.683647 226.188285,116.733519 C226.747518,103.613928 231.693249,91.0615121 240.233447,81.0864726 C240.848816,80.3677226 239.810074,79.3191353 239.189783,80.0428082 Z" id="Shape" fill="#6C63FF"></path>
                                <path d="M42.2965896,95.9340753 L97.3203482,95.2153253 L103.646333,95.1316353 C104.783533,95.1316353 105.920733,95.0922517 107.057934,95.0873288 C108.657891,95.0873288 109.736016,96.416524 109.706478,98.0410959 C109.632634,101.487158 107.466538,101.364084 104.630922,101.487158 L97.7929509,101.797303 L69.9487728,103.023116 C64.9618293,103.244649 59.9699629,103.515411 54.9830194,103.687714 C50.4834475,103.825557 41.9273687,102.358519 43.9260845,95.8110017 C44.2017694,94.9002568 42.7790382,94.5113442 42.4984304,95.4171661 C41.5138413,98.6367723 43.2565639,101.905608 46.0626427,103.594178 C50.0453054,105.986729 55.293165,105.174443 59.689355,104.977526 L93.8742865,103.426798 L102.174372,103.057577 C104.301084,102.959118 107.259775,103.392337 109.214184,102.402825 C111.508276,101.245933 111.911958,96.6528253 110.464612,94.7181079 C109.721247,93.7335188 108.677583,93.6449058 107.510845,93.6005993 C104.448773,93.4824486 101.332549,93.6842894 98.2655537,93.7236729 L81.2223174,93.9501284 L42.2768978,94.4424229 C41.3267694,94.4424229 41.3267694,95.9193065 42.2768978,95.9193065 L42.2965896,95.9340753 Z" id="Shape" fill="#6C63FF"></path>
                            </g>
                            <g id="teacher" transform="translate(296.552083, 73.567708)">
                                <g id="Group-2">
                                    <ellipse id="Oval" fill="#FBBEBE" transform="translate(29.233853, 23.431811) rotate(-11.580000) translate(-29.233853, -23.431811) " cx="29.2338526" cy="23.4318106" rx="3.63517513" ry="10.2932175"></ellipse>
                                    <path d="M61.3339123,240.682109 C60.8053939,242.280555 61.3339123,244.278612 62.7647791,245.148734 C63.3444509,245.457699 63.9684367,245.675115 64.6145934,245.793269 C65.4890224,246.040267 66.3936644,246.163923 67.3023026,246.160653 C68.4173475,246.109091 69.4872749,245.670807 70.6023198,245.516119 C70.7309912,245.483739 70.8671921,245.502207 70.9825952,245.567682 C71.095682,245.688877 71.1478157,245.854757 71.1243928,246.018856 C71.136365,246.652646 71.1837045,247.285274 71.2661904,247.913787 C71.2680805,248.19344 71.3901773,248.458766 71.6013484,248.642112 C71.7622428,248.717188 71.9401479,248.748321 72.1169761,248.732346 L75.6103536,248.732346 C75.6894844,245.663304 75.3534329,242.597647 74.611325,239.618627 C74.5629031,239.390612 74.4756988,239.172601 74.3535111,238.974093 C74.0571035,238.649508 73.6676714,238.424403 73.2384663,238.329558 C72.3843394,237.974246 71.4618289,237.813522 70.5378663,237.859048 C69.4099308,238.007291 68.4689103,238.735615 67.5085537,239.341477 C66.5481972,239.94734 65.2397919,240.482304 64.0731843,240.172927 C62.9065767,239.86355 61.9333295,238.890303 61.3339123,240.682109 Z" id="Shape" fill="#3F3D56"></path>
                                    <path d="M10.041849,237.852602 C9.05971749,238.904231 7.85522967,239.723371 6.51624478,240.250271 L5.92327295,240.533866 C5.84122949,240.564962 5.77123784,240.621406 5.72346722,240.695 C5.70053321,240.796454 5.72417634,240.902848 5.78792068,240.985041 C6.80172589,242.553182 8.734407,243.256214 10.5188046,242.705948 C10.9025746,242.609874 11.2581633,242.42435 11.5565053,242.164539 C12.0478216,241.581767 12.329265,240.850922 12.3557282,240.089137 C12.5508373,239.303349 12.5172932,238.478165 12.259048,237.710805 C11.3631449,235.693412 11.0344323,236.608651 10.041849,237.852602 Z" id="Shape" fill="#FBBEBE"></path>
                                    <path d="M23.435278,245.793269 C23.4551133,246.03703 23.4175878,246.28205 23.3257071,246.508702 C23.0227758,247.101674 22.1784355,247.069447 21.5210102,246.94054 C21.4213932,244.753711 21.1563768,242.577561 20.7282326,240.430741 C19.4778355,240.372733 18.5754871,241.558676 17.9051711,242.622158 L16.1778184,245.36143 C15.9279866,245.833094 15.5755941,246.242751 15.146563,246.560265 C14.8011912,246.749164 14.4225673,246.869536 14.0315182,246.914759 C10.731501,247.462613 7.39925718,246.424913 4.21525627,245.393657 C3.74623066,245.267803 3.29714068,245.076885 2.88106965,244.826467 C1.7002663,243.959482 1.41564229,242.314355 2.23653505,241.101057 C3.57072167,239.29636 6.56780755,239.811988 8.23070681,238.316667 C8.05716283,239.368797 7.77195625,240.39943 7.37992114,241.391097 C9.6035655,241.055939 11.0988858,239.01921 12.8906919,237.659242 C13.3408771,237.277348 13.8829806,237.019627 14.4633564,236.911582 C14.8977357,236.875122 15.3350929,236.921045 15.7524256,237.046934 C17.8185707,237.567213 19.7514368,238.518271 21.42433,239.837769 C22.1010913,240.372733 23.1581281,241.126838 23.454614,241.951842 C23.7704359,242.93798 23.435278,244.742677 23.435278,245.793269 Z" id="Shape" fill="#3F3D56"></path>
                                    <circle id="Oval" fill="#FBBEBE" cx="67.7728129" cy="19.8194389" r="13.3160848"></circle>
                                    <path d="M94.005371,98.439769 C93.9516306,100.985513 93.5902158,103.515417 92.9289982,105.974378 C92.2985583,109.028339 91.4849753,112.041609 90.4926575,114.997863 C89.7256613,117.144163 88.7653047,119.296909 88.7717501,121.572116 C88.7717501,122.519582 88.9264384,123.570173 88.3463572,124.317833 C87.8297771,124.842671 87.178616,125.215082 86.4643162,125.394206 C85.7414896,125.585964 85.1528898,126.109962 84.8787611,126.805737 C84.2736258,125.901589 83.8207475,124.904386 83.5381292,123.853768 C82.3822638,120.313125 81.3080394,116.753145 80.3154562,113.17383 C80.1310868,112.755557 80.1648469,112.273269 80.405691,111.884761 C80.569261,111.742558 80.7600423,111.635107 80.9664361,111.568939 C81.6270423,111.299556 82.2322893,110.910625 82.7517969,110.421667 C82.9956135,110.205271 83.1967388,109.94512 83.3447688,109.654671 C83.5320829,109.192776 83.6178128,108.695982 83.5961373,108.198023 C83.5961373,106.490006 83.5961373,104.788435 83.5510198,103.080418 C83.5239986,101.503482 83.5842473,99.9262588 83.7314895,98.3559795 C83.7314895,98.0466029 83.7894976,97.5503113 83.8410604,97.0217929 C83.9377406,96.0098736 84.131101,94.8368206 84.6789554,94.4436545 C85.4975143,93.8958001 87.9467458,94.6305696 88.8748756,94.7594765 C90.4733214,94.9786183 92.0975486,95.2364321 93.6573223,95.5393634 C93.8839169,96.4896663 94.0006972,97.4628356 94.005371,98.439769 L94.005371,98.439769 Z" id="Shape" fill="#3F3D56"></path>
                                    <path d="M40.2382949,34.7275241 C39.7226672,35.7587795 38.4851608,36.2550711 37.5312496,36.906051 L34.2634592,39.1490314 C33.8222899,39.5465772 33.2379478,39.74679 32.6456774,39.7033312 C32.1084525,39.5049452 31.6739262,39.0983029 31.4403977,38.5753956 C31.4423684,38.5582645 31.4423684,38.540964 31.4403977,38.5238329 L30.7636363,37.389452 L27.5409633,31.9882521 C27.1826834,31.5045808 26.9742617,30.9263787 26.9415462,30.3253528 C26.9415462,30.0482029 27.0382264,29.7903891 27.0640077,29.5132392 C27.0727266,28.7348058 26.8482485,27.9715803 26.4194731,27.3218216 C26.1616593,26.8384206 25.6460316,26.4388092 25.6589223,25.8974001 C25.6342405,25.1859761 25.7571333,24.4771477 26.0198617,23.8155534 C26.3579989,23.2035256 26.843074,22.6852262 27.4313925,22.3073424 C27.7343237,22.0882006 28.0437003,21.8819496 28.3659676,21.6628078 C28.5370659,21.5459679 28.7266373,21.4588086 28.9267127,21.404994 C29.4616764,21.2954231 29.9901948,21.740152 30.5316039,21.759488 C32.8583738,23.3192617 33.7542769,26.2712302 35.5847551,28.3981944 C36.6160105,29.6099194 36.719136,30.5380492 37.8857436,31.6208673 C38.0726587,31.7884463 38.2531283,31.968916 38.4271527,32.1558311 C38.6577915,32.4073909 38.8529587,32.6892991 39.0072338,32.993726 C39.2199302,33.5480258 40.5025541,34.1990057 40.2382949,34.7275241 Z" id="Shape" fill="#3F3D56"></path>
                                    <path d="M63.0934917,33.141969 C64.0538483,35.172253 64.8015084,37.4023427 64.5243585,39.6324324 C64.4676196,40.2365609 64.275994,40.8202482 63.9636134,41.3404491 C63.0354836,42.7648705 61.0889891,43.0226844 59.3938631,43.1064739 C58.6724188,43.04586 57.9569385,43.2781588 57.4086966,43.7510085 C56.9429197,44.4279709 56.993261,45.3341141 57.5311582,45.9553168 C58.0759006,46.5367088 58.7522878,46.9787919 59.503434,47.244386 C62.1846979,48.4238843 65.0786583,49.3971315 67.9919547,49.126427 C69.3454773,48.9975201 70.6603279,48.604354 72.0074052,48.4045483 C73.4759326,48.245506 74.9518038,48.1637522 76.4289125,48.1596251 C78.1820466,48.0951716 79.9287354,47.9211473 81.6754242,47.747123 L86.3031826,47.2895034 C86.5561156,47.2931329 86.8015603,47.2036718 86.9928346,47.0381349 C87.3344379,46.6385235 86.8961544,46.051997 86.4707616,45.7490657 C84.0150848,43.9314781 80.889092,42.681081 79.4904519,39.9482543 C78.8459173,38.6591851 78.6461116,37.1251928 78.169156,35.7329981 C77.6922004,34.3408033 76.9316495,33.0839609 76.6351636,31.6659848 C76.4770769,30.4220591 76.4060053,29.1686162 76.4224672,27.9147934 C76.4386715,26.6504863 75.9784825,25.4263836 75.133398,24.4858693 C74.2117135,23.6286383 72.8775269,23.4094966 71.6271298,23.3579338 C68.5462544,23.2225815 65.2655733,23.957351 63.080601,26.1294326 C62.4940746,26.7159591 61.9913376,27.4185018 61.385475,27.9470201 C60.7796125,28.4755385 59.9546082,28.6302268 60.3542197,29.3263242 C60.7538311,30.0224215 61.5401633,30.4542597 61.9655562,31.0665676 C62.3961397,31.7272649 62.7733152,32.4212679 63.0934917,33.141969 L63.0934917,33.141969 Z" id="Shape" fill="#FBBEBE"></path>
                                    <path d="M89.3453859,51.8914804 C88.5326463,56.8545391 87.2108196,61.7206759 85.4008341,66.4128449 C84.4909389,68.5316959 83.7159508,70.7059682 83.0805096,72.9226443 C82.5842179,74.9207016 82.6808981,77.0605564 82.2232786,79.065059 C81.6560881,81.5594079 81.0888977,84.0602022 80.6312781,86.5738871 C79.8635272,90.4123695 79.556278,94.3287148 79.716039,98.2399633 C79.7174955,98.8559773 79.8355923,99.4661438 80.0640877,100.038215 C80.2767841,100.50228 80.6183874,100.901891 80.8181932,101.378847 C81.120355,102.225769 81.0549295,103.160419 80.6377235,103.956985 C80.3069879,104.694794 79.8585644,105.373959 79.3099822,105.967933 C73.3029197,107.759739 66.8769098,107.173213 60.6184789,107.553488 C54.8498942,107.901537 49.0168561,109.087481 43.332061,108.101343 C42.6875264,105.523204 43.7638992,102.822604 44.6855836,100.308919 C47.3604022,93.0063424 50.318816,85.4008341 49.8418604,77.7502085 C49.7918665,76.8578366 49.6907233,75.9690674 49.5389291,75.0882806 C48.604354,69.6677446 49.6227186,64.0538483 51.2533912,58.8008913 C52.2653105,55.5266556 52.2201931,52.0397234 51.9881606,48.6301354 C51.8733133,47.5229827 51.8582134,46.4077478 51.9430432,45.2978915 C52.0362834,44.1645881 52.4573091,43.0829103 53.1547682,42.1847894 C53.1547682,42.139672 53.2127763,42.0945545 53.2450031,42.0494371 C53.2772298,42.0043197 53.5285983,42.010765 53.728404,42.0494371 L53.728404,42.0494371 C53.8313826,42.0931349 53.9476928,42.0931349 54.0506713,42.0494371 L54.1215701,42.0043197 C54.17751,41.964491 54.2525453,41.964491 54.3084852,42.0043197 C54.4567281,42.0945545 54.5405176,42.4039312 54.8627849,42.4619393 C55.3389712,42.5339783 55.8188336,42.5791671 56.3000971,42.5972915 C56.8789515,42.6144905 57.4540432,42.6966464 58.0145591,42.8422147 L58.0919033,42.8422147 C58.9300891,42.9835992 59.7904283,42.910426 60.5926975,42.6295183 C61.1266092,42.4961424 61.6418852,42.29696 62.1266898,42.0365464 C62.2684874,41.8818581 63.1579452,41.7400605 63.3384149,41.6304896 C63.9249414,41.2759956 63.7960344,39.6130963 63.918496,38.9298897 C63.986207,38.2446786 64.1488995,37.5722162 64.401897,36.9318324 C64.9980301,35.9721299 66.0315777,35.370837 67.160505,35.3269413 C68.2703217,35.3005078 69.379558,35.3999715 70.4669675,35.6234272 C72.8710816,35.9650305 75.3332037,35.9070224 77.6922004,36.4613222 C78.878144,36.738472 80.1736586,37.1574195 81.262922,36.6160105 C81.5594079,36.6869093 81.6045254,36.9447231 81.6045254,37.2605451 C81.5767492,37.560583 81.5162327,37.8566818 81.4240557,38.1435575 C81.0115535,39.922473 82.4101936,41.5595908 83.6992628,42.84866 C84.2438949,43.4563196 84.8866061,43.9683099 85.6006399,44.3633163 C86.2451745,44.6598022 86.8897091,44.7822638 87.5342437,45.1045311 C88.0562563,45.3830791 88.4996108,45.7887485 88.8233128,46.2840294 C89.194862,46.8519175 89.4450185,47.4904747 89.5580823,48.1596251 C89.6964461,49.4067165 89.6245488,50.6681859 89.3453859,51.8914804 L89.3453859,51.8914804 Z" id="Shape" fill="#3F3D56"></path>
                                    <path d="M89.3453859,51.8914804 C88.5326463,56.8545391 87.2108196,61.7206759 85.4008341,66.4128449 C84.4909389,68.5316959 83.7159508,70.7059682 83.0805096,72.9226443 C82.5842179,74.9207016 82.6808981,77.0605564 82.2232786,79.065059 C81.6560881,81.5594079 81.0888977,84.0602022 80.6312781,86.5738871 C80.4959259,86.6512313 80.3541282,86.7221301 80.2123306,86.7865835 C79.4104327,87.169528 78.560597,87.4426895 77.685755,87.5986971 C76.1144382,87.7888113 74.5232508,87.7366413 72.9677618,87.4440088 L63.7702531,86.2129477 C60.0964058,85.7166561 56.1840808,85.1172389 53.4576995,82.6293354 C51.9430432,81.262922 50.9504599,79.4582251 49.8611964,77.7179817 C49.8112025,76.8256099 49.7100593,75.9368407 49.5582652,75.0560539 C48.62369,69.6355179 49.6420547,64.0216215 51.2727272,58.7686646 C52.2846465,55.4944288 52.2395291,52.0074967 52.0074967,48.5979086 C51.8926494,47.4907559 51.8775495,46.375521 51.9623792,45.2656648 C52.0556194,44.1323614 52.4766452,43.0506836 53.1741043,42.1525627 C53.3623598,42.0973593 53.553966,42.0543018 53.7477401,42.0236557 L53.7477401,42.0236557 C53.8774456,41.9973981 54.0088162,41.9801692 54.1409062,41.972093 L54.3278212,41.972093 C54.5449325,41.9728895 54.7612201,41.9988441 54.9723558,42.0494371 C55.4114758,42.1892475 55.8419207,42.3549688 56.261425,42.5457288 L56.3387691,42.5457288 C56.8913614,42.7277494 57.4717768,42.8106658 58.0532312,42.7906519 C58.9040168,42.7906519 59.7805839,42.6552996 60.6313696,42.5972915 C61.682345,42.433174 62.7580024,42.6260661 63.6864636,43.1451459 C64.2856755,43.6267169 64.853989,44.1455182 65.3880349,44.6984743 C66.0329572,45.2049947 66.7585224,45.5993709 67.5343351,45.8650819 C73.0824378,47.9828094 79.2377129,47.853322 84.6918461,45.5041426 C85.2157587,45.2062675 85.8101811,45.054879 86.4127535,45.065859 C86.8578505,45.1529884 87.2795442,45.3330868 87.6502599,45.5943774 C88.0369806,45.8199645 88.4172561,46.0391063 88.8104222,46.238912 C89.1819713,46.8068001 89.4321278,47.4453573 89.5451916,48.1145077 C89.6928999,49.3757311 89.6253374,50.6528807 89.3453859,51.8914804 L89.3453859,51.8914804 Z" id="Shape" fill="#000000" opacity="0.1"></path>
                                    <path d="M94.9592822,47.6246614 C92.3927281,46.8407282 89.9267266,45.7591486 87.6115878,44.4019884 C87.2398541,44.1425278 86.8185604,43.9626002 86.3740814,43.87347 C85.7699117,43.8662884 85.1743873,44.0173916 84.6467287,44.3117536 C79.1947609,46.6605494 73.0416195,46.7900405 67.495663,44.6726929 C66.7209672,44.4044454 65.9958062,44.0102889 65.3493628,43.5060853 C64.8136581,42.954838 64.2454525,42.4361351 63.6477915,41.9527569 C61.5272727,40.5798982 58.5946402,42.1912347 56.2227529,41.3082223 C55.802051,41.1203311 55.3717683,40.9546722 54.9336837,40.8119307 C53.058088,40.3414204 51.1502656,42.2105708 49.3068967,41.6433803 C48.6210581,43.5074982 48.1138935,45.4325654 47.7922404,47.3926289 C47.5300989,49.6435597 47.3902443,51.9070526 47.3732929,54.1731329 C47.3732929,55.5331009 47.3088394,56.8930689 47.3732929,58.2530369 C47.8325685,58.3281843 48.239338,58.5923507 48.4947831,58.981361 C48.6660723,59.435937 48.6283452,59.9428954 48.3916576,60.3671104 C47.0445803,63.8282612 45.6781669,67.328084 43.6349922,70.4282954 C45.0749671,71.2863118 46.411489,72.3070858 47.618216,73.4704987 C49.8740871,75.8552768 50.9826866,79.2004113 53.4190274,81.4047196 C56.1647448,83.8861778 60.0770698,84.4920404 63.731581,84.9818866 L72.9290897,86.2129477 C74.4867785,86.5044846 76.0795958,86.5588099 77.6535283,86.3740814 C78.5263227,86.214859 79.373887,85.9395632 80.1736586,85.5555224 C80.696117,85.337067 81.1727797,85.0222073 81.578744,84.6273926 C81.9186158,84.2415619 82.1988661,83.8070653 82.4101936,83.3383234 C83.1385177,81.8816752 83.8023883,80.3928003 84.4146962,78.8845894 C84.6273926,78.3496256 84.9496599,77.7244271 85.5297411,77.6793097 C88.9457744,74.5984343 92.1684474,71.4402148 95.5844808,68.3593394 C96.9572701,67.2216439 98.1885433,65.923289 99.2518826,64.4921318 C100.947009,61.9848922 99.4065709,58.4335066 99.2518826,55.404194 C99.2331733,54.6293698 99.1359968,53.8584357 98.9618421,53.1032055 C98.4075423,50.9053425 97.1055824,48.2756413 94.9592822,47.6246614 Z" id="Shape" fill="#6C63FF"></path>
                                    <path d="M40.2382949,34.7275241 C39.7226672,35.7587795 38.4851608,36.2550711 37.5312496,36.906051 L34.2634592,39.1490314 C33.8222899,39.5465772 33.2379478,39.74679 32.6456774,39.7033312 C32.1084525,39.5049452 31.6739262,39.0983029 31.4403977,38.5753956 L31.4403977,38.1113307 C31.4155642,37.5896097 31.4854427,37.067705 31.6466487,36.570893 C31.9666063,35.8420383 32.4627366,35.2041566 33.0904062,34.7146334 C34.3038284,33.5655867 35.747097,32.6868844 37.3249985,32.136495 C37.570971,32.0408134 37.8383914,32.0140714 38.09844,32.0591509 C38.198649,32.0853131 38.2942807,32.1266086 38.3820353,32.1816124 C38.6126741,32.4331723 38.8078412,32.7150805 38.9621164,33.0195074 C39.2199302,33.5480258 40.5025541,34.1990057 40.2382949,34.7275241 Z" id="Shape" fill="#000000" opacity="0.1"></path>
                                    <path d="M47.934038,41.5209188 C46.8383292,41.469356 45.9424261,40.6765784 45.1432032,39.922473 L42.7004171,37.6537112 C42.5369453,37.5154706 42.3937432,37.3549107 42.2750242,37.1767556 C42.1430272,36.9261158 42.0434013,36.6597248 41.9785383,36.383978 C41.4606294,35.0820243 40.6488864,33.9173495 39.606651,32.9808353 C39.424966,32.7499381 39.1812809,32.5755579 38.9041083,32.4780984 C38.6420568,32.4297478 38.3716715,32.4565628 38.1242214,32.5554425 C36.5458992,33.1049408 35.1024529,33.9837513 33.8896291,35.1335809 C33.2623433,35.6234872 32.7662951,36.2612635 32.4458716,36.9898405 C32.2838226,37.4864606 32.2139234,38.0085206 32.2396206,38.5302782 C32.2547551,40.2332702 32.6372958,41.9129316 33.3611108,43.4545225 C33.4706816,43.6930003 33.5931432,43.9314781 33.7220501,44.1635106 C34.5821165,45.5848589 35.5981807,46.9057423 36.7513627,48.101617 L38.2853551,49.816079 C39.793566,51.5047597 41.301777,53.1934403 42.9388949,54.7467687 C43.5257386,55.3726993 44.237084,55.8688846 45.027187,56.2034169 C45.8357987,56.5334096 46.7609988,56.3841838 47.4248557,55.8166961 C47.7336155,55.4592797 47.9661043,55.0425546 48.1080623,54.5920804 C49.1006456,52.013942 50.0416661,49.3326781 50.0996742,46.554734 C50.1135588,45.442226 50.0662214,44.3297968 49.9578766,43.2224901 C49.8611964,42.0494371 49.0297468,41.5918176 47.934038,41.5209188 Z" id="Shape" fill="#6C63FF"></path>
                                    <path d="M86.9928346,131.755762 C86.9554261,138.239284 86.4946778,144.713443 85.6135306,151.136918 C85.4846236,152.174618 85.342826,153.212319 85.2719272,154.25002 C85.0592308,157.259996 85.4072795,160.282864 85.1236843,163.273504 C84.9754413,164.891286 84.6402833,166.496177 84.3566881,168.075287 C83.097059,175.123284 82.7289335,182.301731 83.2609793,189.441609 C84.150437,201.320381 81.4240557,213.205599 82.6615621,225.052145 C82.8115493,227.355777 82.6838736,229.669087 82.2812867,231.94222 C82.0506324,233.352699 81.7167252,234.744338 81.2822581,236.105914 C80.3412375,239.332884 79.3959201,242.555557 78.4463058,245.773933 C78.3345932,246.263447 78.1143238,246.721608 77.8017712,247.114565 C77.136616,247.689784 76.2558525,247.95049 75.3847665,247.829998 C71.6658019,247.713982 68.165979,246.109091 64.7886177,244.542872 C64.4002411,244.389682 64.0406507,244.171748 63.7251356,243.898337 C63.0225929,243.170013 63.080601,242.022741 62.7712244,241.062385 C62.4618478,240.102028 61.6239528,239.19968 61.1469972,238.213542 C60.7548424,237.280724 60.517543,236.290162 60.4444545,235.280909 C60.0147648,231.980892 59.7225758,228.667984 59.5678875,225.342186 C59.3229643,220.662865 62.4167304,216.357374 63.4350951,211.806959 C65.3686989,202.860819 63.731581,193.270144 67.1669504,184.781624 C68.2497685,182.10036 66.6771041,178.851905 66.5224158,175.96439 C66.4667371,174.101567 66.2249076,172.24898 65.800537,170.434284 C65.1560024,168.010833 63.7960344,165.729181 63.6993542,163.215496 C63.6284554,161.397908 64.2149819,159.625438 64.5179132,157.833632 C64.919811,155.196673 64.8827878,152.511397 64.4083423,149.886521 C64.066739,147.720884 63.5446659,145.555248 63.0225929,143.441175 L62.9065767,143.679652 C61.3361796,146.748968 59.9857063,149.925919 58.8653448,153.186538 C58.3497171,154.765647 57.8985429,156.376984 57.2540083,157.910976 C56.7254899,159.200046 56.07451,160.379544 55.4364207,161.591269 C53.1477526,165.864404 51.1557358,170.289912 49.4744757,174.836455 C48.6752528,177.066545 47.9727101,179.348197 47.2766127,181.584732 L42.5006113,197.053562 C41.2115421,201.120576 39.8000114,205.052237 38.5367236,209.112805 C36.7513627,214.913616 34.9660019,220.662865 32.8906005,226.334769 C30.9569967,231.716633 28.6560082,237.291857 29.3456602,242.976652 C27.5685163,243.811956 25.6165614,244.207652 23.6544197,244.130369 C20.3325047,243.836524 17.0735191,243.045677 13.9864008,241.784263 C12.7553397,241.326644 11.4791612,240.811016 10.6477115,239.799097 C9.21684474,238.052408 9.57133877,235.493606 10.0031769,233.269961 C10.1658572,232.267672 10.4248713,231.283419 10.7766185,230.330884 C11.2664648,229.14494 12.0656877,228.094349 12.5684246,226.921296 C13.580344,224.67187 13.6447974,222.125958 14.0444089,219.683172 C14.4440203,217.240386 15.3334781,214.662248 17.4217702,213.334506 C17.7762642,209.041906 19.542289,204.807314 20.5155362,200.611393 C21.2503057,197.433838 21.4952288,194.166047 22.07531,190.943374 C22.6553911,187.720701 23.5899663,184.498028 25.5364607,181.887663 C25.382885,179.196044 25.9904558,176.515585 27.2895948,174.153248 C27.6034432,173.634475 27.8605873,173.083452 28.056591,172.509685 C28.1767849,171.94992 28.2458196,171.380384 28.2628421,170.808114 C28.475959,168.568412 29.4336063,166.464765 30.9827781,164.833278 C30.3382435,162.480727 31.2341466,160.02505 32.0398148,157.743397 C33.0545409,154.831873 33.5136666,151.755731 33.3933375,148.674796 C33.2933993,147.814484 33.3347652,146.943622 33.5157991,146.096657 C33.6962687,145.452123 34.0507628,144.904268 34.2570138,144.285515 C34.4408701,143.527669 34.5381723,142.751414 34.5470544,141.971636 C34.7984229,138.484704 36.2099537,135.197577 37.7697274,132.084475 C38.6978572,130.266887 37.911525,127.79832 38.1048854,125.774481 C38.4400434,122.410011 38.8074281,118.929524 40.4767727,115.996891 C40.7861493,115.442592 41.1213073,114.914073 41.3984572,114.340438 C41.7343172,113.521425 41.915693,112.647324 41.9334209,111.762299 C41.991429,110.286315 42.1976801,109.061699 41.6691617,107.688841 C45.1174218,104.820662 49.8225244,104.014993 54.3084852,103.821633 C58.794446,103.628273 63.3319695,104.034329 67.7212501,103.080418 C69.0103193,102.790378 70.2993885,102.390766 71.6593565,102.197406 C74.7466772,101.746232 77.8791154,102.448774 80.927764,103.144872 C80.7150676,105.078475 81.4240557,106.934735 82.2168332,108.732987 C85.3120056,116.017041 86.9351819,123.841584 86.9928346,131.755762 L86.9928346,131.755762 Z" id="Shape" fill="#33313F"></path>
                                    <path d="M71.8140448,133.231747 L64.4083423,149.886521 C64.066739,147.720884 63.5446659,145.555248 63.0225929,143.441175 L62.9065767,143.679652 L62.9065767,143.331604 L66.9413633,134.456362 L71.8140448,133.231747 Z" id="Shape" fill="#000000" opacity="0.1"></path>
                                    <path d="M94.005371,98.439769 C93.5781366,98.7594204 93.0680531,98.9495831 92.5358321,98.9876234 C91.7194321,99.016606 90.9041051,98.9054251 90.1252727,98.6589108 L84.3244614,97.208708 C84.1425719,97.1639303 83.9655422,97.1013223 83.795943,97.0217929 C83.8926232,96.0098736 84.0859836,94.8368206 84.633838,94.4436545 C85.4523969,93.8958001 87.9016284,94.6305696 88.8297582,94.7594765 C90.428204,94.9786183 92.0524312,95.2364321 93.6122049,95.5393634 C93.854006,96.487898 93.985928,97.4610925 94.005371,98.439769 Z" id="Shape" fill="#000000" opacity="0.1"></path>
                                    <path d="M98.9102793,60.0899605 C99.0327409,60.6249242 99.2067652,61.1534426 99.3098907,61.6948516 C99.4832927,63.023193 99.4375679,64.3709857 99.1745385,65.6845208 L98.6460201,69.3712587 L98.1175017,73.0773326 L96.0743271,87.3408833 L95.5715901,90.8729329 L94.862602,95.8036225 C94.8291153,96.2139013 94.7244254,96.6152126 94.5532254,96.9895662 C94.1242995,97.7012285 93.3661199,98.1493538 92.5358321,98.1819552 C91.719591,98.2078219 90.9047862,98.0967122 90.1252727,97.8532426 L84.3244614,96.3965944 C84.0702112,96.3513778 83.828515,96.2525021 83.6154733,96.1065538 C83.2546842,95.7538439 83.1118308,95.234153 83.2416432,94.7465858 C83.3254327,94.2567395 83.5381292,93.7991199 83.609028,93.3092736 C83.7508256,92.3553624 83.3512141,91.3756699 83.4930117,90.428204 C83.6320649,89.8248573 83.8487136,89.2420725 84.1375463,88.6944059 C86.0711501,84.4211415 84.9496599,79.4324438 85.6070852,74.7917947 C86.1987591,71.1394701 87.7414763,67.7072579 90.0801553,64.8401805 C91.5234122,63.030482 93.1812806,61.402914 95.0172903,59.9932803 C95.7391691,59.4325352 96.8864407,58.2788183 97.7952344,58.0596765 C98.9618421,57.8147534 98.7169189,59.2778469 98.9102793,60.0899605 Z" id="Shape" fill="#6C63FF"></path>
                                    <path d="M55.0110279,4.56975029 C54.585635,5.92327295 55.2495057,7.41214787 54.9465744,8.79145191 C54.6178618,10.3125536 53.186995,11.3695903 52.7809382,12.8971373 C52.1364036,15.2239072 54.1086794,17.344426 55.5524369,19.2780298 C60.9020741,26.4581452 60.1995314,36.3968687 58.3690531,45.1560939 C56.8962282,52.1836133 54.8593486,59.0809831 52.2782012,65.781201 C51.4725329,67.8630477 50.5830752,69.9771212 48.9975201,71.5368949 C51.9623792,70.6861093 55.1141534,69.8288783 58.0854579,70.6538826 C61.84954,71.6980286 65.0979943,75.3525398 68.9136391,74.5210901 C71.2081823,74.0119078 72.8195188,71.9751785 74.8820295,70.8472429 C78.7492371,68.7653962 83.4092222,70.0738014 87.7211587,70.7441174 C88.6503033,70.9633258 89.6225968,70.9141523 90.5248842,70.6023198 C91.2146693,70.2315192 91.7998809,69.6928585 92.2264555,69.0361007 C94.1507883,66.5672301 95.3032764,63.5851111 95.5393634,60.4637906 C95.745682,57.3197529 94.5933508,54.2382644 92.3746985,52.0010513 C91.4594594,51.1373749 90.3637505,50.4412776 89.6612078,49.4229129 C88.9779406,48.2335658 88.6117379,46.8886033 88.5977257,45.5170333 C88.0885434,38.4271527 89.8158961,31.1890292 88.0369806,24.331181 C87.392446,21.8883949 86.3418546,19.5487343 86.0582594,17.0479401 C85.7037654,13.934838 86.5481057,10.6025941 85.3105993,7.75375121 C84.3373521,5.49143477 82.1910518,3.88654362 79.8771726,3.06153934 C77.5632934,2.23653505 75.0882806,2.0045026 72.6326038,1.77247014 C69.1005542,1.47598423 56.4870121,-0.0386720758 55.0110279,4.56975029 Z" id="Shape" fill="#33313F"></path>
                                </g>
                                <g id="Group" opacity="0.1" transform="translate(48.771933, 2.500794)" fill="#000000">
                                    <path d="M9.59712015,42.6552996 C8.13154303,49.6537602 6.10546944,56.5230119 3.53849494,63.1966173 C3.98322381,62.3136049 4.35705388,61.385475 4.71154791,60.4637906 C7.29562577,53.7645683 9.33257606,46.8669589 10.8023999,39.8386835 C12.6393235,31.0730129 13.3418662,21.1471801 7.99222901,13.9606194 C6.70315981,12.2461573 5.0467059,10.3898977 5.10471401,8.37894976 C4.62828819,8.98715993 4.25785648,9.67136909 4.00900519,10.4027884 C3.3644706,12.7295583 5.33674647,14.8500771 6.78050396,16.7836809 C12.1301411,23.957351 11.4275984,33.8960745 9.59712015,42.6552996 Z" id="Shape"></path>
                                    <path d="M6.25198559,5.63967773 C6.76926343,4.9972881 7.15474797,4.25917282 7.38636648,3.46759613 C7.48601455,2.51011368 7.46001268,1.54371065 7.30902233,0.592971829 C6.81251921,0.966622442 6.43975778,1.48085356 6.2390949,2.06895606 C5.85881949,3.20978229 6.29710302,4.44728872 6.25198559,5.63967773 Z" id="Shape"></path>
                                    <path d="M44.6662476,63.6993542 C44.2394814,64.3542945 43.6541851,64.8908161 42.9646763,65.259128 C42.0636568,65.5774362 41.0894873,65.6267045 40.1609508,65.4009256 C35.8490143,64.756391 31.1374664,63.4286497 27.3218216,65.5104965 C25.2528655,66.6319867 23.6479744,68.668716 21.3469859,69.1843437 C17.5377864,70.0351293 14.289332,66.3806182 10.52525,65.3171361 C7.85687674,64.5759213 5.0467059,65.1882292 2.35899663,65.9616707 C1.82494229,67.1005866 1.10382125,68.1419638 0.225587109,69.0425461 C3.19044626,68.1917604 6.34222044,67.3345294 9.31352493,68.1595337 C13.077607,69.2036797 16.3260613,72.8581909 20.1417062,72.0267412 C22.4362493,71.5175589 24.0475858,69.4808296 26.1100965,68.352894 C29.9773041,66.2710473 34.6372893,67.5794525 38.9492257,68.2497685 C39.8783704,68.4689769 40.8506638,68.4198034 41.7529512,68.1079709 C42.4427363,67.7371703 43.027948,67.1985096 43.4545225,66.5417518 C44.6225909,65.0009957 45.5245111,63.2755832 46.1228958,61.4370378 C45.692172,62.2250666 45.2053686,62.9811197 44.6662476,63.6993542 L44.6662476,63.6993542 Z" id="Shape"></path>
                                </g>
                                <path d="M99.277664,54.753214 C99.259382,53.9741046 99.1622056,53.1988523 98.9876234,52.4393348 C98.4075423,50.2608079 97.0991371,47.6246614 94.9463915,46.9672361 C92.7237397,46.2867368 90.5769047,45.3796234 88.5397176,44.2601908 C88.1529969,37.3507799 89.738552,30.2802354 88.0111993,23.5835209 C87.3666647,21.1342894 86.3031826,18.7881835 86.0195874,16.2809439 C85.6650933,13.1613965 86.515879,9.83559795 85.2719272,6.96097365 C84.2922346,4.69221187 82.1394891,3.09376607 79.8256099,2.25587109 C77.5117307,1.41797611 75.0173818,1.192389 72.561705,0.966801896 C69.4679389,0.715433403 59.4518713,-0.470510256 55.9584937,2.29454317 C55.7175475,2.48159688 55.5010129,2.69813157 55.3139591,2.93907776 C55.0054549,3.46014672 54.947228,3.60032249 54.901457,3.74474601 C54.7918861,4.43439803 54.7918861,4.60842237 54.7918861,4.7244386 C54.8370035,5.96839037 54.920793,6.54847151 54.920793,7.1221073 C54.9276639,7.4077282 54.9017125,7.69319339 54.8434489,7.97289297 C54.6288209,8.73305504 54.2651206,9.44292796 53.7735214,10.0611851 C53.5866064,10.3318896 53.5157076,10.4285698 53.4512542,10.5316953 C53.2321124,10.8926347 53.1805496,10.9506428 53.1354322,11.0344323 C52.9678532,11.4275984 52.8969544,11.4856065 52.871173,11.55006 C52.526868,12.6514779 52.5136001,13.2396857 52.6391406,13.8059311 C52.8129237,14.5289757 53.1117585,15.2160776 53.522153,15.8362151 C53.6832866,16.1004742 53.8573109,16.3582881 54.0377806,16.6161019 L54.4889549,17.2284098 C54.4047077,17.8263992 54.3594946,18.4292406 54.3536026,19.0331067 C54.3542371,23.1224078 56.2310631,26.9853435 59.4454259,29.5132392 C59.700779,32.2351671 59.6726985,34.9762578 59.3616364,37.6923832 C59.3036283,38.2595737 59.2327295,38.8332095 59.1553853,39.4003999 C59.0780412,39.9675904 59.0200331,40.3414204 58.9426889,40.8119307 C57.9995302,40.9469834 57.0382544,40.8743928 56.1260727,40.5992343 C55.7052896,40.4115387 55.2750172,40.2458838 54.8370035,40.1029426 C52.9614079,39.6324324 51.0471401,41.5015827 49.1908805,40.9343923 C48.719614,40.9513915 48.2741634,40.8199836 47.8180218,40.8119307 C46.7158676,40.7603679 45.8199645,39.961145 45.0207416,39.2070396 L42.5650648,36.8931603 C42.4049743,36.751487 42.2621866,36.5913917 42.139672,36.4162047 C42.007675,36.165565 41.908049,35.8991739 41.8431861,35.6234272 C41.4306839,34.2892406 40.4316553,33.2257585 39.4648534,32.2138392 C39.2816338,31.9830684 39.0386429,31.8069558 38.7623107,31.7046568 C38.6554896,31.6885819 38.5468644,31.6885819 38.4400434,31.7046568 C38.0605366,31.2553512 37.8818636,31.0745256 37.6923832,30.9054339 C36.5193303,29.8226158 36.4033141,28.894486 35.3849494,27.682761 C34.4967378,26.527124 33.6912158,25.3102258 32.97439,24.0411405 C32.8906005,23.3643792 32.7745843,22.6682818 32.6327867,21.9657391 C32.3078399,20.3573336 31.8353309,18.7823035 31.2212559,17.2606365 L29.9321867,14.4053482 C28.8493686,13.1613965 27.8503399,12.4008457 26.9544369,12.5813153 C25.4526712,12.8906919 24.7114565,15.8039883 24.9499343,19.6131878 L25.4655619,23.4803954 C25.4436903,24.2287334 25.396196,24.6950405 25.3946631,25.1626307 C25.3946631,25.7040397 25.8974001,26.1036512 26.1616593,26.5870521 C26.5846414,27.2418758 26.8085377,28.0053624 26.8061939,28.7849151 C26.7739672,29.062065 26.6901777,29.3263242 26.677287,29.5970287 C26.7123802,30.2025753 26.9228886,30.7848326 27.2831495,31.2728187 L30.5058225,36.6869093 L31.1503571,37.8212902 C31.3924359,38.2686766 31.6887966,38.6092703 32.0527055,38.8654362 C32.1789879,40.221105 32.5387844,41.54472 33.1161876,42.7777612 C33.2257585,43.0226844 33.3482201,43.2547168 33.477127,43.4867493 C34.3436746,44.9110255 35.3638436,46.2359484 36.5193303,47.4377464 L38.0533226,49.1586537 C39.5679789,50.8473344 41.0826352,52.5424604 42.7261985,54.1022341 C43.3145181,54.7280698 44.0253666,55.2261025 44.8144905,55.5653276 C45.6012641,55.8798758 46.4961881,55.749571 47.1605965,55.2237243 L47.1605965,57.621393 C47.6478804,57.6513848 48.0807992,57.9426765 48.2921481,58.3827638 C48.503497,58.8228511 48.460193,59.3428456 48.1789611,59.7419118 C46.8254385,63.2159533 45.4590251,66.7222215 43.4094051,69.8353236 C44.8561466,70.6916728 46.1973626,71.7148908 47.4055196,72.8839723 C48.1895297,73.7528137 48.8867898,74.6961656 49.4873664,75.7005884 C49.5453745,76.177544 49.5904919,76.6480543 49.6162733,77.1185646 C50.0932289,84.801417 47.1219244,92.4262612 44.4599965,99.7481743 C43.6930003,101.823576 42.8551054,103.995657 42.9195588,106.154848 C42.4144247,106.46625 41.9319665,106.813017 41.4758013,107.192549 C42.0043197,108.571853 41.7980686,109.802914 41.7400605,111.278898 C41.7208645,112.163757 41.5395438,113.037592 41.2050968,113.857037 C40.924875,114.425025 40.6150734,114.977935 40.276967,115.513491 C38.6076224,118.459014 38.2402377,121.958836 37.9050797,125.323307 C37.7052739,127.353591 38.4916061,129.835049 37.5699217,131.652637 C35.9779212,134.772184 34.5663905,138.097983 34.3472487,141.565579 C34.3395947,142.345836 34.2400808,143.122478 34.0507628,143.879458 C33.850957,144.523993 33.496463,145.071847 33.3159933,145.703491 C33.130231,146.54976 33.0866664,147.421052 33.1870864,148.281629 C33.3097393,151.371121 32.850594,154.456141 31.8335638,157.376013 C31.0278955,159.677001 30.1384378,162.139123 30.7700817,164.504565 C29.2151041,166.137971 28.2548103,168.246985 28.0437003,170.492292 C28.0270685,171.066721 27.9580316,171.638432 27.8374493,172.200308 C27.6404812,172.774785 27.3811176,173.325932 27.0640077,173.843872 C25.7665075,176.20683 25.1590447,178.886813 25.3108736,181.578287 C23.3772698,184.201543 22.4104679,187.437106 21.8368322,190.653334 C21.2631964,193.869562 21.0118279,197.143797 20.2770584,200.321353 C19.2973658,204.523718 17.5248957,208.771201 17.176847,213.076693 C15.0885549,214.410879 14.1862065,216.995463 13.786595,219.438249 C13.3869836,221.881035 13.3225301,224.446283 12.2977201,226.702154 C11.7692017,227.875207 11.0086509,228.925798 10.5059139,230.124633 C10.1533418,231.079116 9.89431179,232.065589 9.73247242,233.070156 C9.42309581,234.64282 9.15239128,236.395954 9.53266669,237.904165 C8.98590974,238.48321 8.34796191,238.968747 7.64418032,239.341477 C7.74730586,238.941866 7.83109536,238.542254 7.90199416,238.136198 C6.2390949,239.644409 3.22267299,239.11589 1.89493172,240.927032 C1.06625779,242.140822 1.35167118,243.793366 2.53946631,244.658888 C2.95490557,244.912085 3.40408866,245.105212 3.87365293,245.232524 C7.09632592,246.263779 10.4092337,247.30148 13.7221416,246.753625 C14.1138251,246.711385 14.4930194,246.590832 14.8371864,246.399131 C15.2681118,246.081853 15.622658,245.672253 15.8748871,245.200297 C16.3711788,244.413965 16.8674704,243.627632 17.3573167,242.8413 C18.5444074,243.195629 19.7519063,243.477594 20.9731558,243.685641 C21.0956174,244.716896 21.1858522,245.748151 21.2309696,246.779407 C21.8755042,246.908314 22.7391806,246.946986 23.0421119,246.347568 C23.1339925,246.120916 23.171518,245.875897 23.1516827,245.632135 C23.1516827,245.174515 23.2161362,244.568653 23.2548083,243.9499 C25.3501755,244.029265 27.3067982,243.633519 29.0878464,242.796183 C28.3981944,237.085606 30.6734015,231.503937 32.6456774,226.102737 C34.7275241,220.417942 36.5128849,214.630021 38.3111365,208.8421 C39.6002057,204.768642 41.0246271,200.82409 42.2879149,196.744186 C43.8777669,191.587909 45.4740643,186.431632 47.076807,181.275355 C47.7729043,179.006594 48.4754471,176.763613 49.27467,174.507742 C50.957103,169.942945 52.953486,165.500078 55.2495057,161.210993 C55.8940403,159.992823 56.5385749,158.787543 57.0670932,157.524256 C57.7116278,155.983818 58.1692474,154.372481 58.6848751,152.780481 C59.80849,149.513873 61.1610708,146.33057 62.7325524,143.25426 C63.3770869,145.149191 63.89916,147.314828 64.2472087,149.461128 C64.7182885,152.092832 64.7553017,154.783911 64.3567795,157.427575 C64.0474029,159.225827 63.4608764,161.004742 63.5317753,162.828775 C63.6284554,165.348906 64.9755327,167.637003 65.6394034,170.066899 C66.0673525,171.885309 66.3092236,173.742533 66.3612821,175.609896 C66.5417518,178.510302 68.1144162,181.765202 67.0058167,184.452911 C63.5575566,192.967213 65.2269012,202.583669 63.2610707,211.523364 C62.2491514,216.11245 59.14894,220.424387 59.3938631,225.116599 C59.565739,228.446694 59.857928,231.768196 60.2704302,235.081104 C60.3697489,236.126387 60.6420104,237.147912 61.0760984,238.103971 C61.3332623,238.606995 61.6284577,239.089651 61.9591108,239.547728 C61.6755156,239.657299 61.4370378,239.94734 61.2307867,240.559648 C60.7022684,242.170984 61.2307867,244.169041 62.6616535,245.07139 C63.2446565,245.383175 63.8733373,245.600712 64.5243585,245.715925 C65.4006939,245.965035 66.3074595,246.090854 67.2185131,246.089755 C67.5019643,246.074469 67.7840558,246.040015 68.0628535,245.986629 C69.0590813,246.405256 70.0767135,246.771001 71.1115021,247.082338 C71.1115021,247.346597 71.1630649,247.610856 71.1952916,247.875115 C71.1988274,248.154399 71.3206291,248.419084 71.5304496,248.60344 C71.691344,248.678515 71.8692491,248.709649 72.0460773,248.693674 L75.5459001,248.693674 L75.5459001,247.817107 C76.3558243,247.901542 77.1636541,247.63929 77.7695445,247.095229 C78.0795435,246.700676 78.2995254,246.243113 78.4140791,245.754597 C79.3679903,242.519033 80.3154562,239.281321 81.2564767,236.04146 C82.384801,232.460292 82.8543145,228.704185 82.6422261,224.955465 C81.3982743,213.076693 84.131101,201.159248 83.2416432,189.248248 C82.7063528,182.089121 83.0744836,174.891082 84.3373521,167.823918 C84.6273926,166.225473 84.9818866,164.601245 85.1107936,163.009245 C85.3943888,160.005714 85.0463401,156.969956 85.2590365,153.985761 C85.3299353,152.941615 85.4717329,151.903914 85.6006399,150.866213 C86.483704,144.425569 86.946599,137.934273 86.9863892,131.433495 C86.9666504,129.279513 86.8332611,127.128073 86.5867778,124.988149 C87.2587429,124.817025 87.8686933,124.459545 88.3463572,123.956894 C88.919993,123.209234 88.7717501,122.158642 88.7653047,121.204731 C88.7653047,118.923079 89.7256613,116.770333 90.4991028,114.617587 C91.4917232,111.648312 92.3052985,108.622157 92.9354436,105.555431 C93.601369,103.084092 93.9649655,100.541081 94.0182617,97.9821495 C94.0182617,97.7243356 94.005371,97.4665218 93.9795896,97.208708 C94.2224805,97.0403595 94.4250024,96.820227 94.5725615,96.5641734 C94.7408028,96.1865139 94.8453425,95.7836005 94.8819381,95.3717844 C95.1139705,93.7282211 95.3524483,92.0782126 95.5844808,90.428204 C95.7563567,89.2465572 95.9260841,88.0670589 96.0936631,86.8897091 L98.1432831,72.5874863 C98.3173075,71.3435346 98.4977772,70.1060281 98.6718015,68.8685217 L99.2067652,65.1688931 C99.2647733,64.7306096 99.3292268,64.2923261 99.3743442,63.8798239 C100.947009,61.2501228 99.445243,57.7438546 99.277664,54.753214 Z M82.1781612,108.301148 C81.4176103,106.496452 80.7086223,104.646637 80.889092,102.700143 L80.8181932,102.700143 C80.9878008,102.101189 80.9583975,101.463364 80.7344037,100.882555 C80.5345979,100.412045 80.1865492,100.012433 79.9738528,99.5419232 C79.7453069,98.9676187 79.6272234,98.3553338 79.6258041,97.7372263 C79.4657353,93.8171313 79.7751615,89.8919618 80.5474886,86.0453687 C80.6312781,85.5941945 80.721513,85.136575 80.8053025,84.6854007 C81.0756563,84.5292091 81.3229525,84.3361446 81.5400719,84.1117649 C81.8791046,83.7253002 82.1592704,83.2909346 82.3715215,82.8226957 C83.0998456,81.3596022 83.7637163,79.8707273 84.3760241,78.356071 C84.5758299,77.8662247 84.8658704,77.2990342 85.3621621,77.1765727 C85.2590365,80.9471001 85.6457573,84.7949716 84.1117649,88.1981143 C83.8203541,88.7468921 83.6035905,89.3321537 83.4672303,89.9383577 C83.3254327,90.8987143 83.7250442,91.8719615 83.5832466,92.8258727 C83.5123478,93.3221643 83.2996513,93.7797839 83.2158619,94.2696302 C83.0863456,94.7591834 83.2289984,95.2806043 83.5896919,95.6360435 C83.6750769,95.6958927 83.7683484,95.743613 83.8668418,95.7778412 C83.8281697,96.035655 83.795943,96.2999142 83.7701616,96.5512827 C83.7185988,97.079801 83.6928175,97.5760927 83.6605907,97.8854693 C83.5122781,99.4621223 83.4541753,101.045962 83.4865664,102.629244 C83.4865664,104.337261 83.5510198,106.045277 83.5252385,107.785521 C83.5490817,108.285117 83.4655649,108.78402 83.2803153,109.248614 C83.152549,109.488271 82.9871659,109.70588 82.790469,109.893149 C82.603554,109.313068 82.3973029,108.803885 82.1781612,108.301148 Z" id="Shape" fill="url(#linearGradient-2)"></path>
                            </g>
                        </g>
                        <g id="right-plant" transform="translate(448.000000, 287.000000)">
                            <path d="M0.0975313927,13.7919521 C0.0975313927,38.5248288 15.6146547,58.541524 34.7895263,58.541524" id="Shape" fill="#46455B"></path>
                            <path d="M34.7895263,58.5464469 C34.7895263,33.5329623 52.1084475,13.2947346 73.5084903,13.2947346" id="Shape" fill="#6C63FF"></path>
                            <path d="M12.6707334,16.0368151 C12.6707334,39.5340325 22.5658533,58.5464469 34.7895263,58.5464469" id="Shape" fill="#6C63FF"></path>
                            <path d="M34.7895263,58.5464469 C34.7895263,26.5866866 54.8062215,0.721532534 79.5390982,0.721532534" id="Shape" fill="#46455B"></path>
                            <ellipse id="Oval" fill="#6C63FF" opacity="0.1" cx="33.288028" cy="65.635488" rx="8.625" ry="1.45719178"></ellipse>
                            <path d="M27.4937215,58.8615154 C27.4937215,58.8615154 32.4166667,58.7089041 33.8935502,57.6553938 C35.3704338,56.6018836 41.460117,55.3366866 41.8293379,57.0301798 C42.1985588,58.7236729 49.2137557,65.453339 43.6655965,65.4976455 C38.1174372,65.5419521 30.7576341,64.6312072 29.2807506,63.7303082 C27.803867,62.8294092 27.4937215,58.8615154 27.4937215,58.8615154 Z" id="Shape" fill="#A8A8A8"></path>
                            <path d="M43.7689783,64.9068921 C38.2158961,64.9511986 30.8659389,64.0404538 29.3841324,63.1395548 C28.256778,62.4552654 27.80879,59.9888699 27.6561787,58.8565925 L27.4937215,58.8565925 C27.4937215,58.8565925 27.803867,62.8244863 29.2856735,63.7253853 C30.76748,64.6262842 38.1174372,65.5370291 43.6705194,65.4927226 C45.2753995,65.4927226 45.8267694,64.9068921 45.7972317,64.0650685 C45.5756992,64.5770548 44.9898687,64.8970462 43.7689783,64.9068921 Z" id="Shape" fill="#000000" opacity="0.2"></path>
                        </g>
                        <g id="left-plant" transform="translate(70.525024, 304.000000)">
                            <path d="M0.738370434,11.2457192 C0.738370434,30.9375 13.0801941,46.8484589 28.3364013,46.8484589" id="Shape" fill="#46455B"></path>
                            <path d="M28.3364013,46.8484589 C28.3364013,26.9499144 42.1206478,10.8469606 59.1392694,10.8469606" id="Shape" fill="#6C63FF"></path>
                            <path d="M10.7368721,13.0376712 C10.7368721,31.744863 18.6135845,46.8583048 28.3364013,46.8583048" id="Shape" fill="#6C63FF"></path>
                            <path d="M28.3364013,46.8484589 C28.3364013,21.4214469 44.262129,0.843535959 63.939141,0.843535959" id="Shape" fill="#46455B"></path>
                            <ellipse id="Oval" fill="#6C63FF" opacity="0.1" cx="27.1401256" cy="52.4901541" rx="6.86258562" ry="1.16181507"></ellipse>
                            <path d="M22.5322489,47.0995291 C22.5322489,47.0995291 26.4459903,46.9764555 27.6225742,46.1149401 C28.7991581,45.2534247 33.6482591,44.2688356 33.9387129,45.6226455 C34.2291667,46.9764555 39.8216324,52.322774 35.4155965,52.3572346 C31.0095605,52.3916952 25.1463328,51.6680223 23.9697489,50.9541952 C22.793165,50.2403682 22.5322489,47.0995291 22.5322489,47.0995291 Z" id="Shape" fill="#A8A8A8"></path>
                            <path d="M35.4795947,51.9289384 C31.0489441,51.963399 25.2103311,51.239726 24.0337471,50.520976 C23.1377711,49.9794521 22.7833191,48.0151969 22.6602454,47.1142979 L22.5322489,47.1142979 C22.5322489,47.1142979 22.7783961,50.2699058 23.95498,50.9886558 C25.1315639,51.7074058 30.9849458,52.4261558 35.4008276,52.3916952 C36.6758704,52.3916952 37.1189355,51.9289384 37.0943208,51.2544949 C36.9170947,51.6483305 36.4297232,51.8994007 35.4795947,51.9289384 Z" id="Shape" fill="#000000" opacity="0.2"></path>
                        </g>
                    </g>
                    <path d="M337.808105,119.638835 C349.187473,119.638835 358.412272,110.628565 358.412272,99.5138346 C358.412272,88.399104 369.791639,40.625 358.412272,40.625 C353.839326,40.625 345.206843,80.3637142 337.808105,90.0166016 C330.409368,99.6694889 322.583333,96.9985148 322.583333,103.646647 C322.583333,114.761378 326.428738,119.638835 337.808105,119.638835 Z" id="Oval-5" fill="#FFFFFF"></path>
                    <path d="M73.2435754,106.904226 C84.6229424,106.904226 93.847742,97.8939563 93.847742,86.7792257 C93.847742,75.6644951 105.227109,27.890391 93.847742,27.890391 C89.2747962,27.890391 80.642313,67.6291053 73.2435754,77.2819926 C65.8448378,86.9348799 58.0188032,84.2639058 58.0188032,90.9120382 C58.0188032,102.026769 61.8642083,106.904226 73.2435754,106.904226 Z" id="Oval-5-Copy" fill="#FFFFFF" transform="translate(78.462021, 67.397308) rotate(58.000000) translate(-78.462021, -67.397308) "></path>
                    <g id="Extra-stars-group-Copy" transform="translate(0.678147, 4.375000)" fill-rule="nonzero" fill="#E7EFFD">
                        <g id="Extra-stars" transform="translate(120.772067, 84.991046) rotate(22.000000) translate(-120.772067, -84.991046) translate(9.772067, 38.991046)">
                            <ellipse id="Oval-Copy" cx="30.3076618" cy="4.07105677" rx="1" ry="1.29335555"></ellipse>
                            <ellipse id="Oval-Copy-2" cx="0.910663102" cy="1.29335555" rx="1" ry="1.29335555"></ellipse>
                            <ellipse id="Oval-Copy-3" cx="40.240243" cy="4.25888229" rx="1" ry="1"></ellipse>
                            <ellipse id="Oval-Copy-4" cx="10.8432442" cy="2.40708147" rx="1" ry="1"></ellipse>
                            <ellipse id="Oval-Copy-5" cx="10.8432442" cy="41.2948987" rx="1" ry="1"></ellipse>
                            <ellipse id="Oval-Copy-6" cx="191.144836" cy="11.6660856" rx="1" ry="1"></ellipse>
                            <ellipse id="Oval-Copy-7" cx="58.5317089" cy="12.591986" rx="1" ry="1"></ellipse>
                            <ellipse id="Oval-Copy-8" cx="171.546837" cy="11.6660856" rx="1" ry="1"></ellipse>
                            <ellipse id="Oval-Copy-9" cx="221.195102" cy="13.5178864" rx="1" ry="1"></ellipse>
                            <ellipse id="Oval-Copy-10" cx="66.3709085" cy="91.2935208" rx="1" ry="1"></ellipse>
                            <ellipse id="Oval-Copy-11" cx="155.868438" cy="42.2207991" rx="1" ry="1"></ellipse>
                            <ellipse id="Oval-Copy-12" cx="195.064436" cy="68.1460106" rx="1" ry="1"></ellipse>
                            <ellipse id="Oval-Copy-13" cx="133.657372" cy="72.7755126" rx="1" ry="1"></ellipse>
                        </g>
                        <g id="Extra-stars" transform="translate(316.704534, 72.310472)">
                            <ellipse id="Oval-Copy" cx="30.3076618" cy="4.07105677" rx="1" ry="1.29335555"></ellipse>
                            <ellipse id="Oval-Copy-2" cx="0.910663102" cy="1.29335555" rx="1" ry="1.29335555"></ellipse>
                            <ellipse id="Oval-Copy-3" cx="40.240243" cy="4.25888229" rx="1" ry="1"></ellipse>
                            <ellipse id="Oval-Copy-4" cx="10.8432442" cy="2.40708147" rx="1" ry="1"></ellipse>
                            <ellipse id="Oval-Copy-5" cx="10.8432442" cy="41.2948987" rx="1" ry="1"></ellipse>
                            <ellipse id="Oval-Copy-6" cx="191.144836" cy="11.6660856" rx="1" ry="1"></ellipse>
                            <ellipse id="Oval-Copy-7" cx="58.5317089" cy="12.591986" rx="1" ry="1"></ellipse>
                            <ellipse id="Oval-Copy-8" cx="171.546837" cy="11.6660856" rx="1" ry="1"></ellipse>
                            <ellipse id="Oval-Copy-9" cx="221.195102" cy="13.5178864" rx="1" ry="1"></ellipse>
                            <ellipse id="Oval-Copy-10" cx="66.3709085" cy="91.2935208" rx="1" ry="1"></ellipse>
                            <ellipse id="Oval-Copy-11" cx="155.868438" cy="42.2207991" rx="1" ry="1"></ellipse>
                            <ellipse id="Oval-Copy-12" cx="195.064436" cy="68.1460106" rx="1" ry="1"></ellipse>
                            <ellipse id="Oval-Copy-13" cx="133.657372" cy="72.7755126" rx="1" ry="1"></ellipse>
                        </g>
                    </g>
                </g>
            </g>
        </g>
    </g>
</svg>