<?xml version="1.0" encoding="UTF-8"?>
<svg width="300px" height="246px" viewBox="0 0 300 246" version="1.1" xmlns="http://www.w3.org/2000/svg" xmlns:xlink="http://www.w3.org/1999/xlink">
    <!-- Generator: Sketch 43.2 (39069) - http://www.bohemiancoding.com/sketch -->
    <title>undraw_exams_g4ow</title>
    <desc>Created with Sketch.</desc>
    <defs></defs>
    <g id="Landing-Page" stroke="none" stroke-width="1" fill="none" fill-rule="evenodd">
        <g id="Oblong---light-Bg-Copy-10" transform="translate(-661.000000, -1624.000000)" fill-rule="nonzero">
            <g id="Features" transform="translate(0.000000, 803.000000)">
                <g id="Feature-4" transform="translate(0.000000, 800.000000)">
                    <g id="undraw_exams_g4ow" transform="translate(661.000000, 21.000000)">
                        <path d="M292.672431,142.068159 L292.672431,142.623601 C292.639878,145.834181 292.449644,149.036623 292.101729,152.230926 C292.103387,152.250219 292.103387,152.269618 292.101729,152.288911 C292.074262,152.554425 292.043744,152.816887 292.013225,153.082401 C291.961343,153.531027 291.906409,153.976602 291.845371,154.425229 C291.133865,159.886018 289.956636,165.275954 288.326551,170.536114 L288.326551,170.536114 C286.142732,177.644063 283.055444,184.442252 279.140387,190.763988 C277.93591,192.696846 276.653103,194.56765 275.291963,196.376399 L275.291963,196.376399 C274.565615,197.33469 273.824008,198.271617 273.057986,199.193286 C272.520855,199.83825 271.97355,200.473042 271.416073,201.09766 L271.068159,201.482197 C268.134928,204.702824 264.973105,207.707576 261.607325,210.473042 C256.113937,215.02645 250.19939,218.987792 244.190234,222.662258 C243.848423,222.872838 243.503561,223.080366 243.158698,223.272635 C243.134666,223.290116 243.109134,223.305435 243.082401,223.318413 C234.915565,228.256358 226.446592,232.712106 217.721261,236.279756 C208.168871,240.19532 198.305188,243.042726 188.185148,244.287894 C174.079349,246.021363 159.802645,244.611394 145.782299,242.188199 C134.121904,240.184684 122.602642,237.432294 111.296033,233.948118 L109.434385,233.365209 C108.46999,233.057986 107.506612,232.744659 106.544252,232.425229 C100.731434,230.502543 94.9837233,228.366226 89.301119,226.016277 C75.0289848,220.137981 61.3946391,212.817177 48.6103764,204.167854 C46.982706,203.073245 45.3784334,201.954222 43.7975585,200.810783 C41.5879959,199.219736 39.404883,197.581892 37.2482197,195.897253 L35.9175992,194.865717 C30.273601,190.446237 24.9856999,185.589981 20.1027467,180.341811 C13.5350966,173.194303 7.92268566,165.131231 4.23296033,155.926755 C3.65106816,154.480163 3.1180061,153.006104 2.63377416,151.504578 L2.58799593,151.355036 C2.34384537,150.592065 2.1180061,149.829095 1.91047813,149.035605 C1.60528993,147.900305 1.33774161,146.750763 1.10783316,145.586979 C1.05900305,145.364191 1.0162767,145.141404 0.976602238,144.915565 C0.24716773,140.999005 -0.0749958282,137.017472 0.01525941,133.034588 C0.0915885763,129.54486 0.500354463,126.07035 1.23601221,122.658189 L1.23601221,122.658189 C1.98897746,119.121029 3.14931105,115.683041 4.69379451,112.413021 L4.69379451,112.413021 C6.08954432,109.472591 7.86792336,106.729597 9.982706,104.255341 L9.982706,104.255341 C11.4687466,102.525473 13.139973,100.963752 14.9664293,99.5981689 C18.2777213,97.1322482 21.9491353,95.4140387 25.7548321,94.0559512 L25.7548321,94.0559512 C27.543235,93.415056 29.3560529,92.8535097 31.1780264,92.3316378 C32.4689725,91.9593082 33.7660224,91.6052899 35.0569685,91.2573754 L38.8657172,90.2288911 C41.3072228,89.5635809 43.7487284,88.8799593 46.1536114,88.1414039 C52.7090539,86.1393693 59.1332655,83.716175 65.0752798,80.1027467 C66.0152594,79.5320448 66.9735504,78.906409 67.9318413,78.2349949 C69.1525941,77.3865717 70.3550356,76.4649034 71.5452696,75.4699898 L71.5452696,75.4699898 C72.7477111,74.4628688 73.9257375,73.3855544 75.0488301,72.2441506 C75.2227874,72.0671414 75.3936928,71.8901322 75.5645982,71.7100712 C76.4801628,70.7456765 77.3682604,69.7355036 78.1922686,68.6856562 C78.595117,68.17294 78.9857579,67.6510682 79.3580875,67.1200407 C79.8738555,66.3845371 80.3621567,65.636826 80.8138352,64.8677518 L80.8138352,64.8677518 C83.0783316,61.0223805 84.4760936,56.7802645 84.311292,52.3092574 C84.2871976,51.5726048 84.2209652,50.8379347 84.1129196,50.1088505 C83.716175,47.4140387 83.3346897,44.7833164 83.0539166,42.2105799 C81.8758901,31.5686673 82.3733469,21.9186165 90.3601221,12.8514751 C100.290946,1.58087487 115.876907,-0.717192269 130.065107,0.18311292 C171.085453,2.77721261 208.428281,26.197355 241.245168,54.0793489 C244.083418,56.4883011 246.88708,58.9298067 249.656155,61.4038657 C250.354018,62.0264496 251.052899,62.6531027 251.752798,63.283825 C256.940997,67.9562564 262.049847,72.802645 266.807731,77.9938962 C267.192269,78.415056 267.576806,78.8362157 267.955239,79.2604273 C268.187182,79.5228891 268.422177,79.7822991 268.651068,80.0478128 C270.134283,81.7263479 271.573754,83.4455748 272.969481,85.2054934 C276.708361,89.8776752 280.010129,94.8834493 282.833164,100.159715 C287.155737,108.440074 290.082138,117.377041 291.494405,126.610376 L291.494405,126.610376 C292.0254,129.963425 292.374841,133.342715 292.5412,136.733469 C292.593082,137.731434 292.626653,138.732452 292.644964,139.730417 L292.644964,140.688708 C292.675483,141.152594 292.675483,141.604273 292.672431,142.068159 Z" id="Shape" fill="#6C63FF" opacity="0.1"></path>
                        <polygon id="Shape" fill="#3F3D56" points="120.238047 136.950153 115.355036 223.8647 120.238047 223.928789 124.205493 135.7294"></polygon>
                        <rect id="Rectangle-path" fill="#6C63FF" x="41.8046796" y="180.985758" width="60.4272635" height="13.1230926"></rect>
                        <path d="M106.19939,192.579858 L106.19939,200.819939 L43.7792472,200.819939 C41.5696846,199.228891 39.3865717,197.591048 37.2299084,195.906409 L37.2299084,192.579858 L106.19939,192.579858 Z" id="Shape" fill="#3F3D56"></path>
                        <path d="M118.663276,173.826043 C118.49237,174.61648 118.269583,175.397762 118.034588,176.175992 C117.341811,178.425229 116.508647,180.643947 116.346897,182.981689 C116.130214,186.070193 116.957274,189.662258 114.820956,191.905392 C114.271617,192.485249 113.554425,192.918616 113.063072,193.538149 C112.987397,193.635303 112.918077,193.737245 112.855544,193.843337 C112.416073,194.569685 112.364191,195.45473 112.358087,196.284842 C112.363226,198.055288 112.478402,199.823702 112.70295,201.579858 C113.426246,207.622584 114.854527,213.677518 112.97762,219.381485 C112.637534,220.370769 112.24116,221.339797 111.790437,222.283825 C110.874873,224.298067 109.876907,226.284842 109.577823,228.466938 C109.358087,230.084435 109.425229,231.750763 109.413021,233.395727 C108.448627,233.088505 107.485249,232.775178 106.522889,232.455748 C100.710071,230.533062 94.9623601,228.396745 89.2797558,226.046796 C89.2950153,225.964395 89.3102747,225.878942 89.3224822,225.796541 C89.7589013,223.080366 89.1607325,220.303154 88.4343845,217.65412 C86.9084435,212.041709 84.7477111,206.484232 83.4689725,200.832146 C82.954012,198.624567 82.6162134,196.37938 82.4587996,194.118006 C82.422177,193.611394 82.4008138,193.101729 82.397762,192.592065 C82.3825025,191.926755 82.397762,191.261445 82.4252289,190.590031 C82.4893184,189.250254 82.5473042,187.660224 81.4760936,186.845371 C80.8870804,186.402848 80.1088505,186.326551 79.422177,186.057986 C78.0976602,185.542218 77.1912513,184.34588 76.1414039,183.387589 C75.1247686,182.401352 73.6876649,181.97901 72.2990844,182.258393 C65.4384537,183.830112 60.3967447,189.650051 54.0122075,192.592065 C53.7650051,192.708037 53.5178026,192.817904 53.2675483,192.921668 C52.4416779,193.224096 51.655645,193.625824 50.9267548,194.118006 C50.4145692,194.473531 50.0431096,194.997246 49.8769074,195.598169 C49.7151577,196.245168 49.8555443,196.922686 49.9348932,197.587996 C50.0633342,198.669749 50.0169639,199.765119 49.7975585,200.832146 C49.714807,201.245601 49.6057345,201.653348 49.4710071,202.052899 C49.2268566,202.776195 48.9003052,203.484232 48.5890132,204.189217 C46.9613428,203.094608 45.3570702,201.975585 43.7761953,200.832146 C41.5666328,199.241099 39.3835198,197.603255 37.2268566,195.918616 L35.9175992,194.865717 C30.273601,190.446237 24.9856999,185.589981 20.1027467,180.341811 C20.7527976,178.510682 21.6927772,176.807731 22.1444557,174.930824 C22.4008138,173.85351 22.4954222,172.733469 22.8494405,171.686673 C23.2576942,170.601419 23.8254831,169.583102 24.5340793,168.66531 C27.1292343,165.046173 30.2981162,161.87523 33.9155646,159.277721 C37.6968464,156.56765 42.0640895,154.39471 45.4669379,151.318413 C46.8478766,150.109418 48.0383093,148.698802 48.9979654,147.134283 C49.0559512,147.039674 49.110885,146.938962 49.1597152,146.829095 C49.4253324,146.276706 49.6093472,145.688681 49.706002,145.083418 C49.9501526,143.716175 49.91353,142.214649 50.0356053,140.90234 C54.1809423,141.619905 58.4069601,141.747313 62.5879959,141.280773 C67.4557477,140.734486 72.2166836,139.382503 77.0844354,138.857579 C77.4506612,138.814852 77.819939,138.781282 78.1892167,138.750763 C79.7487284,138.625636 81.311292,138.598169 82.8769074,138.61648 C84.1861648,138.61648 85.4954222,138.674466 86.8046796,138.717192 L101.218718,139.205493 C102.814852,139.260427 104.444557,139.321465 105.930824,139.904374 C107.694812,140.597152 109.107833,141.976602 110.240081,143.493388 C110.38352,143.688708 110.526958,143.884028 110.661241,144.085453 C111.592926,145.44456 112.340043,146.921349 112.883011,148.477111 C112.940997,148.635809 112.995931,148.782299 113.047813,148.956256 C113.185148,149.380468 113.304171,149.807731 113.410987,150.241099 C113.493388,150.579858 113.566633,150.918616 113.633774,151.260427 C113.969481,152.95117 114.167854,154.678535 114.698881,156.311292 C114.735504,156.430315 114.775178,156.549339 114.817904,156.66531 C115.455748,158.453713 116.514751,160.055951 117.314344,161.774161 C117.890851,163.017963 118.330856,164.320584 118.626653,165.659207 C119.224413,168.347356 119.236903,171.13264 118.663276,173.826043 Z" id="Shape" fill="#35323E"></path>
                        <path d="M74.8504578,64.6083418 C73.5625636,63.5829095 71.6948118,64.3336724 70.1871821,64.9959308 C68.9231424,65.5542194 67.6219637,66.0243161 66.2929807,66.4028484 C66.0210068,66.507523 65.726107,66.5380662 65.4384537,66.491353 C64.8280773,66.3448627 64.5717192,65.6215666 64.1169888,65.1820956 C63.3265514,64.422177 62.0325534,64.602238 61.0132248,65.0142421 C59.9938962,65.4262462 58.9867752,66.0213632 57.8942014,65.9298067 C56.7283825,65.8382503 55.7151577,64.9776195 54.5371312,64.9501526 C52.4618515,64.9013225 50.7192269,67.4587996 48.7568667,66.7812818 C47.560529,66.3692777 46.6205493,64.8128179 45.4425229,65.2553408 C44.5269583,65.6032553 44.4445575,66.8697864 43.8921668,67.6968464 C43.242116,68.6612411 41.9755849,68.9328586 40.8921668,69.3601221 C37.4771109,70.7090539 35.2156663,74.5147508 35.6612411,78.1586979 C35.9084435,80.1698881 36.8819939,82.0132248 37.525941,83.9328586 C39.4364191,89.5147508 38.7802645,95.8107833 41.1881994,101.194303 C41.4933876,100.907426 41.664293,100.80061 41.9603255,100.516785 C41.1989713,102.095827 41.0521166,103.901596 41.5483215,105.582909 C41.8016277,106.428281 42.2136317,107.215666 42.5249237,108.042726 C42.848294,108.970347 43.1093029,109.918543 43.3062055,110.880977 L45.9613428,122.5941 C46.9989827,127.171923 48.0396745,131.749746 48.2197355,136.437436 C48.3318444,139.48552 48.0984141,142.536495 47.5239064,145.532045 C52.3336724,144.735504 56.7344863,142.602238 61.6083418,142.629705 C63.3967447,142.629705 65.1698881,142.934893 66.9430315,143.179044 C72.1126765,143.902454 77.3273217,144.256353 82.5473042,144.238047 C83.3591655,144.284256 84.172182,144.170185 84.9399797,143.90234 C85.6113937,143.615463 86.1607325,143.105799 86.7955239,142.736521 C88.0376399,142.004069 89.5422177,141.820956 90.9735504,141.820956 C97.5015259,141.701933 103.791455,144.091556 110.276704,144.933876 C112.837233,139.559512 112.989827,133.120041 111.024415,127.501526 C110.441506,125.832146 109.657172,124.205493 109.425229,122.450661 C109.3321,121.371922 109.307635,120.288354 109.351984,119.206511 C109.341813,116.436868 108.842804,113.690765 107.877925,111.094608 C107.499491,110.078332 107.044761,109.043744 107.084435,107.960326 C107.12411,106.876907 107.658189,105.866734 108.183113,104.908444 C109.24822,102.955239 110.31943,100.983723 111.824008,99.335707 C113.365209,97.6327569 115.293998,96.335707 117.201424,95.0630722 L121.910478,91.9013225 C121.266531,87.8331638 120.436419,83.5483215 118.712106,79.8067141 C116.987792,76.0651068 114.408952,72.6256358 110.920651,70.4374364 C109.744564,69.7299306 108.513785,69.1176027 107.240081,68.6063072 C105.457782,67.8555443 103.602238,67.1932859 101.670397,67.0803662 C99.4730417,66.9552391 97.3092574,67.5442523 95.1393693,67.9104781 C88.3092574,69.0610376 80.2706002,68.9206511 74.8504578,64.6083418 Z" id="Shape" fill="#6C63FF"></path>
                        <path d="M126.341811,135.204476 L124.101729,138.033571 L119.877925,143.365209 L114.994914,149.526958 L113.630722,151.24822 L110.984741,151.24822 L45.4638861,151.324517 L4.43133266,151.370295 L2.60020346,151.370295 C2.3560529,150.607325 2.13021363,149.844354 1.92268566,149.050865 C1.61749746,147.915565 1.34994914,146.766022 1.12004069,145.602238 C1.07121058,145.379451 1.02848423,145.156663 0.988809766,144.930824 L15.8758901,135.198372 L21.4730417,135.167854 L21.4730417,135.167854 L38.5940997,135.070193 L38.5940997,135.070193 L48.155646,135.015259 L49.9013225,135.015259 L50.9969481,135.015259 L50.9969481,135.015259 L57.3692777,134.981689 L57.3692777,134.981689 L105.936928,134.703967 L105.936928,134.703967 L108.42116,134.688708 L108.42116,134.688708 L109.498474,134.688708 L112.351984,134.673449 L122.969481,134.612411 L125.008138,133.837233 L125.157681,133.995931 L126.341811,135.204476 Z" id="Shape" fill="#3F3D56"></path>
                        <path d="M125.426246,133.678535 L125.17294,133.983723 L123.506612,135.946083 L120.076297,139.995931 L112.883011,148.477111 L49.1597152,146.850458 L1.10783316,145.629705 C1.05900305,145.406918 1.0162767,145.18413 0.976602238,144.958291 C0.24716773,141.041731 -0.0749958282,137.060199 0.01525941,133.077314 L5.34384537,130.348932 L6.56459817,129.720244 L16.0651068,124.837233 L24.4028484,120.564598 L46.1505595,123.390641 L50.9664293,124.016277 L53.145473,124.29705 L56.3346897,124.712106 L56.6032553,124.748728 L106.614446,131.233978 L112.141404,131.95117 L115.385554,132.37233 L125.38352,133.672431 L125.426246,133.678535 Z" id="Shape" fill="#504F60"></path>
                        <path d="M115.049847,148.327569 L114.997965,149.526958 L114.692777,156.299084 L113.050865,193.532045 L112.70295,201.579858 L111.787386,222.283825 L111.271617,233.978637 L109.409969,233.395727 C108.445575,233.088505 107.482197,232.775178 106.519837,232.455748 L110.984741,151.275687 L111.079349,149.572737 L113.044761,148.96236 L115.049847,148.327569 Z" id="Shape" fill="#3F3D56"></path>
                        <path d="M4.57171923,148.239064 L4.43438454,151.373347 L4.23296033,155.95117 C3.65106816,154.504578 3.1180061,153.030519 2.63377416,151.528993 L2.58799593,151.379451 C2.34384537,150.61648 2.1180061,149.85351 1.91047813,149.06002 L4.57171923,148.239064 Z" id="Shape" fill="#3F3D56"></path>
                        <ellipse id="Oval" fill="#A1616A" cx="84.3784334" cy="83.17294" rx="14.0386572" ry="18.9216684"></ellipse>
                        <ellipse id="Oval" fill="#000000" opacity="0.1" cx="84.3784334" cy="83.17294" rx="14.0386572" ry="18.9216684"></ellipse>
                        <circle id="Oval" fill="#A1616A" cx="86.3621567" cy="71.7283825" r="19.5320448"></circle>
                        <path d="M86.7497457,41.6246185 C85.5572673,41.7196991 84.3731484,41.9002237 83.2065107,42.1648016 C80.1180061,42.9155646 77.4476094,44.5818922 74.8474059,46.2177009 C73.681587,46.9532045 72.4821974,47.7192269 71.7589013,48.7995931 C70.4587996,50.7375381 70.9623601,53.2034588 70.2329603,55.3550356 C69.854527,56.4598169 69.1586979,57.4516785 68.5696846,58.4801628 C66.9491353,61.3001017 66.1007121,64.397762 65.2675483,67.4649034 C65.0966429,68.0996948 65.0478128,68.9603255 65.74059,69.2044761 C66.1395115,69.2873318 66.5544822,69.2402733 66.9247202,69.0701933 C69.1129196,68.3468973 71.8931841,68.1393693 73.5167854,69.6073245 C75.1403866,71.0752798 75.0030519,73.6785351 76.9348932,74.7955239 C79.1475076,76.08647 82.602238,74.5269583 84.6103764,76.0498474 C85.4710071,76.7029502 85.7822991,77.7497457 86.4872838,78.5371312 C88.1291963,80.3682604 91.2878942,80.2797558 93.9155646,79.9104781 C95.4231943,79.6968464 97.2726348,79.5534079 98.1881994,80.612411 C98.6276704,81.1129196 98.7527976,81.7995931 99.2624619,82.2512716 C100.178026,83.069176 101.85351,82.65412 102.747711,81.8148525 C103.641913,80.9755849 104.069176,79.8402848 104.813835,78.8972533 C106.263479,77.0661241 108.811801,76.0681587 110.307223,74.2583927 C111.558494,72.7324517 111.936928,70.8219736 112.278739,68.9786368 L113.551373,62.145473 C114.067141,59.3743642 114.537131,56.3468973 112.97762,53.9053917 C112.422177,53.0264496 111.625636,52.2695829 111.14649,51.3601221 C110.826043,50.7497457 110.645982,50.1057986 110.273652,49.5289929 C109.832134,48.9281054 109.304614,48.3954438 108.708037,47.948118 L105.695829,45.4547304 C104.665933,44.5532666 103.564667,43.7367584 102.402848,43.0132248 C98.1027467,40.5076297 91.6632757,41.1668362 86.7497457,41.6246185 Z" id="Shape" fill="#464353"></path>
                        <path d="M22.4160732,91.9379451 C21.6927772,92.7070193 21.0244151,93.5371312 20.249237,94.2573754 C19.5673267,94.8638117 18.8542525,95.4342711 18.1129196,95.9664293 C16.9165819,96.861648 15.7466938,97.7884028 14.6032553,98.7466938 C13.4103287,99.6898715 12.3308813,100.768295 11.3865717,101.960326 C9.75686673,104.148525 8.98474059,106.870804 7.45879959,109.132248 C6.10986775,111.137335 4.20854527,112.721261 2.83825025,114.711089 C2.23709925,115.547695 1.79058418,116.485169 1.51983723,117.479145 C1.31774296,118.441144 1.22660872,119.423141 1.24821974,120.4059 C1.2207528,122.017294 1.19633774,123.646999 1.525941,125.224822 C1.85554425,126.802645 2.57884028,128.353001 3.81790437,129.387589 C4.96846389,130.348932 6.45473042,130.791455 7.91047813,131.157681 C8.6612411,131.343845 9.47304171,131.517803 10.1871821,131.22177 C10.7097499,130.957821 11.1633368,130.575303 11.5116989,130.104781 L15.2258393,125.832146 C17.7100712,122.963377 20.2919634,120.033571 23.7009156,118.355036 C24.7690743,117.833164 25.8952187,117.439471 26.9664293,116.932859 C31.5076297,114.744659 34.7182096,110.264496 35.9633774,105.381485 C36.2685656,104.188199 36.4638861,102.970498 36.6622584,101.752798 L37.1993896,98.4140387 C37.2406352,98.246654 37.2406352,98.0717591 37.1993896,97.9043744 C37.1152767,97.7161581 36.9799053,97.5554046 36.8087487,97.4404883 C34.2216982,95.3512143 31.7994733,93.0657115 29.5635809,90.6042726 C29.0325534,90.0183113 28.5350966,89.2156663 27.9216684,88.7243133 C27.1525941,88.1139369 27.2105799,88.1597152 26.2858596,88.7243133 C24.8633504,89.6249958 23.5627291,90.7050859 22.4160732,91.9379451 Z" id="Shape" fill="#A1616A"></path>
                        <path d="M47.8229908,114.155646 C47.7388837,113.962594 47.5557822,113.831129 47.3459733,113.813151 C47.1361645,113.795173 46.9333665,113.893572 46.8176425,114.069501 C46.7019186,114.245429 46.6918665,114.470615 46.7914547,114.656155 L46.4862665,114.805697 L55.5869786,133.4588 L57.231943,132.656155 L48.1312309,113.990844 L47.8229908,114.155646 Z" id="Shape" fill="#3F3D56"></path>
                        <path d="M22.4160732,91.9379451 C21.6927772,92.7070193 21.0244151,93.5371312 20.249237,94.2573754 C19.5673267,94.8638117 18.8542525,95.4342711 18.1129196,95.9664293 C16.9165819,96.861648 15.7466938,97.7884028 14.6032553,98.7466938 C13.4103287,99.6898715 12.3308813,100.768295 11.3865717,101.960326 C9.75686673,104.148525 8.98474059,106.870804 7.45879959,109.132248 C6.10986775,111.137335 4.20854527,112.721261 2.83825025,114.711089 C2.23709925,115.547695 1.79058418,116.485169 1.51983723,117.479145 C1.31774296,118.441144 1.22660872,119.423141 1.24821974,120.4059 C1.2207528,122.017294 1.19633774,123.646999 1.525941,125.224822 C1.85554425,126.802645 2.57884028,128.353001 3.81790437,129.387589 C4.96846389,130.348932 6.45473042,130.791455 7.91047813,131.157681 C8.6612411,131.343845 9.47304171,131.517803 10.1871821,131.22177 C10.7097499,130.957821 11.1633368,130.575303 11.5116989,130.104781 L15.2258393,125.832146 C17.7100712,122.963377 20.2919634,120.033571 23.7009156,118.355036 C24.7690743,117.833164 25.8952187,117.439471 26.9664293,116.932859 C31.5076297,114.744659 34.7182096,110.264496 35.9633774,105.381485 C36.2685656,104.188199 36.4638861,102.970498 36.6622584,101.752798 L37.1993896,98.4140387 C37.2406352,98.246654 37.2406352,98.0717591 37.1993896,97.9043744 C37.1152767,97.7161581 36.9799053,97.5554046 36.8087487,97.4404883 C34.2216982,95.3512143 31.7994733,93.0657115 29.5635809,90.6042726 C29.0325534,90.0183113 28.5350966,89.2156663 27.9216684,88.7243133 C27.1525941,88.1139369 27.2105799,88.1597152 26.2858596,88.7243133 C24.8633504,89.6249958 23.5627291,90.7050859 22.4160732,91.9379451 Z" id="Shape" fill="#000000" opacity="0.04"></path>
                        <path d="M127.626653,126.314344 C127.596134,128.261445 127.519837,130.266531 126.711089,132.042726 C126.363174,132.811801 125.822991,133.568667 125.014242,133.821974 C124.524806,133.935032 124.018295,133.953676 123.521872,133.876907 C117.534383,133.350675 111.501044,133.829298 105.671414,135.292981 C107.227874,132.180061 106.333672,128.447609 106.763988,124.992879 C106.883011,124.049847 107.099695,123.122075 107.182096,122.175992 C107.487284,118.818922 106.049847,115.559512 105.390641,112.245168 C104.818398,109.376171 104.818398,106.422405 105.390641,103.553408 C105.502897,102.814906 105.756788,102.105049 106.138352,101.462869 C106.585369,100.838011 107.172852,100.326837 107.85351,99.9704985 C110.325534,98.5635809 113.240081,98.4018311 116.017294,98.5879959 C117.888098,98.7131231 121.638861,98.5361139 123.198372,99.6866734 C124.904374,100.947101 125.444557,105.180061 125.905392,107.136317 C126.595399,110.136602 127.064611,113.183418 127.309257,116.252289 C127.608342,119.597152 127.672431,122.957274 127.626653,126.314344 Z" id="Shape" fill="#A1616A"></path>
                        <polygon id="Shape" fill="#FFFFFF" points="18.3051882 133.071211 29.2919634 140.395727 78.7324517 138.564598 46.0773143 133.071211"></polygon>
                        <path d="M32.792472,74.8748728 C30.9888098,76.4649034 29.4598169,78.3387589 27.750763,80.0325534 C25.4069176,82.3580875 22.7426246,84.335707 20.0905392,86.3041709 C22.0249706,86.844859 23.5321366,88.3636185 24.0579858,90.3021363 C24.1739573,90.750763 24.231943,91.2177009 24.363174,91.6571719 C24.6683622,92.6978637 25.3397762,93.595117 26.0600203,94.4038657 C29.1546287,97.8921668 33.4852492,100.474059 35.3102747,104.780264 C35.3698327,104.989803 35.4990046,105.172796 35.6765005,105.299084 C35.824993,105.364828 35.9899352,105.383983 36.1495422,105.354018 C37.8006104,105.180061 39.0640895,103.84944 40.1169888,102.555443 C42.3143438,99.8087487 44.2217701,96.775178 45.3051882,93.4242116 C46.3886063,90.0732452 46.5625636,86.3682604 45.3814852,83.0478128 C44.792472,81.3936928 43.8830112,79.8738555 42.9796541,78.3692777 C42.1881994,77.0528993 41.3987792,75.7385554 40.6113937,74.4262462 C40.1993896,73.733469 39.6744659,72.3265514 38.8657172,71.9847406 C37.1200407,71.2339776 33.9125127,73.7548321 32.792472,74.8748728 Z" id="Shape" fill="#6C63FF"></path>
                        <path d="M122.682604,94.5991862 L125.279756,100.70295 C119.543934,98.6987995 113.193984,99.5791593 108.219736,103.068159 C106.739573,104.127162 105.381485,105.457782 104.713123,107.148525 C104.039907,107.276505 103.352935,107.007174 102.946083,106.455748 C102.555438,105.907814 102.328903,105.259967 102.292981,104.587996 C102.051882,102.244151 102.93998,99.9460834 103.818922,97.7548321 C104.227874,96.7293998 104.649034,95.6826043 105.375381,94.8494405 C106.101729,94.0162767 107.066124,93.4669379 108.030519,92.948118 C111.107211,91.246556 114.32954,89.8228072 117.659207,88.6937945 C119.063072,88.2390641 120.534079,88.2482197 121.321465,89.560529 C122.233978,91.1261445 121.968464,92.9328586 122.682604,94.5991862 Z" id="Shape" fill="#6C63FF"></path>
                        <path d="M18.3692777,112.91353 C19.0193286,113.43235 19.5900305,114.045778 20.2583927,114.540183 C20.965224,115.030977 21.7173771,115.453041 22.5045778,115.80061 L25.5137335,117.247202 C26.446225,117.731877 27.4219865,118.128312 28.4282808,118.431333 C29.716175,118.776195 31.0681587,118.809766 32.3621567,119.130214 C33.9949135,119.533062 35.4872838,120.37233 37.0956256,120.857579 C38.7039674,121.342828 40.5869786,121.422177 41.9298067,120.412004 C42.7690743,119.780264 43.4038657,118.736521 44.4445575,118.580875 C45.1159715,118.49237 45.7629705,118.81587 46.3611394,119.130214 L54.1922686,123.247202 C55.2482197,123.802645 56.3652085,124.419125 56.9175992,125.478128 C57.4699898,126.537131 57.0976602,128.145473 55.9348932,128.420142 C55.5296394,128.466712 55.122061,128.490147 54.7141404,128.490336 C54.311292,128.539166 53.871821,128.777213 53.8168871,129.183113 C53.8148407,129.435178 53.8812957,129.683066 54.0091556,129.900305 C54.3601221,130.706002 54.4638861,131.670397 54.0549339,132.451679 C53.6459817,133.23296 52.6419125,133.71821 51.8392675,133.367243 C51.9766022,134.548321 50.6917599,135.375381 49.5473042,135.689725 C46.6602238,136.480163 43.5991862,135.994914 40.6480163,135.494405 C39.4883011,135.299084 38.3102747,135.09766 37.2543235,134.57884 C36.7477111,134.331638 36.2777213,134.014242 35.7650051,133.785351 C34.3580875,133.159715 32.7589013,133.242116 31.2207528,133.269583 C24.1068159,133.39471 17.0539166,132.076297 10.0590031,130.763988 C8.7619532,130.519837 7.42828077,130.260427 6.32044761,129.543235 C4.18413021,128.151577 3.3906409,125.295015 3.74160732,122.768057 C4.09257375,120.241099 5.37436419,117.952187 6.63479145,115.730417 L8.26754832,112.852492 C8.48098795,112.411621 8.77972955,112.017448 9.14649034,111.692777 C11.5483215,109.858596 16.3123093,111.25941 18.3692777,112.91353 Z" id="Shape" fill="#A1616A"></path>
                        <path d="M18.3692777,112.91353 C19.0193286,113.43235 19.5900305,114.045778 20.2583927,114.540183 C20.965224,115.030977 21.7173771,115.453041 22.5045778,115.80061 L25.5137335,117.247202 C26.446225,117.731877 27.4219865,118.128312 28.4282808,118.431333 C29.716175,118.776195 31.0681587,118.809766 32.3621567,119.130214 C33.9949135,119.533062 35.4872838,120.37233 37.0956256,120.857579 C38.7039674,121.342828 40.5869786,121.422177 41.9298067,120.412004 C42.7690743,119.780264 43.4038657,118.736521 44.4445575,118.580875 C45.1159715,118.49237 45.7629705,118.81587 46.3611394,119.130214 L54.1922686,123.247202 C55.2482197,123.802645 56.3652085,124.419125 56.9175992,125.478128 C57.4699898,126.537131 57.0976602,128.145473 55.9348932,128.420142 C55.5296394,128.466712 55.122061,128.490147 54.7141404,128.490336 C54.311292,128.539166 53.871821,128.777213 53.8168871,129.183113 C53.8148407,129.435178 53.8812957,129.683066 54.0091556,129.900305 C54.3601221,130.706002 54.4638861,131.670397 54.0549339,132.451679 C53.6459817,133.23296 52.6419125,133.71821 51.8392675,133.367243 C51.9766022,134.548321 50.6917599,135.375381 49.5473042,135.689725 C46.6602238,136.480163 43.5991862,135.994914 40.6480163,135.494405 C39.4883011,135.299084 38.3102747,135.09766 37.2543235,134.57884 C36.7477111,134.331638 36.2777213,134.014242 35.7650051,133.785351 C34.3580875,133.159715 32.7589013,133.242116 31.2207528,133.269583 C24.1068159,133.39471 17.0539166,132.076297 10.0590031,130.763988 C8.7619532,130.519837 7.42828077,130.260427 6.32044761,129.543235 C4.18413021,128.151577 3.3906409,125.295015 3.74160732,122.768057 C4.09257375,120.241099 5.37436419,117.952187 6.63479145,115.730417 L8.26754832,112.852492 C8.48098795,112.411621 8.77972955,112.017448 9.14649034,111.692777 C11.5483215,109.858596 16.3123093,111.25941 18.3692777,112.91353 Z" id="Shape" fill="#000000" opacity="0.04"></path>
                        <path d="M111.531027,118.187182 C109.940997,118.937945 108.115972,119.01119 106.455748,119.587996 C104.795524,120.164802 103.385554,121.202442 101.862665,122.047813 C97.8952187,124.263479 93.3173957,125.099695 88.8219736,125.896236 C86.0966429,126.384537 83.328586,126.872838 80.5818922,126.756867 C76.8646999,126.598169 73.293998,125.359105 69.6927772,124.425229 C66.0915565,123.491353 62.249237,122.862665 58.681587,123.912513 C54.9031003,125.062994 51.8992477,127.945559 50.5940997,131.673449 C49.8463886,133.867752 49.7426246,136.23296 49.8860631,138.546287 C50.636826,139.098678 51.6866734,138.332655 52.0956256,137.493388 C52.5045778,136.65412 52.7273652,135.625636 53.5208545,135.137335 C54.8972533,135.604273 55.2329603,137.438454 56.3682604,138.344863 C57.076297,138.912513 58.0223805,139.062055 58.9226857,139.190234 L63.5615463,139.84944 C64.6785351,140.008138 65.9755849,140.114954 66.7843337,139.327569 C67.1780264,138.946083 67.3947101,138.412004 67.7548321,138.003052 C68.4933876,137.185148 69.7263479,137.044761 70.8250254,137.154629 C74.2553408,137.496439 77.4720244,139.721261 80.8779247,139.193286 C82.0498474,139.013225 83.1393693,138.512716 84.2563581,138.119023 C90.8758901,135.781282 98.2309257,137.203459 105.119023,135.863683 C107.746694,135.354018 110.276704,134.450661 112.776195,133.498474 C114.134283,132.982706 115.50763,132.442523 116.667345,131.569685 C118.900759,129.852408 120.094932,127.107883 119.829095,124.303154 C119.573604,122.200353 118.524474,120.274582 116.896236,118.919634 C116.359105,118.461851 115.65412,117.585961 115.010173,117.299084 C113.780264,116.758901 112.574771,117.695829 111.531027,118.187182 Z" id="Shape" fill="#A1616A"></path>
                        <g id="Group" opacity="0.1" transform="translate(65.615463, 46.083418)" fill="#000000">
                            <path d="M36.9979654,33.1159715 C36.4883011,32.664293 36.363174,31.9776195 35.923703,31.4771109 C35.0081384,30.4181078 33.1586979,30.5615463 31.6510682,30.775178 C29.0233978,31.1444557 25.8524924,31.2299084 24.2227874,29.4018311 C23.5178026,28.6144456 23.2065107,27.5707019 22.34588,26.9145473 C20.3377416,25.3886063 16.8830112,26.9511699 14.6703967,25.6602238 C12.7385554,24.5340793 12.8636826,21.9216684 11.2522889,20.4720244 C9.64089522,19.0223805 6.84842319,19.2115972 4.6602238,19.9348932 C4.28998575,20.1049732 3.87501508,20.1520317 3.47609359,20.069176 C2.78331638,19.8250254 2.83214649,18.9643947 3.00305188,18.3296033 C3.83621567,15.2624619 4.68463886,12.1648016 6.3051882,9.34486267 C6.89420142,8.31637843 7.59003052,7.32451679 7.96846389,6.2197355 C8.63072228,4.28484232 8.29196338,2.09664293 9.16174975,0.265513733 C8.22787386,0.875890132 7.33062055,1.54120041 6.75381485,2.40183113 C5.45371312,4.3397762 5.95727365,6.80569685 5.22787386,8.95727365 C4.84944049,10.0620549 4.15361139,11.0539166 3.56459817,12.0824008 C1.94404883,14.9023398 1.09562564,18 0.262461851,21.0671414 C0.0915564598,21.7019329 0.0427263479,22.5625636 0.735503561,22.8067141 C1.13442505,22.8895699 1.54939572,22.8425114 1.91963377,22.6724313 C4.10783316,21.9491353 6.88809766,21.7416073 8.51169888,23.2095626 C10.1353001,24.6775178 9.99796541,27.2807731 11.9298067,28.397762 C14.1424212,29.688708 17.5971516,28.1291963 19.6052899,29.6520855 C20.4659207,30.3051882 20.7772126,31.3519837 21.4821974,32.1393693 C23.1241099,33.9704985 26.2828077,33.8819939 28.9104781,33.5127162 C30.4181078,33.2990844 32.2675483,33.155646 33.1831129,34.214649 C33.6225839,34.7151577 33.7477111,35.4018311 34.2573754,35.8535097 C35.17294,36.671414 36.8484232,36.2563581 37.7426246,35.4170905 C38.315978,34.8200257 38.8066224,34.1487256 39.2014242,33.4211597 C38.4079349,33.6622584 37.5625636,33.6256358 36.9979654,33.1159715 Z" id="Shape"></path>
                            <path d="M42.5584944,29.7589013 C42.3619283,30.0120803 42.1795527,30.2759646 42.0122075,30.5493388 C43.1841302,29.7131231 44.4262462,28.9318413 45.3021363,27.8667345 C45.5294939,27.5910938 45.7336494,27.2971098 45.9125127,26.9877925 C44.6948118,27.8606307 43.4252289,28.6632757 42.5584944,29.7589013 Z" id="Shape"></path>
                        </g>
                        <polygon id="Shape" fill="#3F3D56" points="169.831129 136.275687 170.746694 223.8647 175.019329 223.254323 174.103764 136.275687"></polygon>
                        <polygon id="Shape" fill="#3F3D56" points="195.466938 152.145473 196.382503 239.734486 200.655137 239.12411 199.739573 152.145473"></polygon>
                        <path d="M275.282808,196.391658 L275.282808,196.391658 L275.264496,194.710071 L275.264496,193.709054 L275.102747,178.303154 L274.84944,154.217701 L274.806714,152.139369 L270.534079,152.139369 L270.555443,154.141404 L270.689725,167.041709 L270.747711,172.626653 L270.747711,172.626653 L270.796541,177.149542 L270.87589,184.968464 L270.92472,189.579858 L270.92472,189.579858 L270.92472,190.068159 L270.98881,196.129196 L271.043744,201.473042 L271.391658,201.088505 C271.95117,200.463886 272.498474,199.829095 273.033571,199.18413 L275.282808,196.391658 Z" id="Shape" fill="#3F3D56"></path>
                        <polygon id="Shape" fill="#6C63FF" points="190.736521 166.336724 188.295015 169.986775 190.736521 186.61648 211.489318 192.296033 245.06002 192.296033 265.202442 193.513733 274.797558 186.946083 273.137335 175.666328 265.812818 166.336724"></polygon>
                        <path d="M188.295015,169.986775 L187.074262,180.125127 C187.074262,180.125127 180.66531,200.002035 232.242116,198.784334 C283.818922,197.566633 274.968464,193.510682 274.968464,193.510682 L274.663276,181.748728 C274.663276,181.748728 276.460834,187.315361 250.24822,186.561546 C224.035605,185.807731 199.586979,183.37233 199.586979,183.37233 C199.586979,183.37233 190.431333,184.992879 188.295015,169.986775 Z" id="Shape" fill="#3F3D56"></path>
                        <path d="M231.265514,79.1139369 C228.323499,80.4537131 226.095626,83.0508647 224.603255,85.9226857 C223.110885,88.7945066 222.271617,91.9471007 221.444557,95.0783316 C220.571719,98.380468 219.695829,101.69176 219.244151,105.076297 C218.438454,111.094608 219.042726,117.42116 221.807731,122.826043 C224.572737,128.230926 229.681587,132.592065 235.663276,133.632757 C237.97355,134.038657 240.347915,133.956256 242.682604,133.715158 C246.902537,133.268286 251.059464,132.352144 255.076297,130.983723 C259.272635,129.564598 263.639878,127.379451 265.50763,123.354018 C266.591048,121.019329 266.682604,118.358087 266.630722,115.788403 C266.486723,108.784621 265.428954,101.82961 263.484232,95.0996948 C262.919634,93.1464903 262.263479,91.1780264 261.067141,89.5330621 C259.870804,87.8880977 258.234995,86.6826043 256.565615,85.5656155 C249.427263,80.7589013 240.045778,75.1220753 231.265514,79.1139369 Z" id="Shape" fill="#FBBEBE"></path>
                        <path d="M231.265514,79.1139369 C228.323499,80.4537131 226.095626,83.0508647 224.603255,85.9226857 C223.110885,88.7945066 222.271617,91.9471007 221.444557,95.0783316 C220.571719,98.380468 219.695829,101.69176 219.244151,105.076297 C218.438454,111.094608 219.042726,117.42116 221.807731,122.826043 C224.572737,128.230926 229.681587,132.592065 235.663276,133.632757 C237.97355,134.038657 240.347915,133.956256 242.682604,133.715158 C246.902537,133.268286 251.059464,132.352144 255.076297,130.983723 C259.272635,129.564598 263.639878,127.379451 265.50763,123.354018 C266.591048,121.019329 266.682604,118.358087 266.630722,115.788403 C266.486723,108.784621 265.428954,101.82961 263.484232,95.0996948 C262.919634,93.1464903 262.263479,91.1780264 261.067141,89.5330621 C259.870804,87.8880977 258.234995,86.6826043 256.565615,85.5656155 C249.427263,80.7589013 240.045778,75.1220753 231.265514,79.1139369 Z" id="Shape" fill="#000000" opacity="0.05"></path>
                        <path d="M227.960326,117.527976 C228.811919,118.698474 229.84171,119.728264 231.012208,120.579858 C233.917599,122.587996 237.646999,122.859613 241.174975,122.969481 C244.007121,123.054934 247.254323,122.893184 249.030519,120.683622 C249.830112,119.688708 250.190234,118.419125 250.513733,117.183113 C252.510105,109.593353 253.928207,101.863166 254.755849,94.0590031 L262.837233,94.08647 C266.33469,109.062055 266.047813,124.629705 265.742625,140.008138 L265.300102,162.433367 L260.093591,161.880977 C247.730417,160.571719 235.348932,159.262462 222.918616,159.036623 C215.635396,158.902694 208.350104,159.143093 201.091556,159.756867 L212.429298,126.045778 C213.900305,121.663276 215.386572,117.222787 215.731434,112.617497 C216.228891,105.936928 214.355036,98.8840285 216.952187,92.7039674 C217.159715,92.2065107 217.422177,91.6907426 217.895219,91.4313327 C218.36826,91.1719227 218.966429,91.2360122 219.509664,91.3062055 C220.535097,91.4435402 223.669379,91.3062055 224.414039,91.9623601 C225.512716,92.9145473 224.786368,93.0579858 224.398779,94.5930824 C223.706002,97.3397762 223.049847,99.8819939 223.059003,102.744659 C223.068159,107.942014 224.679552,113.429298 227.960326,117.527976 Z" id="Shape" fill="#6C63FF"></path>
                        <path d="M275.282808,196.391658 L275.282808,196.391658 C276.643947,194.584944 277.926755,192.71414 279.131231,190.779247 C278.520855,189.473042 277.84944,188.197355 277.315361,186.863683 C276.497457,184.818922 276.027467,182.652085 275.563581,180.500509 C275.404883,179.768057 275.247202,179.035605 275.090539,178.303154 C273.381485,170.33469 271.776195,162.253306 271.44354,154.174975 C271.413021,153.503561 271.393693,152.832146 271.385554,152.160732 L271.385554,151.855544 L271.385554,149.652085 C271.422177,147.820956 271.538149,145.974568 271.748728,144.137335 C271.788403,143.777213 271.834181,143.417091 271.883011,143.056968 C271.883011,142.97762 271.901322,142.901322 271.91353,142.821974 L292.666328,142.065107 L292.666328,142.065107 L294.412004,142.001017 C295.611394,141.958291 296.880977,141.89115 297.869786,141.21058 C299.533062,140.069176 299.728383,137.728383 299.700916,135.717192 C299.599911,130.633859 299.023647,125.571116 297.979654,120.595117 C297.192269,116.85351 296.069176,113.029502 293.548321,110.154629 C291.479145,107.792472 288.482197,106.074262 287.404883,103.1353 C287.005086,102.042726 286.904374,100.843337 286.385554,99.7995931 C285.866734,98.7558494 285.009156,97.9898271 284.200407,97.1841302 C281.354101,94.3637297 278.99277,91.0929252 277.211597,87.5035605 C275.975585,85.0132248 274.635809,82.266531 273.021363,80.5452696 C272.942014,80.456765 272.862665,80.3743642 272.780264,80.2950153 C271.406918,78.9369278 269.835198,78.3418108 267.97355,79.266531 C267.638804,79.4345081 267.320086,79.6326851 267.021363,79.8585961 L267.021363,79.8585961 C266.357904,80.3655282 265.751131,80.9426278 265.211597,81.5798576 C263.331061,83.7420746 261.681236,86.0945844 260.288911,88.5991862 C259.309919,90.3625569 258.469149,92.1991922 257.774161,94.0925738 C257.225627,95.5884301 256.77203,97.117409 256.416073,98.6703967 C256.153611,99.8209563 255.946083,100.983723 255.781282,102.149542 C255.170905,106.532045 255.170905,111 255.256358,115.437436 C255.347915,119.514751 255.527976,123.601221 255.897253,127.663276 C255.98881,128.645982 256.090539,129.62767 256.202442,130.608342 C256.426246,132.547304 256.70295,134.480163 257.032553,136.406918 C257.163784,137.142421 257.298067,137.877925 257.447609,138.610376 C257.484232,138.805697 257.523906,139.001017 257.563581,139.193286 L257.581892,139.275687 C257.985032,140.978196 258.297779,142.70085 258.51882,144.436419 C258.543235,144.65412 258.561546,144.870804 258.573754,145.08647 C258.625134,146.084034 258.616981,147.083773 258.549339,148.080366 C258.479145,149.258393 258.369278,150.433367 258.314344,151.611394 C258.314344,151.818922 258.314344,152.023398 258.292981,152.22177 C258.277721,152.816887 258.292981,153.412004 258.292981,154.007121 C258.354866,155.430884 258.524219,156.847937 258.799593,158.246185 C259.314342,160.846998 260.203555,163.359413 261.439471,165.704985 C261.555443,165.92472 261.674466,166.141404 261.793489,166.355036 C263.340793,169.120041 265.293998,171.656155 266.725331,174.485249 C267.959982,177.031111 268.882241,179.716935 269.472024,182.484232 C269.675483,183.397762 269.868769,184.313327 270.051882,185.230926 C270.335707,186.695829 270.589013,188.17294 270.848423,189.650051 C270.872838,189.796541 270.900305,189.955239 270.927772,190.089522 C271.272635,192.04883 271.635809,193.998983 272.102747,195.912513 C272.374364,197.02645 272.679552,198.125127 273.036623,199.205493 L275.282808,196.391658 Z" id="Shape" fill="#464353"></path>
                        <path d="M271.205493,172.336724 C271.205493,172.611394 271.187182,172.886063 271.174975,173.163784 C271.120501,174.502902 270.997246,175.838336 270.805697,177.164802 C270.552804,178.975373 270.109871,180.754264 269.484232,182.472024 C269.0695,183.60157 268.541907,184.686408 267.909461,185.710071 C267.348522,186.619038 266.691658,187.465185 265.950153,188.233978 C264.119023,190.138352 261.482197,190.745677 258.930824,191.548321 C257.756931,191.888175 256.622403,192.351602 255.546287,192.930824 C255.354018,193.03764 255.164802,193.153611 254.981689,193.275687 L251.78942,195.390641 C250.794507,196.046796 249.77823,196.727365 249.094608,197.700916 C248.982606,197.866549 248.880692,198.038784 248.78942,198.216684 C248.357425,199.112856 248.041548,200.060488 247.84944,201.036623 C246.189217,207.952187 244.525941,214.873856 243.387589,221.893184 C243.311292,222.35707 243.238047,222.824008 243.158698,223.290946 L243.131231,223.437436 C243.117452,223.402711 243.101131,223.369049 243.082401,223.336724 C234.915565,228.274669 226.446592,232.730417 217.721261,236.298067 L215.826043,220.428281 C215.628519,219.138199 215.563073,217.831337 215.630722,216.527976 C215.810783,214.474059 216.646999,212.526958 216.872838,210.479145 C217.08675,208.474358 216.70794,206.450855 215.783316,204.659207 C215.423194,203.963377 214.971516,203.279756 214.889115,202.501526 C214.806714,201.723296 215.255341,201.012208 216.036623,200.932859 C216.646999,200.255341 216.695829,199.330621 216.515768,198.415056 C216.42011,197.937094 216.276979,197.469874 216.088505,197.020346 C215.569685,195.744659 214.91353,194.356053 215.359105,193.052899 C215.47696,192.816687 215.529637,192.5533 215.511699,192.289929 C215.514906,192.27381 215.514906,192.257217 215.511699,192.241099 C215.407935,191.899288 215.002035,191.749746 214.791455,191.459817 C214.39471,190.919634 214.791455,190.18413 215.035605,189.561546 C215.273046,188.892556 215.410837,188.192291 215.444557,187.483215 C215.478128,187.089522 215.502543,186.692777 215.54527,186.302136 C215.604716,185.773492 215.699537,185.249428 215.829095,184.733469 C216.570454,181.809934 218.353445,179.257533 220.843337,177.555443 C222.030519,176.755849 223.351984,176.17294 224.563581,175.419125 C225.804717,174.582438 226.989378,173.664886 228.109868,172.672431 C230.797558,170.434385 233.592065,168.324517 236.493388,166.342828 C239.613092,164.212253 242.844568,162.25014 246.173957,160.464903 C246.886063,160.080366 247.598169,159.706002 248.310275,159.341811 C249.085453,158.934893 249.865717,158.549339 250.651068,158.185148 C253.165819,156.985758 256.019329,157.434385 258.799593,158.233978 C259.965412,158.566633 261.115972,158.963377 262.226857,159.323499 C263.311717,159.676185 264.355389,160.144814 265.339776,160.721261 C267.802645,162.167854 269.83825,164.304171 270.683622,167.002035 C270.684972,167.019302 270.684972,167.036649 270.683622,167.053917 C271.220753,168.744659 271.254323,170.557477 271.205493,172.336724 Z" id="Shape" fill="#F86D70"></path>
                        <path d="M271.205493,172.336724 C271.205493,172.611394 271.187182,172.886063 271.174975,173.163784 C271.120501,174.502902 270.997246,175.838336 270.805697,177.164802 C270.552804,178.975373 270.109871,180.754264 269.484232,182.472024 C269.0695,183.60157 268.541907,184.686408 267.909461,185.710071 C267.348522,186.619038 266.691658,187.465185 265.950153,188.233978 C264.119023,190.138352 261.482197,190.745677 258.930824,191.548321 C257.756931,191.888175 256.622403,192.351602 255.546287,192.930824 C255.354018,193.03764 255.164802,193.153611 254.981689,193.275687 L251.78942,195.390641 C250.794507,196.046796 249.77823,196.727365 249.094608,197.700916 C248.982606,197.866549 248.880692,198.038784 248.78942,198.216684 C248.357425,199.112856 248.041548,200.060488 247.84944,201.036623 C246.189217,207.952187 244.525941,214.873856 243.387589,221.893184 C243.311292,222.35707 243.238047,222.824008 243.158698,223.290946 L243.131231,223.437436 C243.117452,223.402711 243.101131,223.369049 243.082401,223.336724 C234.915565,228.274669 226.446592,232.730417 217.721261,236.298067 L215.826043,220.428281 C215.628519,219.138199 215.563073,217.831337 215.630722,216.527976 C215.810783,214.474059 216.646999,212.526958 216.872838,210.479145 C217.08675,208.474358 216.70794,206.450855 215.783316,204.659207 C215.423194,203.963377 214.971516,203.279756 214.889115,202.501526 C214.806714,201.723296 215.255341,201.012208 216.036623,200.932859 C216.646999,200.255341 216.695829,199.330621 216.515768,198.415056 C216.42011,197.937094 216.276979,197.469874 216.088505,197.020346 C215.569685,195.744659 214.91353,194.356053 215.359105,193.052899 C215.47696,192.816687 215.529637,192.5533 215.511699,192.289929 C215.514906,192.27381 215.514906,192.257217 215.511699,192.241099 C215.407935,191.899288 215.002035,191.749746 214.791455,191.459817 C214.39471,190.919634 214.791455,190.18413 215.035605,189.561546 C215.273046,188.892556 215.410837,188.192291 215.444557,187.483215 C215.478128,187.089522 215.502543,186.692777 215.54527,186.302136 C215.604716,185.773492 215.699537,185.249428 215.829095,184.733469 C216.570454,181.809934 218.353445,179.257533 220.843337,177.555443 C222.030519,176.755849 223.351984,176.17294 224.563581,175.419125 C225.804717,174.582438 226.989378,173.664886 228.109868,172.672431 C230.797558,170.434385 233.592065,168.324517 236.493388,166.342828 C239.613092,164.212253 242.844568,162.25014 246.173957,160.464903 C246.886063,160.080366 247.598169,159.706002 248.310275,159.341811 C249.085453,158.934893 249.865717,158.549339 250.651068,158.185148 C253.165819,156.985758 256.019329,157.434385 258.799593,158.233978 C259.965412,158.566633 261.115972,158.963377 262.226857,159.323499 C263.311717,159.676185 264.355389,160.144814 265.339776,160.721261 C267.802645,162.167854 269.83825,164.304171 270.683622,167.002035 C270.684972,167.019302 270.684972,167.036649 270.683622,167.053917 C271.220753,168.744659 271.254323,170.557477 271.205493,172.336724 Z" id="Shape" fill="#000000" opacity="0.1"></path>
                        <path d="M242.227874,121.785351 C242.143767,121.592299 241.960665,121.460834 241.750856,121.442856 C241.541047,121.424878 241.33825,121.523277 241.222526,121.699206 C241.106802,121.875134 241.096749,122.100319 241.196338,122.28586 L240.89115,122.435402 L249.991862,141.088505 L251.636826,140.28586 L242.536114,121.620549 L242.227874,121.785351 Z" id="Shape" fill="#3F3D56"></path>
                        <circle id="Oval" fill="#FBBEBE" cx="253.60529" cy="82.7151577" r="19.5320448"></circle>
                        <path d="M279.384537,70.6236012 C279.293154,69.0709317 279.062316,67.5296267 278.694812,66.0183113 C277.547304,61.0834181 275.450661,56.224822 271.840285,52.681587 C271.61779,51.8152847 271.351942,50.9606993 271.043744,50.121058 C271.037988,50.1002597 271.030851,50.0798686 271.02238,50.0600203 C269.945408,47.1021037 268.388442,44.3418405 266.414039,41.8901322 C265.269583,40.4679552 263.786368,39.0640895 261.961343,39.0091556 C261.448627,38.9908444 260.905392,39.0793489 260.435402,38.844354 C260.089765,38.6208792 259.79877,38.3225834 259.583927,37.9715158 C257.741979,35.6438992 254.761858,34.5287041 251.844354,35.0752798 L251.655137,35.1149542 C251.548321,35.1363174 251.441506,35.1607325 251.349949,35.1881994 C251.258393,35.2156663 251.093591,35.2614446 250.965412,35.301119 C251.105799,35.5330621 251.243133,35.768057 251.377416,36.0061038 C251.739573,36.6510682 252.07528,37.3102747 252.384537,37.9837233 C252.640895,38.5452696 252.877925,39.1159715 253.095626,39.6958291 C249.970498,40.0528993 247.425229,42.2716175 245.099695,44.3835198 L239.624619,49.3519837 C239.614711,49.3603553 239.605523,49.3695431 239.597152,49.3794507 L239.438454,49.5320448 C239.398779,49.5717192 239.359105,49.6113937 239.322482,49.65412 C239.307712,49.6668444 239.294405,49.681175 239.282808,49.6968464 C239.23703,49.7456765 239.194303,49.7975585 239.151577,49.8494405 C239.075394,49.9455581 239.007017,50.0476126 238.947101,50.1546287 C238.917183,50.2004392 238.890662,50.2483804 238.867752,50.2980671 C238.859378,50.3127099 238.852232,50.3280218 238.846389,50.3438454 C238.826485,50.3854686 238.809159,50.4282756 238.794507,50.4720244 C238.793183,50.4780565 238.793183,50.4843037 238.794507,50.4903357 C238.785973,50.5153513 238.778841,50.5408231 238.773143,50.5666328 C238.710845,50.7813982 238.7293,51.011538 238.825025,51.2136317 L242.435402,51.2533062 L242.859613,51.2533062 C242.877925,51.7355036 242.893184,52.2207528 242.911495,52.7029502 C242.33864,53.1317514 241.788553,53.5901571 241.263479,54.076297 C240.690953,54.6062516 240.153693,55.1730763 239.655137,55.7731434 C236.398779,59.7070193 234.698881,64.7884028 234.527976,69.9033571 L234.527976,70.3733469 L234.527976,71.7711089 C234.527976,72.076297 234.555443,72.3814852 234.579858,72.6866734 C234.581401,73.0842064 234.686592,73.4744643 234.885046,73.8189217 C234.911068,73.8573942 234.939615,73.8940974 234.970498,73.9287894 C235.153618,74.1275328 235.37328,74.289171 235.617497,74.404883 L235.879959,74.5330621 L235.879959,74.5330621 C236.01119,74.5971516 236.136317,74.6581892 236.258393,74.7283825 C237.408952,75.3784334 238.089522,76.6327569 239.136317,77.4384537 C239.197355,77.4842319 239.258393,77.5300102 239.31943,77.5696846 L239.456765,77.6612411 L239.542218,77.716175 L239.658189,77.7833164 C239.734228,77.8291958 239.812672,77.8709648 239.893184,77.9084435 L239.893184,77.9084435 L240.039674,77.9816887 L240.06409,77.9816887 L240.06409,77.9816887 C240.186165,78.0366226 240.30824,78.0885046 240.433367,78.1342828 L240.607325,78.1953204 L240.659207,78.2136317 C240.708037,78.2288911 240.759919,78.2472024 240.811801,78.25941 C240.915565,78.2899288 241.017294,78.3173957 241.116989,78.3418108 L241.422177,78.4089522 C241.5412,78.4303154 241.663276,78.4516785 241.785351,78.4669379 L241.965412,78.491353 L242.148525,78.5096643 C242.439471,78.5361139 242.732452,78.5513733 243.027467,78.5554425 L243.027467,78.5554425 C243.953282,78.5497316 244.87781,78.4855141 245.795524,78.363174 L253.583927,77.4476094 C255.350966,77.2431333 257.154629,77.0386572 258.897253,77.3987792 C260.374364,77.7039674 261.735504,78.4059003 263.169888,78.9033571 C263.493388,79.0162767 263.816887,79.1200407 264.143438,79.2085453 C264.262462,79.242116 264.384537,79.2787386 264.506612,79.3092574 L264.674466,79.3519837 L265.065107,79.4465921 C265.205493,79.4801628 265.34588,79.5137335 265.486267,79.5412004 C265.684639,79.5839268 265.879959,79.6205493 266.078332,79.6571719 C266.212614,79.6846389 266.349949,79.706002 266.487284,79.7304171 L266.514751,79.7304171 L266.905392,79.7914547 L267,79.7914547 L267,79.7914547 L267.289929,79.8311292 C267.430315,79.8524924 267.570702,79.8708037 267.71414,79.8860631 C268.025432,79.9247202 268.336724,79.9582909 268.648016,79.9867752 C269.151577,80.0356053 269.658189,80.0722279 270.173957,80.1027467 L270.68057,80.1332655 L271.187182,80.1576806 L272.713123,80.224822 L272.780264,80.224822 L272.993896,80.224822 C273.628275,80.2690433 274.265675,80.236251 274.892167,80.1271617 C275.002035,80.1057986 275.10885,80.0813835 275.215666,80.0508647 C275.322482,80.0203459 275.410987,79.9898271 275.520855,79.9532045 C276.66531,79.5137335 277.501526,78.5035605 278.081384,77.4231943 C278.203459,77.1943032 278.316378,76.965412 278.420142,76.7304171 C278.523906,76.4954222 278.618515,76.2573754 278.703967,76.0193286 C278.810783,75.7141404 278.90234,75.4242116 278.981689,75.1190234 C279.006104,75.0366226 279.027467,74.9542218 279.045778,74.8687691 C279.06409,74.7833164 279.106816,74.6154629 279.131231,74.4872838 C279.207528,74.1363174 279.265514,73.7822991 279.30824,73.4252289 C279.30824,73.3123093 279.335707,73.1963377 279.347915,73.0834181 C279.375381,72.7782299 279.396745,72.4944049 279.408952,72.1953204 L279.408952,71.5116989 C279.4059,71.2644964 279.384537,70.9379451 279.384537,70.6236012 Z M271.559512,52.4038657 C271.312309,52.1719227 271.059003,51.9491353 270.802645,51.7385554 C271.08789,51.9185719 271.342397,52.1431979 271.55646,52.4038657 L271.559512,52.4038657 Z" id="Shape" fill="#464353"></path>
                        <path d="M216.119023,81.6408952 C213.820956,81.3570702 211.5412,80.3499491 209.273652,80.844354 C207.854527,81.1495422 206.633774,82.0315361 205.498474,82.9379451 C201.273561,86.3242129 197.681065,90.4312505 194.88708,95.069176 C194.413315,95.7626058 194.080456,96.5423889 193.907426,97.3641913 C193.760936,98.3163784 194.020346,99.283825 194.328586,100.196338 C196.416073,106.364191 200.880977,111.515768 202.91353,117.701933 C205.049847,124.208545 204.30824,131.31943 202.733469,137.984741 C200.781369,146.213204 197.608904,154.10322 193.321465,161.392675 C192.739345,162.476618 192.010163,163.474878 191.154629,164.359105 C190.043744,165.427263 188.551373,166.190234 187.892167,167.587996 C187.586979,168.198372 187.498474,168.894201 187.28179,169.547304 C186.671414,171.378433 185.194303,172.947101 185.050865,174.878942 C184.944049,176.353001 185.64293,177.747711 186.067141,179.151577 C186.782526,181.563446 186.706588,184.141041 185.850458,186.506612 C184.303154,190.748728 180.256358,194.606307 181.431333,198.967447 C184.052899,198.213632 186.958291,197.233978 188.194303,194.801628 C188.630722,193.940997 188.847406,192.915565 189.582909,192.286877 C191.050865,191.038657 193.550356,192.167854 195.109868,191.020346 C196.287894,190.147508 196.330621,188.359105 195.805697,186.985758 C195.280773,185.612411 194.377416,184.403866 193.974568,182.990844 C193.272635,180.442523 194.395727,177.747711 194.188199,175.113937 C194.090539,173.893184 193.715158,172.724313 193.687691,171.509664 C193.635809,169.15056 194.942014,166.931841 196.678535,165.329603 C198.415056,163.727365 200.560529,162.66531 202.672431,161.618515 L210.656155,157.651068 C213.552391,156.216684 216.726348,154.467955 217.675483,151.379451 C218.035605,150.222787 218.038657,148.989827 218.056968,147.781282 C218.328586,129.314344 222.955239,111.219736 227.554425,93.3326551 C228.268566,90.5615463 228.994914,87.7782299 230.056968,85.1169888 C231.119023,82.4557477 233.197355,80.3194303 234.256358,77.8474059 C228.11292,77.1271617 222.500509,82.4404883 216.119023,81.6408952 Z" id="Shape" fill="#464353"></path>
                        <path d="M260.130214,197.493388 C260.835198,201.766022 261.265514,206.130214 261.601221,210.473042 C256.107833,215.02645 250.193286,218.987792 244.18413,222.662258 C243.842319,222.872838 243.497457,223.080366 243.152594,223.272635 L243.125127,223.419125 C243.111348,223.3844 243.095027,223.350738 243.076297,223.318413 C242.610057,222.311059 241.794787,221.50663 240.781282,221.053917 C238.528993,216.323499 236.278739,211.593082 234.030519,206.862665 C232.809766,204.30824 231.589013,201.7294 230.978637,198.97355 C230.978637,198.915565 230.95117,198.854527 230.942014,198.796541 C230.478128,196.660224 230.371312,194.441506 230.063072,192.277721 C229.906897,191.038445 229.627801,189.817783 229.229908,188.633774 C228.863683,187.580875 228.360122,186.558494 227.914547,185.53001 C227.365209,184.260427 226.904374,182.975585 226.883011,181.60529 C226.883011,181.168871 226.910478,180.689725 226.696846,180.323499 C226.468459,180.008208 226.18645,179.735496 225.863683,179.517803 C225.044728,178.791594 224.657274,177.694959 224.83825,176.615463 C223.007121,176.710071 221.975585,178.678535 221.240081,180.347915 C220.57141,181.980652 219.693242,183.519498 218.62767,184.925738 C217.850955,185.930286 216.863355,186.752244 215.734486,187.333672 C215.633774,187.382503 215.533062,187.431333 215.429298,187.474059 C212.880977,188.597152 209.905392,188.200407 207.143438,187.693795 C204.7294,187.251272 202.23296,186.701933 200.291963,185.200407 L200.084435,185.035605 C199.509858,184.558087 198.997235,184.010606 198.558494,183.4059 C196.931841,181.18413 196.211597,178.257375 195.811801,175.471007 C195.775178,175.208545 195.738555,174.946083 195.704985,174.683622 C195.427514,172.714801 195.350823,170.722882 195.476094,168.738555 C195.512716,168.250254 195.564598,167.761953 195.628688,167.276704 C195.671414,166.971516 195.717192,166.641913 195.769074,166.324517 C195.767593,166.315421 195.767593,166.306146 195.769074,166.29705 C195.848423,165.793489 195.933876,165.286877 196.019329,164.771109 C196.324517,163.040692 196.629705,161.264496 197.54527,159.775178 C198.147766,158.848492 198.907992,158.034555 199.791455,157.370295 C200.121058,157.110885 200.459817,156.863683 200.801628,156.625636 C201.35707,156.241099 201.927772,155.874873 202.50763,155.53001 C203.966488,154.656797 205.498136,153.911394 207.085453,153.302136 C207.463886,153.155646 207.848423,153.018311 208.23296,152.88708 C209.727726,152.355397 211.336418,152.228007 212.896236,152.517803 C214.278412,152.717836 215.67514,152.799516 217.071211,152.761953 C220.651068,152.69176 224.246185,152.008138 227.819939,151.565615 C232.782299,150.955239 238.113937,150.881994 242.441506,153.396745 C242.649034,153.515768 242.850458,153.640895 243.051882,153.772126 C245.188199,155.169888 246.909461,157.129196 248.298067,159.317396 C248.603255,159.77823 248.868769,160.251272 249.131231,160.730417 C249.736219,161.830261 250.283253,162.961003 250.770092,164.118006 C251.058198,164.686139 251.213676,165.312224 251.224822,165.949135 C251.217757,166.070246 251.201433,166.190638 251.175992,166.309257 C251.093591,166.742625 250.928789,167.163784 250.870804,167.603255 C250.678535,169.266531 252.091556,170.655137 252.619532,172.239064 C252.961343,173.2706 252.92472,174.375381 253.116989,175.461851 C253.39471,176.987792 254.142421,178.361139 254.813835,179.734486 C255.874823,181.945145 256.782361,184.226225 257.53001,186.561546 C258.061038,188.188199 258.515768,189.839268 258.915565,191.505595 C259.045778,192.040692 259.168871,192.576806 259.284842,193.113937 C259.617497,194.591048 259.889115,196.03764 260.130214,197.493388 Z" id="Shape" fill="#F86D70"></path>
                        <polygon id="Shape" fill="#3F3D56" points="292.669379 152.298067 292.669379 154.434385 292.275687 154.428281 291.836216 154.422177 286.928789 154.361139 274.837233 154.202442 271.44354 154.159715 270.564598 154.147508 265.471007 154.083418 258.292981 153.98881 243.06409 153.790437 216.637843 153.448627 207.100712 153.326551 203.273652 153.277721 199.75178 153.231943 197.557477 153.201424 195.479145 153.173957 180.070193 152.975585 175.797558 152.920651 174.866734 152.908444 174.262462 151.348932 169.870804 140.023398 169.068159 137.954222 169.678535 135.512716 172.425229 137.343845 174.115972 137.554425 201.952187 141.015259 207.177009 141.66531 218.255341 143.044761 229.107833 144.393693 233.362157 144.921668 258.537131 148.052899 265.571719 148.928789 271.39471 149.652085 292.098678 152.227874"></polygon>
                        <polygon id="Shape" fill="#504F60" points="169.678535 135.512716 175.171923 149.856562 292.669379 152.298067 292.669379 136.733469"></polygon>
                        <polygon id="Shape" fill="#3F3D56" points="175.782299 151.382503 176.697864 238.971516 180.970498 238.361139 180.054934 151.382503"></polygon>
                        <path d="M292.275687,154.425229 L291.836216,154.425229 C291.12471,159.886018 289.94748,165.275954 288.317396,170.536114 L286.928789,154.361139 L286.870804,153.671414 L292.004069,153.079349 L292.174975,153.061038 L292.275687,154.425229 Z" id="Shape" fill="#3F3D56"></path>
                        <polygon id="Shape" fill="#FFFFFF" points="275.57884 144.057986 230.868769 144.97355 216.982706 140.395727 254.215666 138.25941"></polygon>
                        <path d="M219.494405,126.25941 C219.020382,126.441256 218.600326,126.740545 218.273652,127.129196 C218.018203,127.550238 217.862644,128.024222 217.818922,128.514751 L217.068159,132.991862 C216.953649,133.40139 216.97398,133.836898 217.126144,134.233978 C217.321465,134.609359 217.889115,134.80468 218.17294,134.493388 C218.136317,135.369278 218.212614,136.303154 218.722279,137.017294 C219.231943,137.731434 220.300102,138.106816 221.020346,137.609359 C221.248927,137.981846 221.629578,138.235137 222.061445,138.30212 C222.493312,138.369104 222.932805,138.243019 223.263479,137.957274 C222.830112,138.103764 222.799593,138.766022 223.107833,139.101729 C223.452972,139.406392 223.892946,139.582166 224.353001,139.599186 C229.716036,140.355134 235.183646,139.667205 240.192269,137.606307 C240.66531,137.410987 239.420142,131.57884 239.295015,130.980671 C238.989827,129.573754 238.837233,127.855544 237.650051,126.909461 C234.811801,124.644964 229.770092,124.19939 226.312309,124.467955 C223.949832,124.646661 221.639579,125.253697 219.494405,126.25941 L219.494405,126.25941 Z" id="Shape" fill="#FBBEBE"></path>
                        <path d="M264.985758,126.936928 C253.947101,127.147508 242.679552,127.327569 232.144456,124.02238 C233.150799,127.922119 233.081189,132.02172 231.943032,135.885046 L283.55646,140.157681 C285.744659,140.337742 294.817904,141.363174 296.95117,140.847406 C299.084435,140.331638 279.051882,133.733469 279.860631,131.69176 C282.085453,126.067141 289.538149,122.771109 284.169888,122.560529 C277.39471,122.291963 271.812818,126.808749 264.985758,126.936928 Z" id="Shape" fill="#000000" opacity="0.1"></path>
                        <path d="M265.290946,127.547304 C254.252289,127.757884 242.984741,127.937945 232.449644,124.632757 C233.455987,128.532496 233.386378,132.632096 232.24822,136.495422 L283.861648,140.768057 C286.049847,140.948118 295.123093,141.98881 297.256358,141.457782 C299.389624,140.926755 298.889115,138.311292 299.697864,136.269583 C301.922686,130.644964 289.843337,123.381485 284.475076,123.170905 C277.699898,122.90234 272.118006,127.419125 265.290946,127.547304 Z" id="Shape" fill="#464353"></path>
                        <path d="M247.739573,128.395727 C248.213787,128.577216 248.633926,128.876565 248.960326,129.265514 C249.215382,129.686967 249.371875,130.160621 249.418108,130.651068 L250.168871,135.128179 C250.281872,135.537877 250.261563,135.972906 250.110885,136.370295 C249.915565,136.745677 249.344863,136.940997 249.06409,136.629705 C249.09766,137.505595 249.024415,138.439471 248.514751,139.153611 C248.005086,139.867752 246.936928,140.243133 246.213632,139.745677 C245.985051,140.118164 245.6044,140.371454 245.172533,140.438438 C244.740665,140.505421 244.301173,140.379337 243.970498,140.093591 C244.403866,140.240081 244.437436,140.90234 244.129196,141.238047 C243.782855,141.54271 243.341933,141.718432 242.880977,141.735504 C237.518943,142.491493 232.052304,141.803554 227.044761,139.742625 C226.571719,139.547304 227.813835,133.715158 227.942014,133.116989 C228.247202,131.710071 228.399797,129.991862 229.586979,129.045778 C232.422177,126.781282 237.466938,126.335707 240.92472,126.604273 C243.286158,126.783343 245.595345,127.390371 247.739573,128.395727 Z" id="Shape" fill="#FBBEBE"></path>
                        <path d="M174.799593,118.675483 C173.786368,119.981689 172.770092,121.315361 172.116989,122.83825 C170.868769,125.743642 171.051882,129.033571 171.25941,132.189217 C171.317396,133.104781 171.390641,134.038657 171.869786,134.798576 C172.284024,135.372657 172.830468,135.838495 173.462869,136.156663 C176.105799,137.658189 179.200407,138.106816 182.22177,138.442523 C186.848423,138.955239 191.491353,139.267548 196.15056,139.379451 C207.692777,139.660224 219.412004,138.717192 230.655137,141.332655 C229.263479,139.217701 229.266531,136.419125 230.044761,134.008138 C230.822991,131.597152 232.321465,129.497457 233.78942,127.431333 C228.643947,125.801628 223.126144,128.346897 217.736521,128.093591 C212.203459,127.834181 207.082401,124.635809 201.543235,124.638861 C200.353001,124.638861 199.141404,124.788403 197.984741,124.501526 C196.828077,124.214649 195.708037,123.341811 195.601221,122.154629 C197.078332,122.487284 198.479145,121.223805 199.089522,119.83825 C199.699898,118.452696 199.809766,116.88708 200.401831,115.49237 C201.87589,112.02238 205.858596,110.414039 208.336724,107.557477 C208.727365,107.105799 209.096643,106.571719 209.084435,105.97355 C209.026212,105.466842 208.813057,104.990441 208.474059,104.609359 C206.414039,101.862665 203.310275,100.336724 200.731434,98.2004069 C199.834181,97.4557477 198.024415,94.6480163 197.017294,94.3886063 C195.149542,93.9094608 193.565615,96.6073245 192.350966,97.9226857 C186.218718,104.585961 180.36826,111.503561 174.799593,118.675483 Z" id="Shape" fill="#464353"></path>
                        <path d="M236.166836,117.900305 C236.940378,118.473998 237.627907,119.155361 238.208545,119.923703 C238.793473,120.703891 239.024811,121.693441 238.846389,122.652085 C238.651743,120.83434 239.690801,119.109229 241.388606,118.431333 L236.166836,117.900305 Z" id="Shape" fill="#000000" opacity="0.07"></path>
                        <g id="Group" opacity="0.1" transform="translate(234.384537, 34.791455)" fill="#000000">
                            <path d="M18.7080366,3.07629705 C18.3490341,2.12243018 17.935326,1.19005859 17.4689725,0.283825025 C17.167509,0.341771145 16.8698968,0.418212643 16.577823,0.512716175 C17.1014164,1.38241663 17.5732433,2.28225056 17.9908444,3.20752798 C18.2258393,3.14649034 18.4638861,3.10376399 18.7080366,3.07629705 Z" id="Shape"></path>
                            <path d="" id="Shape"></path>
                            <path d="M8.04476094,16.4526958 C8.2034588,16.3275687 8.34994914,16.1963377 8.52085453,16.0742625 L8.47202442,14.6246185 L5.21261445,14.5910478 C4.68463886,15.076297 4.12309257,15.7721261 4.43438454,16.422177 L8.04476094,16.4526958 Z" id="Shape"></path>
                            <path d="M43.6785351,40.8555443 C43.0986775,41.9359105 42.2624619,42.9491353 41.1180061,43.3855544 C40.2360122,43.7212614 39.2655137,43.6907426 38.3224822,43.6480163 C35.1057986,43.5167854 31.8341811,43.3733469 28.7945066,42.3082401 C27.3723296,41.8077314 26.0111902,41.1088505 24.5218718,40.8006104 C22.7792472,40.4404883 20.9755849,40.6449644 19.2085453,40.8524924 L11.4201424,41.768057 C9.12207528,42.0366226 6.56154629,42.2380468 4.72736521,40.8280773 C3.6775178,40.0223805 3,38.768057 1.84944049,38.121058 C1.36419125,37.8463886 0.787385554,37.6693795 0.473041709,37.2054934 C0.27458785,36.861036 0.169397043,36.4707781 0.16785351,36.0732452 C0.143438454,35.7527976 0.128179044,35.4323499 0.115971516,35.1119023 C0.0828880662,36.0429808 0.100207379,36.9751674 0.16785351,37.9043744 C0.169397043,38.3019073 0.27458785,38.6921652 0.473041709,39.0366226 C0.778229908,39.4974568 1.36419125,39.6744659 1.84944049,39.9521872 C3,40.5991862 3.68056968,41.8535097 4.72736521,42.6592065 C6.5584944,44.069176 9.12207528,43.8799593 11.4201424,43.5991862 L19.2085453,42.6836216 C20.9755849,42.4760936 22.7792472,42.2716175 24.5218718,42.6317396 C25.9989827,42.9369278 27.3601221,43.6388606 28.7945066,44.1393693 C31.8463886,45.2044761 35.1057986,45.3601221 38.3224822,45.4791455 C39.2655137,45.5188199 40.2360122,45.5523906 41.1180061,45.2166836 C42.2624619,44.7802645 43.0986775,43.7670397 43.6785351,42.6866734 C44.8016277,40.5961343 45.1159715,38.224822 44.9969481,35.8351984 C44.9315673,37.5851729 44.4814266,39.2992503 43.6785351,40.8555443 Z" id="Shape"></path>
                        </g>
                        <path d="M253.004069,39.8301119 L257.276704,43.7975585 C257.276704,43.7975585 253.614446,42.2716175 253.004069,39.8301119 Z" id="Shape" fill="#000000" opacity="0.1"></path>
                    </g>
                </g>
            </g>
        </g>
    </g>
</svg>